<svg xmlns="http://www.w3.org/2000/svg" width="176" height="36" fill="none" viewBox="0 0 176 36">
    <path fill="#fff" d="M169.114 32.267a3.32 3.32 0 0 1 3.32-3.316 3.317 3.317 0 0 1-.004 6.634 3.321 3.321 0 0 1-3.316-3.318zm3.315-2.807a2.807 2.807 0 1 0 0 5.614 2.807 2.807 0 0 0 0-5.614z"/>
    <path fill="#fff" d="M173.809 33.798l-.024.002h-.463c-.017 0-.026-.006-.035-.02l-.692-1.087c-.009-.014-.019-.02-.035-.02l-.612.001h-.027v1.123h-.509v-3.06l.015-.001h1.329c.144 0 .29.012.429.06.126.042.255.082.36.167.137.108.25.237.29.415.021.089.035.18.045.27.013.124-.012.246-.039.367a.646.646 0 0 1-.098.232.86.86 0 0 1-.455.326c-.065.02-.132.036-.198.056l-.02.005c.246.39.491.775.739 1.164zm-1.888-1.554h.735c.052-.001.105-.001.156-.013.083-.019.162-.049.244-.07a.482.482 0 0 0 .283-.274.663.663 0 0 0 .02-.346.336.336 0 0 0-.132-.22 3.986 3.986 0 0 0-.158-.103.357.357 0 0 0-.137-.046l-.106-.014c-.048-.005-.098-.015-.145-.015-.246-.002-.491-.001-.737-.001l-.021.001c-.002.369-.002.733-.002 1.1zM98.294 31.967c1.787-2.622 1.786-2.618 4.574-1.385 4.175 1.844 8.514 2.323 12.996 1.513.986-.178 1.924-.514 2.751-1.095 1.008-.708 1.605-1.643 1.422-2.92-.178-1.229-1.014-1.92-2.121-2.265-2.259-.704-4.619-.713-6.948-.888-2.485-.188-4.974-.337-7.4-.944-2.184-.546-4.042-1.523-4.453-4.028-.445-2.704.61-4.81 3.073-6.25 1.44-.843 3.014-1.309 4.655-1.498 5.143-.592 10.132-.19 14.789 2.361.944.518 1.163.804.347 1.783-1.026 1.233-1.847 1.433-3.335.742-3.843-1.784-7.923-2.213-12.11-1.481a6.482 6.482 0 0 0-2.23.809c-.776.462-1.314 1.1-1.261 2.047.053.954.682 1.547 1.501 1.883 1.877.772 3.887.803 5.871.95 2.731.205 5.487.258 8.149.968 2.359.63 4.589 1.548 5.371 4.199.851 2.877-.304 5.737-2.917 7.345-1.549.954-3.26 1.5-5.054 1.699-5.576.616-11.047.449-16.104-2.422a12.665 12.665 0 0 1-1.002-.646c-.202-.143-.379-.318-.564-.477zM72.565 35.803c-4.79-.025-8.926-.655-12.672-2.957-.908-.558-1.146-.911-.434-1.96.95-1.403 1.678-1.478 3.16-.702 4.33 2.264 8.986 2.78 13.79 1.902.982-.18 1.919-.524 2.74-1.122.948-.69 1.518-1.579 1.382-2.796-.137-1.244-.949-1.97-2.048-2.329-2.299-.745-4.714-.732-7.09-.916-2.436-.19-4.874-.333-7.254-.924-2.24-.556-4.154-1.523-4.542-4.111-.41-2.738.618-4.822 3.143-6.21 3.726-2.047 7.78-1.888 11.814-1.504 2.744.262 5.338 1.12 7.751 2.506.755.434.95.635.323 1.49-1.074 1.468-2.044 1.585-3.688.837-3.803-1.73-7.85-2.143-11.977-1.382-2.196.404-3.462 1.456-3.444 2.754.019 1.266 1.093 2.197 3.436 2.5 3.407.445 6.84.673 10.258 1.021 1.292.133 2.542.493 3.734 1.006 4.31 1.853 5.081 7.202 1.464 10.235-2.03 1.703-4.51 2.25-7.06 2.522-1.09.117-2.191.113-2.786.14zM162.283 20.964c0 2.143-.068 4.289.016 6.428.113 2.915-1.236 4.962-3.627 6.396-3.723 2.233-7.829 2.444-12.003 2.055-2.397-.224-4.695-.848-6.748-2.186-2.246-1.465-3.47-3.432-3.422-6.214.077-4.534.053-9.07-.004-13.605-.013-1.027.224-1.352 1.296-1.325 2.515.064 2.517.003 2.517 2.52 0 3.837-.012 7.675.004 11.512.01 2.736 1.053 4.345 3.63 5.172 3.6 1.155 7.274 1.155 10.88.026 2.582-.807 3.65-2.409 3.666-5.147.026-4.186.042-8.372-.016-12.559-.015-1.109.185-1.581 1.444-1.529 2.364.1 2.368.016 2.368 2.325l-.001 6.13zM41.045 23.855c0-3.34.043-6.681-.025-10.02-.02-1.043.258-1.343 1.31-1.319 2.53.057 2.532 0 2.532 2.502 0 6.333-.024 12.665.024 18.998.008 1.06-.303 1.345-1.341 1.326-2.498-.045-2.5.008-2.5-2.51v-8.977z"/>
    <path fill="#fff" d="M147.603 6.5c.001-1.838.028-3.679-.014-5.517-.016-.696.18-.915.908-.944 2.914-.119 2.913-.148 2.913 2.686 0 2.883-.045 5.767.023 8.65.024 1.041-.28 1.352-1.327 1.335-2.502-.042-2.503.011-2.503-2.479v-3.73zM23.041 23.588c2.078.85 3.357 2.255 3.635 4.444.506 3.958-1.301 6.357-5.324 7.01a20.13 20.13 0 0 1-3.123.263c-5.63.025-11.259-.014-16.888.036-1.019.01-1.349-.212-1.34-1.294.05-6.775.05-13.55 0-20.326-.009-1.031.334-1.204 1.26-1.198 5.63.04 11.259.02 16.89.022.447.001.895.022 1.342.052 3.027.197 5.21 1.683 6.019 4.094.896 2.664.212 4.646-2.47 6.897zM12.07 31.795c2.49 0 4.985.093 7.47-.025 2.557-.122 3.757-1.667 3.262-3.911-.32-1.45-1.465-2.307-3.38-2.34-3.239-.055-6.48-.089-9.716 0-1.179.032-1.51-.354-1.34-1.424.04-.242.04-.503 0-.746-.173-1.061.281-1.33 1.313-1.312 3.036.055 6.079.063 9.114-.043 2.008-.07 3.38-1.451 3.361-3.101-.02-1.74-1.345-2.927-3.447-2.943-4.634-.035-9.268.004-13.9-.029-.769-.006-1.024.198-1.019.995.034 4.634.04 9.267-.003 13.9-.008.884.294 1.076 1.11 1.06 2.39-.048 4.783-.018 7.175-.018v-.063z"/>
</svg>
