<svg xmlns="http://www.w3.org/2000/svg" width="245" height="24" fill="none" viewBox="0 0 245 24">
    <path fill="#fff" d="M8.34 23.51H5.465V3.114H0V.487h13.797v2.627H8.34V23.51zM50.777 12.004c0 6.84-5.405 11.995-12.066 11.995-6.65 0-12.055-5.156-12.055-11.995C26.656 5.401 32.126 0 38.71 0c6.604 0 12.066 5.401 12.066 12.004zm-2.873 0c0-5.073-3.78-9.316-9.194-9.316-5.407 0-9.181 4.243-9.181 9.316 0 5.247 4.207 9.307 9.182 9.307 4.983 0 9.193-4.06 9.193-9.307zM80.096 23.51h-3.49l-6.78-9.74h-1.188v9.74h-2.862V.487h3.478c2.041 0 4.234.033 6.07 1.073 1.927 1.127 3.027 3.294 3.027 5.492 0 3.298-2.203 6.045-5.526 6.445l7.27 10.013zM68.639 11.388h.917c2.938 0 6.103-.55 6.103-4.213 0-3.601-3.407-4.12-6.252-4.12h-.767v8.334zM110.111 23.51h-3.487l-6.773-9.74h-1.196v9.74h-2.873V.487h3.482c2.052 0 4.256.033 6.088 1.073 1.917 1.127 3.012 3.294 3.012 5.492 0 3.298-2.198 6.045-5.524 6.445l7.271 10.013zM98.654 11.388h.923c2.924 0 6.1-.55 6.1-4.213 0-3.601-3.418-4.12-6.254-4.12h-.77v8.334zM124.578.487h12.371v2.627h-9.5v6.443h9.23v2.628h-9.23v8.7h9.5v2.626h-12.371V.487zM176.609 20.885h6.993v2.625h-9.862V.487h2.869v20.398zM200.18.487v13.588c0 3.758 1.129 7.236 5.563 7.236 4.421 0 5.557-3.479 5.557-7.236V.487h2.866v14.567c0 5.066-3.144 8.946-8.424 8.946-5.285 0-8.434-3.88-8.434-8.946V.487h2.872zM244.759 20.885v2.625h-16.335l11.67-20.396h-10.011V.487h14.676l-11.657 20.398h11.657z"/>
</svg>
