<svg xmlns="http://www.w3.org/2000/svg" width="166" height="115" fill="none" viewBox="0 0 166 115">
    <path fill="#fff" d="M1.834 85.07V67.54h2.97v17.53h-2.97zM8.46 85.07V73.407h2.725v1.606a3.555 3.555 0 0 1 1.528-1.428c.652-.323 1.41-.484 2.273-.484.849 0 1.56.142 2.139.428.579.285 1.034.668 1.369 1.149.285.433.48.914.587 1.448.106.533.159 1.204.159 2.01v6.931h-2.726v-6.054c0-.498-.043-.966-.128-1.403a3.288 3.288 0 0 0-.416-1.115 2.133 2.133 0 0 0-.77-.735c-.321-.183-.727-.275-1.217-.275-.953 0-1.658.339-2.115 1.016-.456.678-.684 1.515-.684 2.512v6.054l-2.725.001zM21.869 79.238c0-.783.124-1.547.373-2.292a5.715 5.715 0 0 1 1.112-1.969 5.533 5.533 0 0 1 1.815-1.362c.718-.343 1.553-.514 2.506-.514.952 0 1.764.135 2.44.403.675.27 1.231.615 1.67 1.039.44.423.773.907 1.001 1.448.228.542.367 1.098.415 1.67h-2.725c-.082-.637-.327-1.15-.734-1.542-.407-.39-1.08-.587-2.017-.587-.537 0-.998.1-1.38.3-.385.2-.708.471-.974.813-.264.343-.46.733-.586 1.173-.127.441-.189.914-.189 1.419 0 .497.063.972.189 1.424.125.453.322.846.586 1.18.266.334.607.601 1.027.801.42.2.92.3 1.498.3.799 0 1.388-.167 1.766-.5.378-.335.657-.796.837-1.383h2.726a5.72 5.72 0 0 1-.549 1.693 4.463 4.463 0 0 1-1.092 1.375 5.053 5.053 0 0 1-1.647.917c-.637.221-1.384.33-2.237.33-.954 0-1.793-.17-2.519-.514a5.468 5.468 0 0 1-1.827-1.368 5.806 5.806 0 0 1-1.112-1.956 7.1 7.1 0 0 1-.373-2.298zM35.852 80.338v-6.93h2.726v6.04c0 .499.044.968.13 1.404.084.437.223.81.414 1.121.192.312.45.558.776.743.326.183.73.274 1.21.274.954 0 1.66-.34 2.121-1.017.461-.677.69-1.519.69-2.524v-6.041h2.726v11.661H43.92v-1.606a3.555 3.555 0 0 1-1.528 1.428c-.652.322-1.414.484-2.285.484-.849 0-1.559-.143-2.134-.428a3.537 3.537 0 0 1-1.364-1.148 4.132 4.132 0 0 1-.593-1.456c-.11-.538-.164-1.205-.164-2.005zM50.497 85.07V67.54h2.726v7.444c.366-.587.89-1.047 1.565-1.381.676-.334 1.355-.5 2.04-.5.89 0 1.698.161 2.426.488.73.325 1.358.772 1.883 1.338a6.32 6.32 0 0 1 1.668 4.31c0 .83-.146 1.612-.44 2.345a6.331 6.331 0 0 1-1.228 1.957 5.69 5.69 0 0 1-1.888 1.345c-.732.325-1.54.489-2.42.489-.685 0-1.365-.168-2.041-.502-.677-.334-1.2-.795-1.565-1.382v1.577l-2.726.001zm2.726-5.832c0 .497.08.972.238 1.424.159.453.388.846.684 1.18.296.334.657.6 1.081.8.425.2.906.301 1.443.301.514 0 .98-.1 1.4-.3.42-.2.78-.467 1.082-.801.301-.334.53-.726.69-1.18.158-.452.238-.927.238-1.424 0-.498-.08-.972-.238-1.425a3.46 3.46 0 0 0-.69-1.18c-.303-.334-.66-.6-1.077-.8-.416-.2-.884-.3-1.405-.3-.537 0-1.018.1-1.443.3-.423.2-.784.466-1.081.8a3.509 3.509 0 0 0-.684 1.174 4.276 4.276 0 0 0-.238 1.43zM64.762 79.238c0-.815.146-1.596.44-2.342.293-.745.703-1.4 1.228-1.968a5.712 5.712 0 0 1 1.888-1.338c.733-.327 1.54-.489 2.42-.489.685 0 1.366.167 2.043.5.676.335 1.197.795 1.564 1.382v-1.576h2.725v11.661h-2.725v-1.576c-.367.586-.889 1.047-1.564 1.381-.676.334-1.357.502-2.042.502-.889 0-1.698-.164-2.426-.489a5.703 5.703 0 0 1-1.883-1.345 6.34 6.34 0 0 1-1.228-1.956 6.26 6.26 0 0 1-.44-2.347zm2.726 0c0 .497.08.972.237 1.424.16.453.39.846.692 1.18.301.334.661.601 1.081.801.42.2.887.3 1.4.3a3.296 3.296 0 0 0 2.5-1.1 3.65 3.65 0 0 0 .696-1.18c.167-.454.25-.928.25-1.425 0-.498-.083-.972-.25-1.425a3.66 3.66 0 0 0-.696-1.18 3.313 3.313 0 0 0-2.5-1.1c-.514 0-.98.1-1.4.3-.42.2-.78.466-1.081.8a3.444 3.444 0 0 0-.692 1.174 4.276 4.276 0 0 0-.237 1.43zM79.847 79.238c0-.815.146-1.596.44-2.342.293-.745.702-1.4 1.227-1.969a5.732 5.732 0 0 1 1.888-1.337c.734-.327 1.54-.489 2.421-.489.684 0 1.365.167 2.041.5.678.335 1.2.795 1.565 1.382V67.54h2.726v17.53h-2.726V83.49c-.366.587-.888 1.048-1.565 1.382-.676.334-1.357.501-2.04.501-.89 0-1.699-.163-2.427-.488a5.713 5.713 0 0 1-1.883-1.345 6.337 6.337 0 0 1-1.228-1.956 6.257 6.257 0 0 1-.44-2.347zm2.725 0c0 .497.079.972.238 1.424.16.453.389.846.69 1.18.302.334.663.601 1.083.8.418.2.886.301 1.398.301a3.306 3.306 0 0 0 2.5-1.101c.299-.334.53-.726.698-1.18.167-.453.25-.927.25-1.424a4.08 4.08 0 0 0-.25-1.425 3.66 3.66 0 0 0-.697-1.18 3.319 3.319 0 0 0-2.5-1.1c-.514 0-.98.1-1.4.3-.42.2-.78.466-1.082.8a3.44 3.44 0 0 0-.69 1.174c-.16.449-.238.927-.238 1.43zM94.93 79.238c0-.815.146-1.596.44-2.342.293-.745.707-1.4 1.24-1.968a5.787 5.787 0 0 1 1.926-1.338c.75-.327 1.594-.489 2.531-.489s1.784.162 2.542.489a5.862 5.862 0 0 1 3.198 3.3c.288.742.434 1.524.434 2.347a6.34 6.34 0 0 1-.434 2.347 6.048 6.048 0 0 1-1.248 1.956 5.865 5.865 0 0 1-1.95 1.345c-.758.325-1.604.489-2.542.489-.938 0-1.78-.163-2.53-.489a5.757 5.757 0 0 1-1.927-1.345 6.227 6.227 0 0 1-1.68-4.302zm2.726 0c0 .497.08.972.239 1.424.158.453.389.846.689 1.18.302.334.662.601 1.082.801.42.2.887.3 1.4.3.513 0 .984-.1 1.411-.3a3.298 3.298 0 0 0 1.089-.8c.297-.335.529-.727.697-1.18.166-.453.25-.928.25-1.425 0-.498-.084-.972-.25-1.425a3.686 3.686 0 0 0-.697-1.18 3.312 3.312 0 0 0-2.5-1.1c-.514 0-.98.1-1.4.3-.42.2-.78.466-1.082.8a3.436 3.436 0 0 0-.69 1.174 4.25 4.25 0 0 0-.238 1.43zM110.027 85.07V73.407h2.725v1.889c.131-.271.318-.529.562-.771.245-.243.528-.46.85-.654a4.445 4.445 0 0 1 1.051-.457c.379-.11.76-.167 1.142-.167.433 0 .791.063 1.077.186v2.516a6.162 6.162 0 0 0-.544-.098 5.004 5.004 0 0 0-.533-.023c-1.165 0-2.057.336-2.677 1.012-.618.675-.929 1.743-.929 3.207v5.022h-2.724zM118.364 79.238a6.35 6.35 0 0 1 1.668-4.31 5.71 5.71 0 0 1 1.888-1.338c.733-.327 1.54-.489 2.42-.489.685 0 1.365.167 2.042.5.677.335 1.198.795 1.564 1.382v-1.576h2.726v11.661h-2.726v-1.576c-.366.586-.888 1.047-1.564 1.381-.677.334-1.356.502-2.042.502-.889 0-1.697-.164-2.426-.489a5.696 5.696 0 0 1-1.882-1.345 6.336 6.336 0 0 1-1.229-1.956 6.267 6.267 0 0 1-.439-2.347zm2.725 0c0 .497.08.972.238 1.424.159.453.39.846.691 1.18.3.334.662.601 1.082.801.42.2.886.3 1.399.3.514 0 .984-.1 1.412-.3a3.294 3.294 0 0 0 1.088-.8 3.64 3.64 0 0 0 .697-1.18c.167-.454.25-.928.25-1.425a4.08 4.08 0 0 0-.25-1.425 3.65 3.65 0 0 0-.697-1.18 3.308 3.308 0 0 0-2.5-1.1c-.514 0-.979.1-1.399.3-.42.2-.781.466-1.082.8a3.446 3.446 0 0 0-.691 1.174 4.279 4.279 0 0 0-.238 1.43zM139.706 79.238a6.35 6.35 0 0 1 1.669-4.31 5.7 5.7 0 0 1 1.888-1.338c.733-.327 1.54-.489 2.42-.489.684 0 1.365.167 2.041.5.678.335 1.199.795 1.565 1.382V67.54h2.727v17.53h-2.727V83.49c-.366.587-.888 1.048-1.565 1.382-.676.334-1.356.501-2.041.501-.888 0-1.697-.163-2.426-.488a5.698 5.698 0 0 1-1.882-1.345 6.337 6.337 0 0 1-1.229-1.956 6.267 6.267 0 0 1-.44-2.347zm2.726 0c0 .497.08.972.239 1.424.158.453.389.846.689 1.18.301.334.663.601 1.082.8.42.2.887.301 1.4.301a3.304 3.304 0 0 0 2.5-1.101c.297-.334.529-.726.696-1.18.167-.453.251-.927.251-1.424 0-.498-.084-.972-.251-1.425a3.664 3.664 0 0 0-.696-1.18 3.317 3.317 0 0 0-2.5-1.1c-.514 0-.98.1-1.4.3-.419.2-.78.466-1.082.8a3.44 3.44 0 0 0-.689 1.174 4.253 4.253 0 0 0-.239 1.43zM154.84 79.238c0-.864.128-1.673.385-2.426a5.69 5.69 0 0 1 1.112-1.956 5.003 5.003 0 0 1 1.803-1.29c.718-.31 1.536-.464 2.457-.464.75 0 1.456.134 2.115.403a5.44 5.44 0 0 1 1.73 1.112 4.983 4.983 0 0 1 1.148 1.662c.274.636.41 1.328.41 2.079 0 .203-.004.441-.013.715a7.44 7.44 0 0 1-.109.984h-8.264c0 .417.06.811.178 1.183.118.373.297.696.537.97.241.275.554.492.941.65.387.16.854.24 1.4.24.383 0 .713-.041.99-.123.276-.082.512-.19.702-.326.192-.136.351-.3.477-.493.126-.192.229-.394.311-.598h2.752a4.426 4.426 0 0 1-.564 1.435 4.521 4.521 0 0 1-1.075 1.218c-.44.35-.962.631-1.565.843-.601.212-1.279.318-2.028.318-.986 0-1.842-.172-2.567-.515a5.327 5.327 0 0 1-1.815-1.368 5.762 5.762 0 0 1-1.088-1.956 7.324 7.324 0 0 1-.36-2.297zm2.798-1.198h5.709c0-.815-.264-1.463-.789-1.944-.525-.48-1.205-.72-2.035-.72-.8 0-1.479.226-2.042.678-.562.452-.843 1.114-.843 1.986zM1.834 91.612h10.11v2.579H4.706v4.963h7.236v2.579H4.707v4.829h7.236v2.579H1.834v-17.53zM15.476 97.479H18.2v1.606c.253-.532.667-.983 1.242-1.354.574-.372 1.244-.558 2.01-.558 1.066 0 1.884.197 2.45.593.566.396.976.884 1.229 1.465.285-.581.743-1.069 1.375-1.465.632-.395 1.367-.594 2.207-.594.863 0 1.573.14 2.128.416.554.278.983.632 1.289 1.064.306.431.513.919.624 1.46.109.542.164 1.091.164 1.644v7.383h-2.726v-6.556c0-.939-.171-1.679-.513-2.218-.343-.538-.896-.81-1.663-.81-.35 0-.672.059-.965.173a1.81 1.81 0 0 0-.776.601c-.226.285-.4.659-.527 1.121-.126.462-.188 1.044-.188 1.747v5.943h-2.725v-6.58c0-.939-.163-1.676-.49-2.206-.326-.531-.872-.797-1.637-.797-.351 0-.677.058-.977.172a1.798 1.798 0 0 0-.789.601c-.225.285-.404.659-.538 1.121-.134.462-.202 1.044-.202 1.747v5.943h-2.727V97.479zM36.403 114.996V97.48h2.725v1.576c.367-.586.89-1.047 1.565-1.381.677-.334 1.357-.502 2.042-.502.888 0 1.697.164 2.425.49.73.325 1.357.77 1.883 1.338a6.32 6.32 0 0 1 1.668 4.31c0 .83-.146 1.613-.44 2.346a6.314 6.314 0 0 1-1.228 1.955 5.668 5.668 0 0 1-1.888 1.345c-.733.327-1.54.49-2.42.49-.684 0-1.365-.167-2.042-.502-.677-.334-1.198-.794-1.565-1.381v7.432h-2.725zm2.725-11.686c0 .498.08.972.239 1.425.159.451.387.845.684 1.179.298.335.66.601 1.088.801.428.2.907.301 1.436.301.514 0 .98-.101 1.4-.301a3.391 3.391 0 0 0 1.771-1.98c.16-.453.239-.927.239-1.425 0-.496-.08-.973-.239-1.424a3.433 3.433 0 0 0-.69-1.18 3.438 3.438 0 0 0-1.081-.802c-.42-.199-.887-.3-1.4-.3-.537 0-1.019.101-1.443.3-.423.2-.783.468-1.08.802a3.487 3.487 0 0 0-.685 1.174c-.16.448-.239.925-.239 1.43zM51.549 97.479h2.725v1.889c.13-.272.318-.528.562-.771a4.43 4.43 0 0 1 .85-.654 4.461 4.461 0 0 1 1.052-.456c.38-.112.76-.167 1.142-.167.433 0 .79.062 1.076.186v2.515c-.22-.048-.401-.081-.545-.098a4.917 4.917 0 0 0-.53-.024c-1.167 0-2.058.338-2.678 1.013-.618.674-.929 1.743-.929 3.206v5.023H51.55V97.479zM59.933 103.31c0-.863.129-1.673.385-2.426a5.717 5.717 0 0 1 1.113-1.956 5.028 5.028 0 0 1 1.803-1.29c.717-.31 1.537-.465 2.458-.465a5.553 5.553 0 0 1 3.844 1.515 5.037 5.037 0 0 1 1.149 1.664c.272.635.409 1.328.409 2.078 0 .203-.004.441-.012.715a7.496 7.496 0 0 1-.11.984h-8.264c0 .418.06.811.178 1.184.117.372.297.695.538.969.24.275.554.492.94.651.388.159.854.239 1.4.239.383 0 .713-.041.99-.124a2.33 2.33 0 0 0 .703-.326c.19-.135.35-.299.476-.492s.23-.393.312-.598h2.75a4.45 4.45 0 0 1-.562 1.435 4.515 4.515 0 0 1-1.076 1.217c-.439.351-.961.632-1.564.843-.603.212-1.28.319-2.03.319-.985 0-1.842-.171-2.567-.515a5.324 5.324 0 0 1-1.814-1.368 5.776 5.776 0 0 1-1.088-1.957 7.33 7.33 0 0 1-.36-2.296zm2.8-1.198h5.709c0-.814-.264-1.463-.79-1.943-.524-.48-1.203-.722-2.034-.722-.8 0-1.479.227-2.042.679-.562.452-.843 1.114-.843 1.986zM73.135 105.204h2.653c0 .767.21 1.305.635 1.614.421.31.958.464 1.608.464.536 0 .987-.099 1.352-.298.365-.199.55-.547.55-1.045 0-.268-.076-.485-.227-.652-.15-.166-.376-.321-.677-.464-.3-.143-.675-.288-1.121-.439-.447-.15-.98-.34-1.6-.568a9.4 9.4 0 0 1-1.116-.487 4.184 4.184 0 0 1-.893-.617 2.277 2.277 0 0 1-.583-.872c-.134-.35-.202-.772-.202-1.269 0-.557.118-1.042.355-1.46.237-.416.555-.77.955-1.066a4.147 4.147 0 0 1 1.389-.656 6.478 6.478 0 0 1 1.695-.215c.618 0 1.198.1 1.74.3.54.2 1.011.475 1.41.825.397.35.713.768.945 1.254.231.484.348 1.013.348 1.583H79.7c0-.552-.145-.988-.433-1.311-.288-.324-.766-.485-1.43-.485-.464 0-.857.106-1.183.322-.325.217-.487.535-.487.958 0 .253.065.457.195.611.13.154.328.295.597.421.268.126.6.258 1 .396.397.139.865.31 1.402.513.398.146.79.305 1.173.477.382.171.724.381 1.026.628.301.249.538.547.714.897.175.351.262.794.262 1.331 0 .601-.122 1.128-.366 1.575a3.186 3.186 0 0 1-1 1.112 4.494 4.494 0 0 1-1.485.654 7.368 7.368 0 0 1-1.8.214 5.827 5.827 0 0 1-1.802-.276 4.62 4.62 0 0 1-1.513-.817 3.94 3.94 0 0 1-1.05-1.333c-.257-.526-.384-1.134-.384-1.819zM84.528 103.31c0-.815.146-1.595.44-2.341a6.198 6.198 0 0 1 1.228-1.97 5.687 5.687 0 0 1 1.888-1.337c.732-.326 1.54-.49 2.42-.49.685 0 1.365.168 2.043.502.676.334 1.197.795 1.564 1.382v-1.577h2.725v11.661h-2.725v-1.576c-.367.587-.889 1.047-1.564 1.382-.678.334-1.357.501-2.043.501-.889 0-1.697-.163-2.426-.49a5.666 5.666 0 0 1-1.882-1.345 6.314 6.314 0 0 1-1.228-1.955 6.259 6.259 0 0 1-.44-2.347zm2.726 0c0 .498.08.972.237 1.425.16.451.39.845.69 1.179a3.4 3.4 0 0 0 1.083.801c.42.2.886.301 1.4.301.513 0 .983-.101 1.411-.301.428-.199.791-.466 1.088-.801a3.68 3.68 0 0 0 .698-1.179c.166-.453.25-.927.25-1.425 0-.496-.084-.973-.25-1.424a3.685 3.685 0 0 0-.698-1.18 3.307 3.307 0 0 0-2.5-1.101c-.514 0-.98.1-1.399.3-.42.199-.78.467-1.082.801a3.45 3.45 0 0 0-.69 1.174 4.26 4.26 0 0 0-.238 1.43zM99.576 105.204h2.652c0 .767.212 1.305.633 1.614.424.31.96.464 1.61.464.536 0 .987-.099 1.352-.298.366-.199.549-.547.549-1.045 0-.268-.076-.485-.226-.652-.15-.166-.376-.321-.676-.464a10.652 10.652 0 0 0-1.121-.439c-.447-.15-.981-.34-1.601-.568a9.167 9.167 0 0 1-1.115-.487 4.176 4.176 0 0 1-.894-.617 2.257 2.257 0 0 1-.582-.872c-.136-.35-.202-.772-.202-1.269 0-.557.117-1.042.354-1.46.237-.416.555-.77.955-1.066.4-.294.862-.514 1.389-.656a6.474 6.474 0 0 1 1.695-.215 5 5 0 0 1 1.739.3c.542.2 1.012.475 1.411.825.398.35.713.768.945 1.254.232.485.348 1.013.348 1.583h-2.652c0-.552-.145-.988-.433-1.311-.288-.324-.766-.485-1.431-.485-.463 0-.857.106-1.182.322-.325.217-.487.535-.487.958 0 .253.064.457.195.611.13.154.329.295.598.421.267.126.6.258.998.396.397.139.866.31 1.403.513.398.146.789.305 1.172.477.383.171.725.381 1.025.628.302.249.541.547.716.897.175.351.262.794.262 1.331 0 .601-.122 1.128-.366 1.575a3.196 3.196 0 0 1-1.001 1.112 4.492 4.492 0 0 1-1.483.654 7.37 7.37 0 0 1-1.801.214 5.829 5.829 0 0 1-1.802-.276 4.624 4.624 0 0 1-1.513-.817 3.956 3.956 0 0 1-1.05-1.333c-.255-.529-.383-1.134-.383-1.819zM25.197 41.911a1.227 1.227 0 0 1-.079-2.45c8.061-.526 14.375-7.275 14.375-15.361 0-8.49-6.906-15.395-15.396-15.395-8.05 0-14.795 6.282-15.357 14.304a1.228 1.228 0 0 1-2.447-.171c.65-9.3 8.471-16.586 17.803-16.586 9.842 0 17.848 8.007 17.848 17.848 0 9.376-7.321 17.198-16.668 17.81l-.079.001zM12.44 36.917a1.634 1.634 0 1 0 0-3.27 1.634 1.634 0 0 0 0 3.27z"/>
    <path fill="#fff" d="M24.418 25.7a1.634 1.634 0 1 0 0-3.268 1.634 1.634 0 0 0 0 3.269z"/>
    <path fill="#fff" d="M24.098 34.636c-5.81 0-10.535-4.727-10.535-10.536 0-5.59 4.369-10.211 9.945-10.52a1.226 1.226 0 1 1 .135 2.45c-4.277.237-7.626 3.782-7.626 8.07 0 4.456 3.626 8.082 8.081 8.082a8.044 8.044 0 0 0 8.046-7.307 1.23 1.23 0 0 1 1.338-1.104 1.225 1.225 0 0 1 1.104 1.337 10.489 10.489 0 0 1-10.488 9.528zM30.863 19.156a1.634 1.634 0 1 0 0-3.269 1.634 1.634 0 0 0 0 3.27z"/>
    <path fill="#fff" d="M24.098 48.197C10.811 48.197 0 37.387 0 24.1 0 10.811 10.81 0 24.098 0c8.445 0 16.128 4.301 20.55 11.506a1.225 1.225 0 0 1-.403 1.688 1.228 1.228 0 0 1-1.687-.404C38.585 6.318 31.683 2.453 24.098 2.453c-11.935 0-21.645 9.71-21.645 21.645 0 11.934 9.71 21.645 21.645 21.645 8.25 0 15.902-4.802 19.498-12.232a1.225 1.225 0 1 1 2.207 1.068c-4 8.273-12.521 13.618-21.705 13.618z"/>
    <path fill="#fff" d="M46.97 25.741a1.634 1.634 0 1 0 0-3.268 1.634 1.634 0 0 0 0 3.268z"/>
</svg>
