<svg xmlns="http://www.w3.org/2000/svg" width="171" height="53" fill="none" viewBox="0 0 171 53">
    <path fill="#fff" d="M23.654 2.353S23.636.718 24.844.79c0 0 .066.266.201.07h.262V.756h.05V.86s.294.103.413-.105c0 0 .124-.1.077.221 0 0 .29-.238.315-.332.026.052.088-.036.032.364 0 0 .134.12.2-.276 0 0 .104-.165.078.146 0 0 .248-.28.145.072 0 0 .062.12.129-.026 0 0 .248-.29.196-.026 0 0 .067.042.103-.005V.862h.314v.052s.151.09.208-.04c0 0 .18-.286.351-.016 0 0 .12.254.248-.005h.346v.327s0 .212.078 0c0 0 .454-.473.563-.405 0 0-.212.317.057.145 0 0 .434-.186.506.01 0 0-.052.208.134.042 0 0 .27-.114.403-.062 0 0 .14-.203.16-.057v.16s.393-.28.047.209v50.666s-.189.27-.305.247c0 0 .067-.31-.137-.164 0 0-.14.176-.183-.023 0 0-.116-.18-.222.026 0 0-.103.192-.212.197 0 0 .065-.299-.096-.143l-.092.075.103-.19s-.212-.124-.264.037c0 0 .034.215-.214.283 0 0 .15-.223.065-.252 0 0-.155.322-.287.296 0 0 .222-.25.03-.247 0 0-.134.01-.232.148 0 0-.077.073-.105.075 0 0 .08-.16.008-.178 0 0-.08-.118-.183.007 0 0-.052.266-.127.273 0 0 .056-.206-.136-.192 0 0-.178.069-.164-.083 0 0-.042-.109-.086.012 0 0 .004.194-.202.194 0 0 .023-.344-.29-.165 0 0-.3-.193-.314.014 0 0-.275.399-.563-.056 0 0-.206-.33-.576.11 0 0-.288-.054-.288.056 0 0-.234-.138-.248-.014 0 0-.288-.096-.315.014h-.343s-.178-.11-.247-.07c0 0-.165.042-.22-.082 0 0-.197-.06-.215.014 0 0 .055-.24-.146-.166 0 0-.11.019-.11-.514l.11-49.074zM33.386.93s.055-.438.275-.385c0 0 .165.278.42 0 0 0 .11.278.385 0 0 0 .08.41.842-.004 0 0 .045.333.347.094 0 0 .201.22.559.019 0 0 .146.147.393-.01 0 0 .256-.122.265.09 0 0 .247.076.394-.117 0 0 .119-.214.293.118 0 0 .192-.194.274 0 0 0 .083.21.22 0 0 0 .256-.155.32.084 0 0 .119.074.174-.046 0 0 .448-.184.63 0 0 0 .156.212.33.046 0 0 .22.135.293-.084h.384s9.322 36.482 9.25 36.922L58.937.766s.138-.49.474-.035c0 0 .679.235.857-.027 0 0 .426-.29.577 0 0 0 .164.179.288-.028 0 0 .068-.22.22-.028 0 0 .054.207.247-.028 0 0 .302.166.576-.013 0 0 .193.358.44.124 0 0 .219-.152.274-.014 0 0 .107.064.162-.106 0 0 .21.274.38-.052 0 0 .13.35.322.034 0 0 .069.205.233-.056 0 0 .343-.068.371.11 0 0 .316.014.316.235h.22s.219.207.329.151v50.313s.11.716 0 .84h-.138v.29s-.398-.4-.521-.304v.12s-.337-.163-.471-.093c0 0-.05.074-.234.083 0 0-.192-.468-.256-.128 0 0-.183-.056-.22.036 0 0-.31-.202-.32-.046v.083s-.347-.294-.329 0c0 0-.43-.285-.393-.046 0 0-.302-.064-.33.074 0 0-.164-.285-.32-.028 0 0-.119.065-.2-.028 0 0-.211-.22-.312-.11 0 0-.256-.055-.292.065 0 0-.092.036-.156-.056 0 0-.146-.413-.357.028 0 0-.238.065-.284-.046 0 0-.247-.321-.228.13 0 0-.33.128-.458-.038 0 0-.229-.275-.274.083 0 0-.055 0-.074-.091 0 0-.192-.184-.21.027 0 0-.284.295-.44.221 0 0 .01-.33-.255-.239l.005-.329.016-.919.023-1.404.03-1.79.034-2.072.038-2.251.038-2.33.039-2.305.036-2.179.033-1.949.027-1.618.02-1.185c.003-.211.013-.422.011-.634 0-.091-.051-.663-.227.337-.008.044-.023.087-.036.13-.1.36-.2.721-.298 1.082l-.423 1.53-.517 1.873-.583 2.112-.62 2.244c-.21.757-.418 1.515-.627 2.272l-.606 2.194-.555 2.011-.476 1.722-.367 1.329-.228.83-.065.234s-.103.755-.068.934c0 0-.117.035-.096.104 0 0-.288-.262-.502.158 0 0-.285-.462-.633-.067 0 0-.183-.202-.265.01 0 0-.184-.23-.385.009 0 0-.128-.303-.32-.055 0 0-.1-.359-.357-.028 0 0-.228.294-.457.055 0 0-.12-.211-.201-.01 0 0-.275-.192-.348.084h-.07l-.01-.055h-.16s-.17-.14-.264.005h-.3s-.052-.181-.284-.109h-.19v-.046s-.148-.072-.113.1c0 0-.128.077-.174-.052 0 0-.439.055-.43-.064 0 0-.357.073-.402-.046h-.247s-.11-.12-.12.055c0 0-.535-.44-.727-.414L40.817 31.18s-.048-.427-.13 0l-.22 19.864s.556-.097.227.813c0 0 .062.372-.151.503 0 0 .089-.379-.227-.324 0 0-.123-.138-.165.049 0 0-.22-.132-.22.006 0 0-.328-.013-.287.124 0 0-.316.056-.44-.041 0 0-.137-.097-.164-.014 0 0-.178-.069-.165.028h-.206s-.192.248-.247.041c0 0-.26-.193-.316.083h-.192s.041-.22-.123-.055h-.398s-.11-.193-.275-.028c0 0-.274-.178-.466.056 0 0-.028-.386-.44.027 0 0 .055-.275-.205-.193 0 0-.233-.165-.412.042 0 0-.192.11-.22-.083 0 0 .22-.22-.425.083 0 0-.055-.345-.343.11 0 0-.193-.042-.151-.165 0 0-.233-.166-.343-.028 0 0-.302.083-.37-.028 0 0-.193-.234-.481.055 0 0-.247.014 0-.372l.247-.386c-.246.386-.123-50.417-.123-50.417zM81.269 5.593l.146-5.062s.073.405.439 0c0 0 .293 1.838.366 0 0 0 .155-.542.293.202 0 0 .293 1.149.22.312 0 0-.065-.486-.028-.56 0 0 .21.23.21.57 0 0 .165.22.183-.202 0 .193-.036-.8.174-.359 0 0 .146.418.174-.154 0 0 .302.264.284 1.091 0 0 .155.58.237.01 0 0-.173-.781-.09-1.03 0 0 .045.25.173 0 0 0 .22.267.247.671V.375s.403.055.613 1.746c0 0 .17.21.087-.244 0 0 .023-1.273-.197-1.438 0 0 .586-.275.733.864 0 0 .274.239.164-.24 0 0-.348-1.267.384-.257 0 0 .037.698.238.184 0 0-.238-1.139.22-.202 0 0 .183.331.183-.073 0 0-.018-.533.366.184 0 0 .274.716.2-.019 0 0-.054-.588.22-.055 0 0 .422.606.33 0l.013-.202s.829 0 .774.919c0 0 1.683 40.31-.842 44.004 0 0-.645 2.766-4.17 5.458-.356.273-.268.19-.408.283-.286.189-.588.37-.907.54-.756.405-.901.403-1.394.543-.284.08-.135-.25-.86 0-2.072.712-5.698.113-8.067-1.814-.07-.057-.026-.18-.093-.24-.271-.237-.678-.461-.906-.735 0 0 .277-.055.146-.114a1.624 1.624 0 0 1-.49-.328c-.034-.034.123-.111.024-.223-.72-.812-1.486-2.392-2.181-4.277-.525-1.425-.33-3.445-.4-4.88v-8.544s.152-.606.543-.262c0 0-.096-.613.336-.634 0 0-.034.524.13.22 0 0 .268-.082.117-.206 0 0 .282-.042.233.317 0 0 .069-.188.215-.244 0 0 .238-.018.183.13l-.055.146c.026-.248.184-.386.275-.294 0 0 .082.372.212.062 0 0 .144-.273.337.177 0 0 .174-.478.302-.35 0 0 0 .754.155.083 0 0 .22-.128.22.212 0 0 .165-.285.22.046 0 0 .173-.258.242-.16 0 0 .041.358.316-.029 0 0 .397-.013.466.22l.042-.248s.315-.206.329.194c0 0 .014.468.206.055 0 0 .068-.234.178.013l.028-.193s.384-.027.37.193c0 0 .069.194.151 0 0 0 .412-.206.426-.11 0 0-.233.345.041.193 0 0 .261-.234.37-.068 0 0 .289.206.413-.014 0 0 .206.275.562-.014 0 0 .028-.165.151-.11 0 0-.11.193.083.138-.083-.138 0 9.632 0 9.632s-.384 3.418 2.305 3.363c0 0 2.415.496 2.745-3.197l.31-28.571-.384-.202-.11-4.042s.55.129.55.404l-.021-2.472zM106.194 1.384c.398-.269.034-.393.034-.393-.343-.207-.871.014-.871.014-.123.138-.185-.007-.185-.007-.199-.18-.364.055-.364.055-.233.041-.894-.032-.894-.032 0-.331-.238-.037-.238-.037-.458.129-.732-.055-.732-.055-.128.165-.243-.01-.243-.01-.139.14-.247-.066-.247-.066-.178.235-.26-.034-.26-.034-.097.152-.172.014-.172.014-.103-.22-.35.055-.35.055-.096.193-.199.034-.199.034-.014-.103-.192-.303-.192-.303-.179-.166-.179.041-.179.041.103.028.117.255.117.255-.027.234-.192.035-.192.035-.021-.124-.151-.028-.151-.028-.22.2-.384-.134-.384-.134-.007.506-.529.116-.529.116-.11-.293-.535.06-.535.06-.144.206-.494.047-.494.047-.082-.24-.84 0-.84 0v.249c.33 0 .184.404.184.404-1.098 16.021-8.064 50.113-8.064 50.113-.083.345.617.45.617.45.055-.1.12-.009.12-.009 0 .065.127.028.127.028-.009-.101.1-.092.1-.092.02.13.138.065.138.065.129-.13.504-.01.504-.01.786.074.937-.04.937-.04.082-.176.222 0 .222 0 .093-.181.17-.01.17-.01.109-.036.243.114.243.114a.796.796 0 0 1 .687.01c.114-.082.445.042.445.042.088-.124.283-.005.283-.005l.672.01c.1-.157.42 0 .42 0 .115.114.623 0 .623 0-.028-.102.302-.056.302-.056.036.101.164.065.164.065-.027-.11.27-.053.27-.053.029-.143.325-.315.325-.315l.779-4.066c.03-.415.63-.362.63-.362h6.147c.531-.074.536.312.536.312l.69 4.235c.238-.028.723.356.723.356-.101-.553.146-.21.146-.21.11-.119.412.13.412.13-.046-.423.247-.037.247-.037-.027-.266.128-.12.128-.12.129.092.303 0 .303 0-.019-.146.329.065.329.065 0-.092.137-.037.137-.037.046.092.229.037.229.037 0-.12.138-.065.138-.065 0 .092.347.065.347.065h.375c-.009.073.201.064.201.064.046-.165.11.01.11.01h.595c.009-.175.164 0 .164 0 .028.064.421.027.421.027-.018-.083.101-.055.101-.055.054.147.228.037.228.037.046.055.369.01.369.01.006.114.191.073.191.073.052-.156.228 0 .228 0 .082-.166.528-.145.528-.145.274.048.24-.076.24-.076.136-.442-7.061-50.835-7.061-50.835zm-1.654 39.149h-4.672s-.24.069-.144-.304l2.552-15.406s.172-.965.275 0l1.989 15.406v.304zM115.921 2.085s.183-.404-.329-.57c0 0 .366-.129.439 0 0 0 .018-.588.75-.514 0 0 .531.055.824-.184 0 0 .292-.074.329.091 0 0 1.39-.183 1.463.074 0 0 1.684-.184 1.757.019 0 0 .988-.295.988.349 0 0 9.441 37.15 9.587 37.996l.201.505s10.265-35.58 9.771-37.62c0 0-.11-.909.164-1.13 0 0-.037-.422.046-.56 0 0 .174.772.202.074 0 0 .283-.138.292.083 0 0 .512-.166.577.018 0 0 .091.193.164-.073 0 0 .174-.12.229.156 0 0 .64.091.704-.074 0 0 .183-.138.202.046 0 0 1.262.174 1.408-.065l.275.166s-.462.74.142.105c0 0 .178-.308.352-.114 0 0 .329-.194.393.045 0 0 .129.157.193-.027 0 0-.055-.276.704-.101 0 0 .036-.22.238 0v50.398s-.165-.028-.083.882c0 0-.37-.028-.288.151 0 0-.302-.399-.466-.22 0 0-.206-.028-.22.11 0 0-.288-.275-.371-.083 0 0-.151-.179-.219 0 0 0-.165-.22-.206 0 0 0-.233-.234-.288.07 0 0-.138-.331-.274-.056 0 0-.275-.152-.357.028 0 0-.097-.22-.385-.083 0 0-.178-.4-.192.124 0 0-.302-.483-.672-.083.041.124-.453-.69-.604-.138 0 0-.206-.041-.206.138 0 0-.206-.51-.274.124 0 0-.357-.083-.193-.483 0 0-.233-.289-.178.359l-.48-.028s.164.427-.357.014c0 0-.591-.29-.467-.744l-.22-20.188s.069-.69-.178-.041c0 0-5.352 20.821-5.023 21.248 0 0-.151-.151-.192 0 0 0-.233-.165-.261 0 0 0-.219-.151-.247 0 0 0-.659-.179-.7 0 0 0-.274.097-.357 0 0 0-.261-.179-.316-.027 0 0-.274-.108-.274.07 0 0-.178-.305-.316-.07h-.658s-.385-.383-.467.07c0 0-.302-.18-.33.136 0 0-.302-.634-.59-.178 0 0-.096.11-.261.082 0 0-.123-.413-.219.028 0 0-.267-.31-.368-.066 0 0-.195.053-.25-.072 0 0-.123-.152-.178.069 0 0-.164-.441-.467-.041 0 0-.274-.083-.37-.428l-5.887-20.56s-.219-.73-.178 0l.082 19.15s-.219 1.36-.448 1.452c0 0-.457.027-.622.303 0 0 .064-.45-.247-.175 0 0-.21-.091-.256.046.009-.12-.229-.248-.348-.018 0 0-.045.036-.027-.156 0 0-.22.275-.403.22 0 0-.091-.395-.192-.248 0 0-.101.248-.248.193 0 0 0-.34-.219-.055 0 0-.119-.184-.238.028 0 0-.183-.24-.366.073 0 0-.128-.193-.119-.285 0 0-.457.69-.942.037 0 0-.073-.165-.037-.248 0 0-.238.514-.357.505 0 0-.073-.165-.238-.01 0 0-.073.148-.155 0 0 0-.073-.192-.247.01 0 0-.375.11-.33-.129 0 0 .028-.22-.146-.1 0 0 0-.221-.119-.157 0 0-.275.533-.467 0l-.289-49.643zM150.836 7.067s1.372-6.89 9.66-7.055c0 0 8.728-.717 9.716 8.93v11.244s-.147.432-.385.477c0 0-.201-.248-.293 0 0 0-.119.295-.429 0 0 0-.412-.257-.632.037 0 0-.238.083-.274-.129 0 0-.54-.588-1.052 0 0 0-.366-.046-.403.101 0 0-.302.019-.302-.1 0 0-.366-.02-.366-.065 0 0-.686.064-.759-.028 0 0-.54-.055-.577.065 0 0-.393.128-.512-.019l-.695-.046s-.22-.239-.293-.1c0 0-.687-.194-.604-.433 0 0 .165-9.076 0-9.407 0 0 .357-3.059-2.388-3.114 0 0-2.525-.01-2.223 2.972l-.165 7.5s.33.635.247 1.048c0 0 2.736 3.997 4.2 4.731 0 0 6.037 4.777 6.037 5.383 0 0 2.322 2.377 1.773 14.467-.012.273-.256 1.084-.238 1.837 0 0-.504 1.578-1.409 2.958-.797 1.217-1.954 2.22-2.653 2.71-1.394.98-3.007 1.843-5.195 1.969 0 0-2.918-.205-3.888-.692-1.008-.506-1.112-.639-1.201-.688-2.048-1.132-4.095-3.324-5.008-7.292-.026-.112.003-.276.005-.39.004-.272-.014-.546.012-.818.125-1.272.01-2.075.008-3.487l-.003-1.239c.124-.177.055-1.737.055-1.737-.003-1.136.014 1.633-.07.897 0 0-.004-5.962-.007-6.739v-.323s.439.092.457.24c0 0 .196.078.1-.184 0 0 .343.096.357.248 0 0 .124.11.151-.042l-.041-.123s.178-.014.247.11c0 0 .193.083.193-.028 0 0 .342.248.356.028 0 0-.082-.29.22.055 0 0 .371.207.357-.055 0 0 .165.165.22 0 0 0 .439.275.507-.055 0 0 .233-.055.233.138 0 0 .659-.07.7.027 0 0 .138.07.165-.041 0 0 .068-.089.174.07 0 0 .076.125.155-.024 0 0 .049-.238.217.045 0 0 .117.156.148-.003 0 0 .297-.357.582-.028 0 0 .072.287.138-.004 0 0 0-.252.227-.034 0 0 .124.204.107-.021l.013-.126s.631.597.741.019l-.009-.156s.357.11.412.358c0 0 .201.101.164.726l-.029 4.425c.316 1.433.165 2.928-.031 4.843-.016.15-.003.301-.003.451 0 0-.1.753.213 1.472a2.424 2.424 0 0 0 2.502 1.394s1.895.056 2.224-2.921l.063-2.86-.173-3.313s-.223-3.473-2.114-4.63c0 0-6.613-5.071-6.613-5.347 0 0-3.257-3.252-3.33-5.678 0 0-.622-8.267.311-12.4zM12.73 4.6L12.726.873l-.051-.016V.775h.051V.682h.052v-.11s.118-.007.127-.117c0 0 .128.166.22.12 0 0 .42-.037.439.027l.018.065c-.018-.065.229.12.458-.147 0 0 .768.294.97-.138 0 0 .32.276.694.074 0 0 .193.294.43-.11 0 0 .183.22.403.11 0 0 .183.138.302-.028 0 0 .265-.193.394.046 0 0 .357.12.475-.13 0 0 .238.111.348-.045 0 0 .146.23.33.101 0 0 .118.101.2-.018 0 0 .156-.13.238 0 0 0 .156.11.193-.037 0 0 .155.202.274.092 0 0 .128.091.128.147 0 0 .32.138.494-.083 0 0 .741.083.375.225 0 0-.013.096.18.047 0 0 .607.37.35.463 0 0 .175 33.289-.155 42.033-.037 1.005-.396 1.606-.471 1.784-.045.105-.028.254-.078.372-.277.66-.242.237-.315.44-.134.369-.115.76-.302 1.158-1.112 2.356-3.321 4.355-6.162 5.21-1.166.35-2.073.515-3.43.458 0 0-.216.012-.242-.248 0 0-1.322.079-2.546-.276-2.493-.722-6.159-3.347-6.653-8.07l-.18-.047c-.214-1.705-.352-4.454-.25-6.71 0 0 .046-4.805.266-5.044l-.019-1.8H.51s.183.317.4.02c0 0 .083-.048.108.056 0 0 .168.376.424-.003 0 0 .09-.057.039.286 0 0 .15-.12.124.275l.021.91s.074-.276.074.395c0 0 .009.946.146 0v-2.013s.162.19.36.04c0 0 .399-.007.396.359h.057l-.008 1.071s.055-.532.055.202c0 0-.019.8.119.01V30.45s.146-.065.2.174c0 0 .129.23.284-.036 0 0 .129-.055.129.184 0 0 .073.312.22-.13 0 0 .219-.32.283.029 0 0 .128.21.274-.184 0 0 .256-.138.375.046 0 0 .183.12.293-.065 0 0 .302-.308.26.244l.024 1.226s.073-.138.073.129v.57s.064.275.11 0v-2.059s.128-.284.284-.045c0 0 .083.109.166.015l.005.358s.083-.394.067.39c0 0 .068-.338.052.637v.312s.088.606.14-.01v-1.63s.402.12.413-.181c0 0 .212.15.377.03 0 0 .073.302.212.104 0 0 .196-.036.212.062l.206-.005s.259.13.207.56v.602s.268.068.222.498v5.864s.182 3.556.113 3.927c0 0 .242 2.908 2.406 2.77 0 0 2.438.441 2.383-3.004L12.73 4.599z"/>
</svg>
