<svg id="Capa_1" data-name="Capa 1" xmlns="http://www.w3.org/2000/svg" viewBox="0 0 554.46 459.54"><defs><style>.cls-1{fill:#fff;}</style></defs><title>LogoPandePan</title><path class="cls-1" d="M315.07,203.44c-4.5,6.91-10,9.54-17.42,7.75a4,4,0,0,0-3,.5c-7.7,5.74-14.67,4.18-21.37-2.22-4.65,4.48-10.24,8-16.21,4.69-4.78-2.63-8.35-7.48-13.32-12.16-1.11,1.61-3.13,3.81-4.32,6.4-2.26,4.93-4.76,5.89-9.37,3-8.88-5.63-10.14-19.08-2.35-28.12,2.36-2.72,3.78-5.12,3.94-9,.3-6.83,5.62-9.25,11.56-10,3-11.53,9.34-15.24,20.51-12.32,8.81-12.81,17.79-13.33,27.53-1.59,11.5-5.92,23-1,23.32,13.57,7.28,1.63,12.18,5.25,11.17,13.9-.15,1.28,1.78,2.93,3,4.24,6.67,7.46,8.25,17.69,2.88,24.69a18,18,0,0,1-9.26,5.78c-1.12.3-3.5-4.12-5.29-6.4C316.45,205.44,316,204.71,315.07,203.44Zm-6.86-41.11c-.19-4.45-2.25-7.25-6.38-8-4.44-.85-7.45,1.34-9,5.36-4.86,12.43-9.69,24.86-14.37,37.35-2.08,5.55-.4,10,3.92,11.46,4.64,1.58,8.51-.36,10.7-5.86,4.86-12.22,9.55-24.51,14.27-36.79A28.19,28.19,0,0,0,308.21,162.33Zm-41.44,3.81c-4.65,11.77-9.08,22.14-12.69,32.78-.77,2.26.68,6.4,2.55,8.1,1.68,1.52,5.54,1.7,8.06,1,4.24-1.14,11.85-20.53,10.07-24.56C272.4,178.15,269.89,172.88,266.77,166.14Zm12.28,11.65c2.76-7,5.68-12.5,6.81-18.29.56-2.85-1.54-6.87-3.6-9.42-2.26-2.8-5.92-2.38-8.94-.22a7.26,7.26,0,0,0-2.69,9.21C273,164.93,275.79,170.61,279.05,177.79Zm-30.94,16.12,1.72-.32c.4-3.1,1.62-6.37,1-9.25A28.16,28.16,0,0,0,246,174c-1.12-1.55-4-1.79-6.17-2.62-.5,2.06-2,4.63-1.32,6.09C241.33,183.14,244.86,188.46,248.11,193.91Zm14.65-34.66c-4-3.19-7.42-2.77-10.47-.05s-3.22,6.31-1.39,10c1.34,2.67,2.62,5.37,4.37,9Zm-21.41,35.5c-.82-1.44-1.75-3.2-2.8-4.88s-2.12-3.15-3.25-4.8c-7.47,7.29-8.1,14.5-2.43,19.29Zm72.55-5.5c1.83-4.26,3.89-8,4.94-12,.45-1.71-1.2-4-1.9-6-2.05.93-4.85,1.31-6,2.89C306.87,179.65,309.78,184.32,313.9,189.25Zm3.84,6.86,6.85,8.86c5.33-7.4,4.37-14.25-2.47-18.93ZM299,204.81c4.58,1.55,7.59.12,9.66-3.42,2.87-4.93-.54-8.32-3.35-13C303,194.41,301.06,199.54,299,204.81Z"/><path class="cls-1" d="M323,315.36l6.37-1.16V251.41L323.1,250V248.8a21.62,21.62,0,0,1,3.79-.65c18.15,0,36.31.07,54.46-.1,4.1,0,5.46,1.32,5.36,5.39-.24,9.35-.21,18.71,0,28.06.08,3.66-1.29,4.78-4.82,4.73-11.71-.14-23.43-.05-35.54-.05v28l6.34,1.15-.12,1.38H323.26Zm23.24-32c7.22,0,14.14.15,21-.15,1.14-.05,3.09-2,3.12-3.16.24-8.61.18-17.22,0-25.83,0-1-1.54-2.72-2.41-2.75-7.23-.23-14.47-.13-21.7-.13Z"/><path class="cls-1" d="M32.93,286.14v28l6.43,1.25-.09,1.34H10.11l-.2-1.4,6.32-1.07v-63L10,250.15l0-1.41a29.33,29.33,0,0,1,4.22-.59c18,0,36,.06,54-.09,3.79,0,5.19,1.09,5.11,5-.21,10.79-.07,21.58-.07,33.08Zm0-2.82c7.42,0,14.51.14,21.58-.16,1-.05,2.73-2.24,2.77-3.48.24-8.22.21-16.45,0-24.68,0-1.23-1.38-3.46-2.19-3.49-7.37-.27-14.75-.16-22.17-.16Z"/><path class="cls-1" d="M224.88,317.5c-5.24,0-9.81.3-14.29-.18-1.48-.16-3.18-2.13-4-3.68-8.84-16.46-17.51-33-26.25-49.53-.83-1.57-1.75-3.09-3.47-6.09V314.2l6.13,1.15-.08,1.37H165.25l-.24-1.28,6.63-1.31V251.39l-6.5-1.32c0-.65,0-1.3,0-1.95,2.83,0,5.73.4,8.49-.07,10.64-1.82,16.68,2.13,21.19,12.37,7,15.85,15.94,30.83,24.91,46V251.37l-6.41-1.31.07-1.18h17.8l.22,1.08-6.54,1.45Z"/><path class="cls-1" d="M537.91,317.5c-5.06,0-9.3.36-13.42-.17-1.66-.21-3.65-2.05-4.52-3.67-8.8-16.28-17.38-32.68-26.05-49a12.13,12.13,0,0,0-4.12-4.93v54.41l6.81,1.3-.15,1.47H478.69c-.12-.4-.23-.8-.34-1.2l6.5-1.67v-62.7l-6.36-1.19c0-.67,0-1.33.05-2,3.79,0,7.65.51,11.33-.1,8.76-1.45,13.3,2.23,17,10.13,7.84,16.51,16.84,32.47,26.16,50.18v-57L526.79,250l.07-1.17h17.41l.28,1.12-6.64,1.44Z"/><path class="cls-1" d="M405.25,316.85H385.64c.47-1,.65-1.61.77-1.6,7.71.77,8.7-4.88,10.43-10.36,5.55-17.64,11.48-35.17,17-52.81.94-3,2.24-4,5.34-4,14-.25,14-.33,19.59,12.76,7,16.52,14.48,32.89,20.95,49.63,2.07,5.34,6.49,3.38,9.82,5.11-3.18,2.52-25.36,2.81-30.66.25l6.55-1.91-26-61.36-1.48.1c-6.6,20.38-13.21,40.77-19.93,61.48l7.51,1.21Z"/><path class="cls-1" d="M104.58,252.84C98,273.15,91.43,293.45,84.75,314.09L92,315.34l-.14,1.52h-19c.34-.82.58-1.68.71-1.67,7,.94,8-4.07,9.63-9.07,5.6-17.81,11.57-35.51,17.1-53.34,1.13-3.64,2.69-4.79,6.47-4.76,13.23.12,13.26-.05,18.43,12,6.87,16,13.78,32,20.47,48,1.72,4.11,3.24,7.84,8.75,6.81a1.45,1.45,0,0,1,1,.4,9,9,0,0,1,1,1.6h-30l-.2-1.26,6-1.56-26-61.32Z"/><path class="cls-1" d="M254.55,297.55v-29c4.52-.95,9.42-1.69,12.39,2.6,4.61,6.68,4.29,14.21,1.06,21.42C265.52,298.08,260.33,298,254.55,297.55Zm4-4.6c5.91,0,7.41-2.7,7-11.93-.29-6.88-1.75-8.6-7-8.13Z"/><path class="cls-1" d="M285.67,297.72V268.41H299c-.37,6.68-6,1.93-8.72,5.33v4.86l5.09,3.33-5.19,2.95v8.62a52.19,52.19,0,0,1,7,.1c.89.12,1.64,1.38,2.45,2.12-.87.67-1.7,1.85-2.61,1.91C293.37,297.85,289.74,297.72,285.67,297.72Z"/></svg>