<?xml version="1.0" standalone="no"?>
<!DOCTYPE svg PUBLIC "-//W3C//DTD SVG 20010904//EN"
 "http://www.w3.org/TR/2001/REC-SVG-20010904/DTD/svg10.dtd">
<svg version="1.0" xmlns="http://www.w3.org/2000/svg"
 width="1800.000000pt" height="1492.000000pt" viewBox="0 0 1800.000000 1492.000000"
 preserveAspectRatio="xMidYMid meet">
<metadata>
Created by potrace 1.15, written by Peter Selinger 2001-2017
</metadata>
<g transform="translate(0.000000,1492.000000) scale(0.100000,-0.100000)"
fill="#000000" stroke="none">
<path d="M4180 8926 c-170 -30 -399 -106 -473 -158 -101 -69 -165 -123 -160
-135 7 -18 16 -17 71 11 117 59 313 120 487 153 115 21 369 28 495 14 186 -22
388 -76 551 -147 88 -39 89 -39 89 -20 0 23 -137 125 -215 161 -90 41 -206 79
-320 106 -116 26 -412 35 -525 15z"/>
<path d="M618 8894 c-44 -19 -57 -49 -34 -73 22 -21 215 -29 771 -30 451 -1
448 -1 677 -72 54 -17 103 -27 109 -24 21 14 -79 101 -160 139 -146 68 -136
67 -761 72 -505 4 -569 3 -602 -12z"/>
<path d="M6307 8893 c-71 -4 -79 -6 -89 -29 -10 -20 -8 -28 6 -42 14 -14 40
-18 144 -20 113 -2 130 -1 160 18 32 20 32 21 16 45 -11 17 -26 25 -44 25 -15
0 -47 2 -71 3 -24 2 -79 2 -122 0z"/>
<path d="M1826 7864 c-114 -41 -301 -56 -601 -45 -104 3 -110 3 -113 -17 -6
-39 97 -84 233 -103 139 -18 399 20 464 69 44 32 90 114 64 111 -5 0 -25 -7
-47 -15z"/>
<path d="M4801 6609 c-208 -92 -538 -94 -790 -5 -54 20 -61 20 -61 0 0 -42
151 -132 276 -164 104 -27 263 -27 366 -1 143 37 285 127 288 184 0 12 -33 7
-79 -14z"/>
<path d="M2020 6588 c-138 -53 -331 -72 -652 -65 -142 4 -258 3 -258 -2 0 -19
90 -90 126 -100 23 -6 137 -11 270 -11 195 0 242 3 305 19 103 27 160 53 208
96 55 50 55 84 1 63z"/>
<path d="M6765 6563 c-37 -9 -41 -23 -15 -44 101 -80 172 -89 674 -89 421 1
476 4 522 34 l26 18 -23 24 c-12 13 -39 28 -58 33 -20 6 -200 12 -401 15 -201
4 -441 8 -535 10 -93 3 -179 2 -190 -1z"/>
</g>
</svg>
