<svg id="Capa_1" data-name="Capa 1" xmlns="http://www.w3.org/2000/svg" viewBox="0 0 554.46 459.54"><defs><style>.cls-1{fill:#fff;}.cls-2{fill:#282626;}</style></defs><title>LogoBolRol</title><path class="cls-1" d="M538.89,177.43a10.44,10.44,0,0,0-5.33-11.29,14.1,14.1,0,0,0-6-1.46q-128.22-.1-256.44-.06c-.85,0-1.69,0-2.54,0-2.54,0-3.41-1-2.89-3.4.15-.67,1-1.29,1.71-1.7.41-.26,1.1-.08,1.66-.08h259.2c6.24,0,11.63,3.82,14.15,10.28a15,15,0,0,1,1,5.31q.09,54.63.06,109.27a16.13,16.13,0,0,1-16,15.85q-129,.06-257.92,0c-3.91,0-4.16-.42-3.62-4.33a31.71,31.71,0,0,0-.13-5.67c0-.77-.19-1.53-.19-2.3q0-57.29,0-114.56c0-3.26.43-3.7,3.64-3.7q128.22,0,256.44,0C531.51,169.58,536,171.67,538.89,177.43ZM280,230.17V252q0,11,0,22c0,3.25.15,3.39,3.3,3.38h17.15c3.33,0,3.62-.28,3.62-3.61,0-9,0-17.92,0-26.88,0-1.74.57-2.43,2.33-2.36a58.05,58.05,0,0,0,7,0c2.05-.15,3,.75,3.84,2.51q6.59,14.42,13.37,28.76a3.08,3.08,0,0,0,2.2,1.54c7.34.11,14.68.08,22,0,2,0,2.65-1.12,1.82-2.93-4.71-10.18-9.38-20.37-14.23-30.48-.86-1.8-.71-2.67.92-3.75,11.44-7.6,16-22.72,12.64-35.81-3.49-13.44-14.19-21.45-28.34-21.51-14.81-.06-29.63,0-44.45,0-2.59,0-3.11.53-3.11,3.08Q280,208,280,230.17Zm170.35.09a54,54,0,0,0-2.53-18.65c-4.27-13.24-12.52-22.79-26-27.11a57.55,57.55,0,0,0-30.72-1c-13,3-22.41,10.7-27.71,23-5.67,13.12-6.1,26.79-2.4,40.4,4.26,15.65,14.48,25.88,30.28,30.06a56.21,56.21,0,0,0,26.61.23c11.8-2.59,20.85-9.09,26.58-19.82C449,249,450.64,240,450.39,230.26Zm4,0h0q0,22,0,44c0,2.71.37,3.1,2.79,3.1h61c2.63,0,3.1-.5,3.09-3.08,0-5,0-10,0-15,0-3.08-.46-3.61-3.49-3.61q-18.42,0-36.84,0c-3.06,0-3.09,0-3.09-3q0-33.13,0-66.27c0-3-.51-3.5-3.39-3.5H457.68c-2.81,0-3.3.49-3.3,3.35Zm76.36,43.22a6.86,6.86,0,0,0,7.08-6.82,7,7,0,1,0-14-.36A6.86,6.86,0,0,0,530.74,273.45Z"/><path class="cls-1" d="M75.74,223.7c17.86,9,15.73,36.25,5.36,45.72a31.53,31.53,0,0,1-19.29,8.21c-6.66.52-13.38.43-20.07.49-9,.07-17.92,0-26.88,0-3.14,0-3.84-.71-3.85-3.88v-88c0-3.14,1-4.19,4.19-4.2,12,0,24-.13,36,0,8.94.13,16.79,3,23,9.81a24.76,24.76,0,0,1,3,29.39C76.77,222,76.29,222.8,75.74,223.7ZM47.39,237.8v.07c-3,0-6.06,0-9.1,0-1.08,0-1.74.3-1.74,1.54,0,5,0,10,.07,15,0,.47.73,1.31,1.13,1.31,6.12,0,12.27.21,18.38-.18,5.69-.36,8.57-4,8.36-9.65-.17-4.74-3.65-7.89-9-8.09C52.76,237.72,50.08,237.8,47.39,237.8Zm-2.47-21.94a14.61,14.61,0,0,0,1.48,0c2.85-.29,5.79-.28,8.52-1s3.33-2.32,3.19-4.81c-.14-2.64-1.93-4.75-5.34-5.06-5-.44-10-.37-15-.38-.41,0-1.15,1.11-1.18,1.74-.13,2.53,0,5.07-.07,7.61,0,1.51.63,2,2,1.94C40.69,215.81,42.8,215.86,44.92,215.86ZM65.74,192l.42-.55a14.9,14.9,0,0,0-2.65-2.67,21.64,21.64,0,0,0-10.75-3.46c-10.56-.16-21.13-.19-31.69-.21a6.88,6.88,0,0,0-2.8.78,1.57,1.57,0,0,0-.71,1.34,1.62,1.62,0,0,0,1.09,1,20,20,0,0,0,3.78.36c10.13.06,20.27,0,30.4.16a23.92,23.92,0,0,1,5.58,1C60.88,190.36,63.3,191.2,65.74,192ZM34,258.49c1.41,2.16,3.18,3.42,5.49,3.49,4.42.13,8.86.34,13.26.06a23.64,23.64,0,0,0,7.25-2c1.34-.54,2.36-1.88,3.52-2.85l-.4-.93C53.6,259.83,43.77,258.35,34,258.49Zm.22-40.05L34,219.6a13.83,13.83,0,0,0,2.87,1.79c5.7,1.89,11.43,1.21,17.07-.26,1.79-.47,3.41-1.59,4-4.5C50,219.82,42.08,218.76,34.22,218.44Z"/><path class="cls-1" d="M182.68,230.7a53.6,53.6,0,0,1-4.19,23c-4.92,11.43-13.21,19.36-25.19,23.1a55.43,55.43,0,0,1-31.29.66,40.55,40.55,0,0,1-20-12.07C91.5,254,88.78,240.12,89.68,225.15a52.79,52.79,0,0,1,4.09-17.86c5.39-12.45,14.44-21,27.8-24.23,11.41-2.79,22.9-2.71,34,1.48,13,4.91,20.84,14.76,24.83,27.85A55.27,55.27,0,0,1,182.68,230.7ZM156,230c-.57-3.88-.86-7.84-1.77-11.65-1.66-7-5.81-11.86-13.21-13.16a35.79,35.79,0,0,0-6.95-.31,15.94,15.94,0,0,0-14.94,10.83,45.54,45.54,0,0,0-.46,27.88c1.33,4.69,4.08,8.65,8.64,10.35a31,31,0,0,0,11,1.58c7-.09,12.1-3.37,14.9-10.12C155.17,240.38,155.5,235.25,156,230Zm5.27-36.16.4-.81c-2.06-1.51-3.94-3.42-6.22-4.45-13.26-6-26.63-6-39.85.1-2.38,1.09-4.36,3-6.53,4.58l.48,1a57.31,57.31,0,0,1,25.68-6.38A57.93,57.93,0,0,1,161.22,193.8ZM121.6,255.44l-.13.73a7.4,7.4,0,0,0,.85,1.07c7.13,6.15,19.65,6.24,26.81.18a9.19,9.19,0,0,0,1.2-1.65l-.31-.69C140.62,259.35,131.14,259.06,121.6,255.44Z"/><path class="cls-1" d="M184.64,230.23v-43.4c0-3.87.94-4.81,4.91-4.82H205c3.81,0,4.79,1,4.79,4.73v65c0,3.05,0,3.07,3,3.07h35.78c3.85,0,4.72.87,4.73,4.74q0,7.09,0,14.19c0,3.57-.84,4.39-4.36,4.39H188.79c-3.38,0-4.14-.73-4.14-4.07Q184.64,252.15,184.64,230.23Zm22.89,27.21-.29.82a15.25,15.25,0,0,0,3.46,2.1,24.84,24.84,0,0,0,6.43,1.1c7.19.13,14.39.07,21.59,0a26.24,26.24,0,0,0,4.84-.43c.7-.13,1.3-.86,1.94-1.31-.58-.53-1.09-1.31-1.77-1.53a12.69,12.69,0,0,0-3.54-.46q-15.23-.3-30.46-.52A20.43,20.43,0,0,0,207.53,257.44Zm-10.44-68.88v-.24a17.3,17.3,0,0,0,3.14,0,5.75,5.75,0,0,0,1.79-1.09c-.43-.56-.84-1.58-1.3-1.6-2.82-.12-5.66-.08-8.48.08-.39,0-1.06,1-1,1.52s.9,1,1.46,1.09C194.15,188.49,195.63,188.48,197.09,188.56Z"/><path class="cls-2" d="M65.74,192c-2.44-.75-4.86-1.59-7.33-2.23a23.92,23.92,0,0,0-5.58-1c-10.13-.13-20.27-.1-30.4-.16a20,20,0,0,1-3.78-.36,1.62,1.62,0,0,1-1.09-1,1.57,1.57,0,0,1,.71-1.34,6.88,6.88,0,0,1,2.8-.78c10.56,0,21.13.05,31.69.21a21.64,21.64,0,0,1,10.75,3.46,14.9,14.9,0,0,1,2.65,2.67Z"/><path class="cls-2" d="M34,258.49c9.77-.14,19.6,1.34,29.12-2.21l.4.93c-1.16,1-2.18,2.31-3.52,2.85a23.64,23.64,0,0,1-7.25,2c-4.4.28-8.84.07-13.26-.06C37.18,261.91,35.41,260.65,34,258.49Z"/><path class="cls-2" d="M34.22,218.44c7.86.32,15.77,1.38,23.75-1.81-.63,2.91-2.25,4-4,4.5-5.64,1.47-11.37,2.15-17.07.26A13.83,13.83,0,0,1,34,219.6Z"/><path class="cls-2" d="M161.22,193.8a57.93,57.93,0,0,0-26-6,57.31,57.31,0,0,0-25.68,6.38l-.48-1c2.17-1.55,4.15-3.49,6.53-4.58,13.22-6.09,26.59-6.14,39.85-.1,2.28,1,4.16,2.94,6.22,4.45Z"/><path class="cls-2" d="M121.6,255.44c9.54,3.62,19,3.91,28.42-.36l.31.69a9.19,9.19,0,0,1-1.2,1.65c-7.16,6.06-19.68,6-26.81-.18a7.4,7.4,0,0,1-.85-1.07Z"/><path class="cls-2" d="M207.53,257.44a20.43,20.43,0,0,1,2.2-.2q15.22.24,30.46.52a12.69,12.69,0,0,1,3.54.46c.68.22,1.19,1,1.77,1.53-.64.45-1.24,1.18-1.94,1.31a26.24,26.24,0,0,1-4.84.43c-7.2,0-14.4.1-21.59,0a24.84,24.84,0,0,1-6.43-1.1,15.25,15.25,0,0,1-3.46-2.1Z"/><path class="cls-2" d="M197.09,188.56c-1.46-.08-2.94-.07-4.38-.29-.56-.09-1.4-.66-1.46-1.09s.61-1.49,1-1.52c2.82-.16,5.66-.2,8.48-.08.46,0,.87,1,1.3,1.6a5.75,5.75,0,0,1-1.79,1.09,17.3,17.3,0,0,1-3.14,0Z"/><path class="cls-1" d="M315,204.19c2.75,0,5.5,0,8.24,0,5.23.06,9.49,3.71,9.79,8.37.34,5.34-3,9.9-8.4,10.32-6.31.5-12.67.36-19,.38a2.18,2.18,0,0,1-1.47-1.54c-.11-5.35-.07-10.71-.08-16.06,0-1.43,1-1.49,2-1.49,3,0,5.92,0,8.88,0Z"/><path class="cls-1" d="M425.22,230.18c-.39,3.06-.66,7.23-1.52,11.27-1.84,8.66-7,13.62-15.76,14.82-7.74,1.06-14.79-.76-19.19-7.81a28,28,0,0,1-3.5-9.64,50.12,50.12,0,0,1,.26-18.71c2.51-12.73,11.71-17.58,23.54-15.77,8.37,1.29,13.67,7.34,15.21,17C424.67,223.87,424.83,226.48,425.22,230.18Z"/><path class="cls-1" d="M530.73,272.29a6,6,0,0,1-5.77-6.1,6.18,6.18,0,0,1,5.85-5.84,6.27,6.27,0,0,1,5.87,6.07A5.9,5.9,0,0,1,530.73,272.29Zm2.26-2.37c.37-1.64.67-2.92.93-4.21.3-1.45.11-2.68-1.55-3.19s-4.2-.07-4.27,1c-.13,1.88,0,3.79,0,5.68a6.87,6.87,0,0,0,.37,1.45,11.11,11.11,0,0,0,.93-1.07c.26-.73.51-1.46.76-2.19.54.55,1.05,1.13,1.62,1.65A12.26,12.26,0,0,0,533,269.92Z"/><path class="cls-1" d="M530.76,263.29l1.58,1.38c-.46.43-.87,1.09-1.41,1.22-.36.1-.91-.54-1.38-.86Z"/></svg>