<svg id="Capa_1" data-name="Capa 1" xmlns="http://www.w3.org/2000/svg" viewBox="0 0 554.46 459.54"><defs><style>.cls-1{fill:#fff;}</style></defs><title>logoManzanaSana</title><path class="cls-1" d="M278,306.17l.72-.15c4.48-1.26,8.95-2.56,13.44-3.75a5.75,5.75,0,0,0,3.53-2.56c.79-1.25,1.61-2.49,2.46-3.8a3.66,3.66,0,0,0-2.54-.53,4.13,4.13,0,0,1-2.79-.44c.25-.18.44-.34.65-.46a51,51,0,0,0,10.13-7.38c1.8-1.64,3.54-3.34,5.31-5,.25-.24.48-.49.75-.71a2.38,2.38,0,0,1,3.63.12,4.74,4.74,0,0,1,.67,6.69c-2.79,3.62-5.69,7.16-8.55,10.73-.53.66-1.07,1.31-1.61,2,1.08,1,1.91,1.09,2.95.25.64-.51,1.17-1.14,1.79-1.65q10.31-8.57,20.63-17.09a20.76,20.76,0,0,1,2.48-1.82,3.73,3.73,0,0,1,5.1.69,4.74,4.74,0,0,1,.8,6.29,16.85,16.85,0,0,1-1.26,1.78c-3.28,4.27-6.58,8.51-9.83,12.81-1.08,1.42-2,2.95-3.06,4.5a2.18,2.18,0,0,0,2.5.58,3.16,3.16,0,0,0,1-.57,9.49,9.49,0,0,1,3.75-1.85,71.08,71.08,0,0,1,12.45-2.94c1.27-.15,2.55-.28,3.83-.34A25.39,25.39,0,0,0,362,296.15a21.47,21.47,0,0,1,3-1.89c1.83-1,3.69-2,5.54-3a3.87,3.87,0,0,0,.64-.41,1.31,1.31,0,0,0,.42-1.61,1.22,1.22,0,0,0-1.31-.81c-2,.07-4,0-6,.24-4.16.39-8.32.89-12.48,1.33a5.45,5.45,0,0,1-1.14,0,1.19,1.19,0,0,1-1.09-.94,1.14,1.14,0,0,1,.46-1.35,6.29,6.29,0,0,1,1.38-.67,154.54,154.54,0,0,1,27.36-7.1l.38-.05c4.2-.51,6.7,1.26,7.63,5.39a10.71,10.71,0,0,1,.21,1.13,5.51,5.51,0,0,1-2.83,5.95,16,16,0,0,1-1.49.76,60.08,60.08,0,0,0-10.84,6.54c-.36.28-.7.57-1.3,1,.68.05,1,.1,1.39.11,1.54,0,3.08,0,4.62,0,.85,0,1.63.21,1.93,1.15a2,2,0,0,1-.73,2.29,4.75,4.75,0,0,1-1.81.87,14.56,14.56,0,0,1-5.73.22,19.2,19.2,0,0,0-12.91,2.65,36.78,36.78,0,0,0-3.58,2.48c-2.3,1.77-4.57,3.59-6.85,5.39a27.93,27.93,0,0,0-4,3.77c.69,0,1.13.07,1.57.07h20.65c.81,0,1.62,0,2.43.08a5.29,5.29,0,0,1,.89.12c.94.23,1.33.67,1.34,1.46s-.35,1.28-1.29,1.49-1.68.26-2.53.37a156.78,156.78,0,0,0-19.41,4.09c-2.57.66-5.13,1.34-7.7,2-4.56,1.11-7.68-.94-8.6-5.55a7,7,0,0,1,1.34-5.93,12.85,12.85,0,0,1,2.52-2.53c4.17-3.06,8.39-6,12.6-9a5.72,5.72,0,0,0,1-.89,16.45,16.45,0,0,0-4.85-.07,32,32,0,0,0-11.46,3.88,41.48,41.48,0,0,0-15,14c-.75,1.14-1.43,2.33-2.13,3.5-.16.26-.29.52-.45.78-.74,1.25-1.57,2.47-3.24,2.27a4.54,4.54,0,0,1-3.93-2.89,6.7,6.7,0,0,1-.38-3.52,23.76,23.76,0,0,1,2.32-7.42c.65-1.3,1.34-2.59,2.09-3.83,2.68-4.42,5.39-8.82,8.09-13.23l.81-1.34a7.62,7.62,0,0,0-3.86,1.29,62.39,62.39,0,0,0-8,6.16,106,106,0,0,0-12.25,13.43c-1.67,2.12-3.29,4.27-4.92,6.41-.38.51-.71,1.06-1.06,1.6s-.48.81-.73,1.21c-1.61,2.64-3.55,2.4-5.54.76a5.06,5.06,0,0,1-1.76-4.47,11.09,11.09,0,0,1,1.29-4.66c1.06-2,2.22-3.94,3.39-5.88,1-1.68,2.08-3.33,3.12-5,.21-.34.36-.73.67-1.38-1.13.16-2,.23-2.85.41a15.32,15.32,0,0,0-4.76,2.17,38.23,38.23,0,0,0-12,12.07c-1.16,1.8-2.21,3.66-3.31,5.49-.26.44-.5.9-.8,1.31a2.4,2.4,0,0,1-3.12,1c-3.53-1.24-5.24-3.7-4.45-7.94a13.33,13.33,0,0,1,2-4.4c.75-1.24,1.46-2.5,2.21-3.77a2.31,2.31,0,0,0-2.73-.32,4,4,0,0,0-1.21.93,74.43,74.43,0,0,1-8.47,7.8c-2.12,1.8-4.29,3.54-6.49,5.24a20.12,20.12,0,0,1-3.22,2.08,3.71,3.71,0,0,1-5.06-.95,35.41,35.41,0,0,1-2.35-3.19c-.63-.9-1.14-1-1.92-.19a3.65,3.65,0,0,0-.47.61,112.8,112.8,0,0,1-18.21,20.93,13.73,13.73,0,0,1-5.45,3.25,5.92,5.92,0,0,1-5.55-1.13,12.11,12.11,0,0,1-2.31-2.38,20.47,20.47,0,0,1-4.11-10.48,18.48,18.48,0,0,1,1.27-8.16,38.65,38.65,0,0,1,4.55-8.29c6.68-9.68,13.83-19,21.23-28.13,4.33-5.34,8.76-10.61,13.14-15.91.41-.5.87-.95,1.29-1.43.79-.9.89-1.39.53-2.86-.43.2-.85.37-1.25.58a71.2,71.2,0,0,0-8.91,5.8c-13.53,9.86-26,21-38,32.61q-6.78,6.56-13.56,13.1c-1.17,1.12-2.36,2.23-3.57,3.3a3.56,3.56,0,0,1-4.9.37,8.08,8.08,0,0,1-3.25-4.32,13.79,13.79,0,0,1,.1-9.9,29.28,29.28,0,0,1,2.07-4.11q8.79-14.89,17.65-29.77a18.79,18.79,0,0,0,2.35-5.37,8.28,8.28,0,0,0,.13-.89,2.28,2.28,0,0,0-3,.11c-.72.55-1.34,1.2-2,1.77-23.25,19.25-45.5,39.63-67.22,60.58-4,3.88-7.92,7.91-11.89,11.85a19.32,19.32,0,0,1-2.52,2.18c-2.31,1.6-4.47,1.3-6.2-.91-3-3.89-3.81-8.17-1.68-12.73A23.74,23.74,0,0,1,94.17,331q19-25.16,38.08-50.28A177.05,177.05,0,0,0,144.3,263c.22-.39.42-.79.79-1.47-1.85.29-3.42.44-4.94.8-5.15,1.23-10.28,2.53-15.41,3.81a65.83,65.83,0,0,1-13,2.2c-.42,0-.85,0-1.4,0a2.93,2.93,0,0,1,1.19-2.29,9,9,0,0,1,1.88-1.08,244.31,244.31,0,0,0,32.94-17.12c2.23-1.42,4.39-3,6.6-4.43a19.44,19.44,0,0,1,2.75-1.62,5,5,0,0,1,5,.45,8.83,8.83,0,0,1,2.87,3.23,12.15,12.15,0,0,1,1.32,8.43,9.88,9.88,0,0,1-1.16,2.82A133.77,133.77,0,0,1,154.11,271l-43,55.51a3.92,3.92,0,0,0-.77,1.4c.37-.15.76-.28,1.12-.46a18.5,18.5,0,0,0,4.51-3.35q8.07-7.77,16.16-15.54c16.26-15.6,32-31.67,47.59-47.95q7.71-8.07,15.41-16.13a21.38,21.38,0,0,1,2-1.8,5.36,5.36,0,0,1,6.55-.38,11,11,0,0,1,4.41,14.05c-2.46,5-4.94,10-7.55,15-6.55,12.44-13.74,24.52-20.91,36.6-.25.42-.49.85-.82,1.44a6.4,6.4,0,0,0,3.3-1.15,19.28,19.28,0,0,0,2.69-2.16c16.42-16.1,33.34-31.66,50.56-46.9q8.6-7.6,17.24-15.15a15.33,15.33,0,0,1,2.26-1.67c2.84-1.67,5.34-1.18,7.33,1.43a13.82,13.82,0,0,1,2.88,7.82,15.58,15.58,0,0,1-3.88,11.22q-4.27,5-8.63,10c-11.49,13-22.26,26.61-32.52,40.61A154.93,154.93,0,0,0,209.37,330c-.33.6-.73,1.16-1.08,1.75-.63,1.08-.61,1.8,0,2.45s1.34.68,2.46.08c.3-.16.58-.36.88-.53a98.42,98.42,0,0,0,17.27-13.63,10.45,10.45,0,0,1,.83-.8,14.52,14.52,0,0,0,4.12-5.78A18.57,18.57,0,0,1,236,310a79.15,79.15,0,0,1,33.64-26.44c2.82-1.21,5.72-2.25,8.63-3.24a11.09,11.09,0,0,1,3.4-.47,5.2,5.2,0,0,1,5,5.44c-.27,4.45-1.07,8.73-3.6,12.53-1.33,2-2.62,4-3.92,6-.43.68-.81,1.39-1.22,2.08ZM243.74,316.4a7.78,7.78,0,0,0,1-.33c2.73-1.22,5.51-2.32,8.15-3.72,8.69-4.61,15.86-11.07,22.19-18.53.11-.13.21-.27.31-.41a1.57,1.57,0,0,0,.14-2,1.52,1.52,0,0,0-2-.4c-.44.16-.86.39-1.29.56a63.79,63.79,0,0,0-22,14.18c-2.44,2.38-4.66,5-7,7.52a2.86,2.86,0,0,0-.87,2.07C242.49,316.15,242.74,316.41,243.74,316.4Z"/><path class="cls-1" d="M332.44,271.18a3.81,3.81,0,0,1-.83.7c-1.58.64-3.16,1.31-4.78,1.82a3.11,3.11,0,0,1-3.53-1.19c-.4-.51-.81-1-1.15-1.54a154.73,154.73,0,0,1-14.71-28,94.7,94.7,0,0,1-6.11-24.27c-.83-7.6-.58-15.15,2.27-22.35,4.12-10.42,11.15-18.22,21.55-22.69a34.19,34.19,0,0,1,16.33-2.36c6,.46,11.64,2.17,17.27,4.1,5.36,1.84,10.74,3.66,16.16,5.36a51.41,51.41,0,0,0,10.17,2,24.88,24.88,0,0,0,14.69-3c3.87-2.09,7.7-4.25,11.56-6.37a105.13,105.13,0,0,1,15.75-7.4,93.55,93.55,0,0,1,19.54-4.55,68.31,68.31,0,0,1,14.07-.43c21.49,1.82,38.87,10.82,50.62,29.39A61.56,61.56,0,0,1,520.2,215c2.51,17.93-1.57,34.44-10.93,49.76A78.77,78.77,0,0,1,495.81,281a8.2,8.2,0,0,1-1.52,1.17,1.31,1.31,0,0,1-1.92-.37,5.87,5.87,0,0,1-.8-1.45,11.79,11.79,0,0,0-5.52-6.33,6.62,6.62,0,0,1-1.15-.81,2.22,2.22,0,0,1-.6-3.08,14.27,14.27,0,0,1,1.33-2c2.21-3,4.47-5.94,6.67-8.93a79.83,79.83,0,0,0,7.28-11.75A46,46,0,0,0,504,231.86a114.06,114.06,0,0,0,.77-14.19,67.53,67.53,0,0,0-6.38-28.27,36.82,36.82,0,0,0-3.36-5.59A15.36,15.36,0,0,0,485,177.52a3.82,3.82,0,0,1-2.74-1.84c-2.63-4-6.5-6.06-11-7.07a50.54,50.54,0,0,0-10.83-.92,106.77,106.77,0,0,0-51.31,12.72A24.54,24.54,0,0,0,404,184a13.9,13.9,0,0,0-1.55,1.7,3.11,3.11,0,0,0-.09,4,32.88,32.88,0,0,0,3,3.19c.69.7,1.46,1.31,2.17,2,2.24,2.11,2.07,5.11,1.28,7.64a1.24,1.24,0,0,1-1.72.91,11.26,11.26,0,0,1-2.47-1c-3.85-2-7.65-4.18-11.51-6.2a142.81,142.81,0,0,0-23.9-10.15,67.35,67.35,0,0,0-19-3.35c-8.73-.12-16.88,1.79-23.94,7.21a30.79,30.79,0,0,0-10,12.42,28.38,28.38,0,0,0-1.83,15.21,149.7,149.7,0,0,0,9.11,35.12,137.78,137.78,0,0,0,8.28,17.18C332,270.3,332.16,270.67,332.44,271.18Z"/><path class="cls-1" d="M411.14,308.87c-.54.42-.87.67-1.18.95l-20.07,17.55a15.54,15.54,0,0,1-1.83,1.4,5,5,0,0,1-7-1.29,13.49,13.49,0,0,1-2.33-5.64,12.61,12.61,0,0,1,.85-7.4,22.36,22.36,0,0,1,3.18-5.39,83.38,83.38,0,0,1,35.51-26.52,69.14,69.14,0,0,1,7.15-2.43,5.9,5.9,0,0,1,5.47,1,4.4,4.4,0,0,1,1.83,4.61,38.29,38.29,0,0,0-.85,5.94,10.1,10.1,0,0,1-1.7,4.78c-.78,1.23-1.66,2.39-2.46,3.6q-1.51,2.3-3,4.63a10.65,10.65,0,0,0-.63,1.37c.17.06.26.12.33.1,3.3-.86,6.61-1.67,9.89-2.61a29.18,29.18,0,0,0,4.89-1.87,11,11,0,0,0,5.1-5.73,2.53,2.53,0,0,0-2.53-.52A3.6,3.6,0,0,1,439,295a5.16,5.16,0,0,1,.57-.4A47.6,47.6,0,0,0,450,286.92c1.63-1.51,3.24-3,4.85-4.57l.38-.35c1-.93,2.05-1.83,3.51-1.13a3.93,3.93,0,0,1,2.46,3.75,6.63,6.63,0,0,1-.78,2.92,40,40,0,0,1-3.28,4.88c-1.42,1.82-3,3.46-4.5,5.26s-2.9,3.79-4.34,5.7c-.14.2-.24.44-.51.95a9.76,9.76,0,0,0,1.63-.48,13.07,13.07,0,0,0,2.14-1.39q8.94-7.48,17.85-15,3.39-2.85,6.83-5.62a14.07,14.07,0,0,1,2.34-1.57,3.35,3.35,0,0,1,3.73.4,4.83,4.83,0,0,1,1.47,6.77,21.63,21.63,0,0,1-1.81,2.64c-2.14,2.77-4.34,5.51-6.46,8.29a51.74,51.74,0,0,0-5.4,8.55c-.16.33-.28.67-.44,1,.19,0,.29,0,.34,0,3-1.94,6.32-3,9.62-4.17,1.56-.56,3.12-1.15,4.64-1.82a20.47,20.47,0,0,0,5.92-4,73.87,73.87,0,0,1,30.37-17.46,12.75,12.75,0,0,1,4-.61c2.94.05,6.12,3.37,5.15,6.7a11.62,11.62,0,0,1-.76,2.17,11.44,11.44,0,0,0-1.06,4.45,15.76,15.76,0,0,1-.28,2.16,4.57,4.57,0,0,1-1.37,2.56,30.34,30.34,0,0,0-4.77,6l-1.05,1.57c.75.93,1,1,2,.65,1.89-.67,3.76-1.41,5.67-2a49.39,49.39,0,0,1,10.11-2.24c1.27-.14,1.89.32,2,1.42a1.56,1.56,0,0,1-1.08,1.7,10.43,10.43,0,0,1-2,.45,31.91,31.91,0,0,0-18.88,10,54.32,54.32,0,0,0-8.08,11.35,13,13,0,0,1-1.2,2,2.19,2.19,0,0,1-2.83.83c-2.25-.91-4.07-2.31-4.39-4.89a6.28,6.28,0,0,1,.39-2.87c1.06-2.84,2.25-5.63,3.4-8.43l.81-1.95a2.43,2.43,0,0,0-2.63.64c-.63.58-1.14,1.27-1.74,1.88a122.84,122.84,0,0,1-16,13.74,13.06,13.06,0,0,1-3,1.62,3.83,3.83,0,0,1-4.85-1.5,13.24,13.24,0,0,1-2.64-6.85,13.82,13.82,0,0,1,2.18-8.79,2.67,2.67,0,0,0,.57-2.37,5.68,5.68,0,0,0-.93.19,17.9,17.9,0,0,0-4.91,2.73,43.06,43.06,0,0,0-11.58,13.7,18,18,0,0,1-1.31,2.2,2.61,2.61,0,0,1-3.17,1,5.07,5.07,0,0,1-3.89-5.22,13.62,13.62,0,0,1,.68-3.62,48.33,48.33,0,0,1,5.36-11.18c2.35-3.72,4.83-7.35,7.26-11,.25-.39.5-.77.93-1.41-.68.14-1.08.19-1.47.29a16.89,16.89,0,0,0-6.54,3.67,101.91,101.91,0,0,0-13.65,13.51c-3.55,4.32-6.95,8.77-10.36,13.21-1.69,2.21-3.83,2.34-5.63.17a5.56,5.56,0,0,1-1.1-4.59,23.52,23.52,0,0,1,3.4-9.05c1.22-1.95,2.62-3.79,3.95-5.68.24-.34.49-.67.78-1.07a4.85,4.85,0,0,0-3.22,0,8.7,8.7,0,0,0-2.58,1.1c-2.5,1.71-5,3.42-7.37,5.32a28.21,28.21,0,0,0-5.83,6.94c-1.18,1.84-2.27,3.72-3.39,5.59-.18.29-.34.6-.51.89-1.47,2.5-3,2.86-5.36,1.25a5.39,5.39,0,0,1-2.56-5.95,16.81,16.81,0,0,1,3.46-7.89,11.41,11.41,0,0,0,2.34-4.66C411,309.92,411,309.52,411.14,308.87ZM422.24,292c-.13-.81-.42-1.14-1.14-1.08a4.39,4.39,0,0,0-1.24.29c-1.83.71-3.68,1.38-5.47,2.19-10.11,4.58-18.23,11.63-25,20.28a3.34,3.34,0,0,0-.5.88c-.2.53-.38,1.1,0,1.58s1.1.32,1.67.14c.25-.07.48-.17.72-.26a64.34,64.34,0,0,0,19.42-11.49A85.93,85.93,0,0,0,421,294,14.35,14.35,0,0,0,422.24,292Zm63.08,25,1.47-.52c12.66-4.67,23-12.55,31.48-22.94a3.47,3.47,0,0,0,.61-1,1.24,1.24,0,0,0-1.36-1.72,3.22,3.22,0,0,0-.74.19,64.11,64.11,0,0,0-10.9,5,79.19,79.19,0,0,0-18.27,15.52,9.61,9.61,0,0,0-1.24,1.78A7.27,7.27,0,0,0,485.32,317Z"/><path class="cls-1" d="M83.44,306.68c.54-.17,1-.29,1.4-.44A98.9,98.9,0,0,1,97,302.63c1.17-.24,2.35-.45,3.54-.6s1.71.23,2,1.13a1.29,1.29,0,0,1-.82,1.86,7.9,7.9,0,0,1-1.73.4,32.49,32.49,0,0,0-19.9,10.95,45,45,0,0,0-7.39,10.88c-1.22,2.59-2.59,2.95-5,1.43a6.45,6.45,0,0,1-2.89-8,24.32,24.32,0,0,1,3.34-6.46c.21-.3.4-.62.64-1a2.93,2.93,0,0,0-2.79,0,5.42,5.42,0,0,0-1.21.93,128.47,128.47,0,0,1-15.34,13,17.9,17.9,0,0,1-2.37,1.51c-2.45,1.26-4.35.82-5.9-1.44a12.68,12.68,0,0,1-1.85-11.7,42.27,42.27,0,0,1,2.35-5c.26-.53.57-1,1-1.74a7.19,7.19,0,0,0-1,.15,21.82,21.82,0,0,0-7.64,4.59,64.66,64.66,0,0,0-5.35,5.51c-2.33,2.78-4.47,5.73-6.69,8.6-.13.17-.24.35-.38.51-1.18,1.47-2.2,1.65-3.76.62a11.9,11.9,0,0,1-1.8-1.43,4.9,4.9,0,0,1-1.33-5.73,72.23,72.23,0,0,1,3.35-7.19A160.86,160.86,0,0,1,40.4,283.94c3.17-3.47,6.49-6.8,9.73-10.2a11.54,11.54,0,0,0,1.21-1.32c.23-.32.5-.87.37-1.11a1.92,1.92,0,0,0-1.11-.66,13,13,0,0,0-1.4-.13,1.89,1.89,0,0,1-1.63-1,3.79,3.79,0,0,1,.53-.27,27.66,27.66,0,0,0,9.81-5.4c1.91-1.58,3.67-3.32,5.52-5a14,14,0,0,1,2.09-1.68,3,3,0,0,1,4.06.58,4.54,4.54,0,0,1,1.26,3.88,6.77,6.77,0,0,1-2.13,4.27c-2.34,2.19-4.71,4.35-7,6.56a212.53,212.53,0,0,0-27.8,32c-.26.39-.59.73-.88,1.09s-.61.76-.29,1.27a1.29,1.29,0,0,0,1.41.67,3,3,0,0,0,1.23-.62,5.07,5.07,0,0,1,2.29-1.06,43.27,43.27,0,0,0,10-3.56,21.72,21.72,0,0,0,5.1-3.63A77.1,77.1,0,0,1,80,282a43.13,43.13,0,0,1,6.08-1.48,5.69,5.69,0,0,1,3.84.68,4.26,4.26,0,0,1,2.32,4.71c-.56,2.89-1.17,5.77-1.85,8.64a11.22,11.22,0,0,1-3.63,6.05A10.75,10.75,0,0,0,83.5,306,3.77,3.77,0,0,0,83.44,306.68Zm-34.83,8.09c0,1.32.79,1.91,1.72,1.56.51-.19,1-.5,1.5-.7,11.19-4.32,20.32-11.45,28.05-20.49a14.19,14.19,0,0,0,1.4-2c.57-1,0-1.81-1.09-1.77a4.13,4.13,0,0,0-1.25.24c-1.24.45-2.48.9-3.7,1.43A64.41,64.41,0,0,0,54,308.21c-1.56,1.64-3,3.36-4.5,5.08A10.29,10.29,0,0,0,48.61,314.77Z"/><path class="cls-1" d="M407.17,122.11a7.7,7.7,0,0,1-7.18-6.17,11.52,11.52,0,0,0-6.38-8.19,33.69,33.69,0,0,0-13.41-3.5,59.93,59.93,0,0,0-12.76.89c-4.35.69-8.69,1.39-13,2.06-1.27.19-2.55.24-3.83.38a6.88,6.88,0,0,0-4.24,1.82,4.33,4.33,0,0,0,.66.51,11.74,11.74,0,0,0,4.45,1.08,93.27,93.27,0,0,1,31.84,8.14,56.36,56.36,0,0,1,16.13,11.21,35.66,35.66,0,0,1,10.38,20c.92,6,.68,11.85-2,17.44-.75,1.58-1.35,3.23-2.08,4.82a6,6,0,0,1-1.08,1.57,1.83,1.83,0,0,1-2.12.43,1.59,1.59,0,0,1-1-1.77c.21-2.46.15-5,1-7.34a24,24,0,0,0-.94-18.11c-6.62-14.87-17.7-24.53-33.59-28.53a97.59,97.59,0,0,0-12.37-2.05A80.93,80.93,0,0,1,338,113a9.21,9.21,0,0,1-1.76-.77,3,3,0,0,1-.47-4.89,10.15,10.15,0,0,1,2-1.33A147.63,147.63,0,0,1,359,96.85c5.15-1.81,10.35-3.48,15.53-5.24a31.5,31.5,0,0,0,3.22-1.25,10.9,10.9,0,0,1,12.52,1.73,39.11,39.11,0,0,1,7.12,8.53,84.14,84.14,0,0,1,7.93,16.2c.56,1.47,1.1,3,1.64,4.44A8.05,8.05,0,0,1,407.17,122.11Z"/><path class="cls-1" d="M421.7,151.83a16.15,16.15,0,0,1,4.63-2.92,36,36,0,0,1,4.69-1.7c10.44-2.84,17.77-9.33,22.47-18.94a58.32,58.32,0,0,0,3.8-10.05,10.51,10.51,0,0,0,.39-2.9c0-2.86-1.93-4.87-5-5.44a16,16,0,0,0-7.11.43,34.34,34.34,0,0,0-5.3,1.86,56.86,56.86,0,0,0-16.79,11.12,35,35,0,0,0-10,19c-.06.32-.15.64-.26,1.08a6.11,6.11,0,0,1-2.74-5.08,17,17,0,0,1,1.13-6.39,30.56,30.56,0,0,1,2.26-5,80.7,80.7,0,0,1,14.55-18.45,55.92,55.92,0,0,1,11.61-8.15A22.58,22.58,0,0,1,453.74,98c1.27.15,2.53.42,3.79.62a3.78,3.78,0,0,1,2.8,2,6.12,6.12,0,0,1,.54,1.16,55.22,55.22,0,0,1,2.87,14.78,24.09,24.09,0,0,1-6.56,17.66c-.29.32-.57.64-.88.93-6.28,5.83-12.92,11.19-20.62,15.07a49.74,49.74,0,0,1-6.27,2.58,8.31,8.31,0,0,1-7.17-.61C422.1,152.12,422,152,421.7,151.83Z"/><path class="cls-1" d="M422,356.35a20.88,20.88,0,0,0,.16-11.46h7.67v24.69c-1.94,0-3.83.42-5.73,0a4.6,4.6,0,0,1-3-2.09,5.29,5.29,0,0,1-.61-1.12,15.52,15.52,0,0,0-4.45-6c-1.64-1.5-3.24-3-4.84-4.58-.42-.41-.85-.73-1.47-.47a1.35,1.35,0,0,0-.85,1.32c0,1.53-.05,3.07,0,4.6,0,2.57.05,5.13.07,7.69,0,.16,0,.33-.07.58h-7.14c-.27-.87-.37-22.5-.1-24.72a20.24,20.24,0,0,1,5.39-.46,11,11,0,0,1,9.81,6.33,10.44,10.44,0,0,0,1.66,2.26C419.52,354.1,420.7,355.14,422,356.35Z"/><path class="cls-1" d="M262.72,367.58c.8-2,1.53-3.81,2.28-5.71.41.18.72.29,1,.43a22.34,22.34,0,0,0,13.18,2.23,4.9,4.9,0,0,0,1.35-.36,1.68,1.68,0,0,0,1.09-1.72,1.57,1.57,0,0,0-1.1-1.57,12.85,12.85,0,0,0-1.85-.47c-3-.54-6-1-8.94-1.58a14.19,14.19,0,0,1-3-1,4.84,4.84,0,0,1-3-4.41,7,7,0,0,1,2.68-6.2,12,12,0,0,1,6.81-2.68,38.34,38.34,0,0,1,5.87,0c2.76.24,5.5.69,8.25,1.06.33,0,.65.17,1,.27a9.41,9.41,0,0,1-2.55,5.8c-1.94-.69-3.66-1.44-5.46-1.91a14,14,0,0,0-7.58.36c-1.08.32-1.57,1-1.47,1.81a1.75,1.75,0,0,0,1.91,1.52,11.28,11.28,0,0,1,4.22.94,14.7,14.7,0,0,0,6.11,1.18,7,7,0,0,1,2.26.36,3.89,3.89,0,0,1,2.84,3,11.54,11.54,0,0,1,.35,4.18,6.17,6.17,0,0,1-3.37,4.85,16,16,0,0,1-6.73,1.87,40.3,40.3,0,0,1-11.05-1.15C266.18,368.39,264.53,368,262.72,367.58Z"/><path class="cls-1" d="M328.56,369.51c.22-.56.37-1,.55-1.4,2.27-5.11,4.58-10.21,6.8-15.34a60.73,60.73,0,0,0,2.18-5.87,2.53,2.53,0,0,1,2.5-2.12c2.51-.06,5-.1,7.54-.13a1.37,1.37,0,0,1,1.41,1.08c2,6.43,5.37,12.28,8.16,18.36.64,1.4,1.24,2.82,1.85,4.23.16.38.27.78.48,1.37h-1.91c-1.45,0-2.9,0-4.36,0s-1.68-.14-2.11-1.65c-.14-.5-.27-1-.44-1.47a2.56,2.56,0,0,0-2.6-1.89l-6.4,0c-1.2,0-2.4,0-3.59.09-.95,0-1.33.3-1.54,1.22-.64,2.79-2.14,4-5.6,3.78C330.56,369.75,329.64,369.62,328.56,369.51Zm11.28-9.15c1.87.14,3.6.35,5.34.36,2.09,0,3-1.39,2.09-3.24-.81-1.69-1.77-3.3-2.67-4.94a1,1,0,0,0-.15-.2.8.8,0,0,0-1.43.18,32.87,32.87,0,0,0-2.93,6.65C340,359.52,339.94,359.89,339.84,360.36Z"/><path class="cls-1" d="M502.71,369.65c-2.54,0-4.85,0-7.15,0-.84,0-1.08-.27-1.32-1.13-.16-.57-.25-1.17-.46-1.72a3.3,3.3,0,0,0-3.2-2.34c-1.06,0-2.13.11-3.19.13-.85,0-1.7,0-2.55,0l-.51-.06c-3.12-.33-4.77.6-5.89,3.51-.62,1.63-1.31,2-3,2a10.43,10.43,0,0,0-4.81.45c.17-.48.24-.76.36-1q5-11.07,10.1-22.14c.18-.38.36-.77.57-1.14a2.93,2.93,0,0,1,2.71-1.64c.76,0,1.53.12,2.29.14a25.86,25.86,0,0,0,2.92,0,1.82,1.82,0,0,1,2.12,1,6.22,6.22,0,0,1,.33.69q5,10.89,10,21.77C502.23,368.56,502.43,369,502.71,369.65Zm-20.86-9.18c1.68.07,3.16.16,4.64.18a9.73,9.73,0,0,0,2.15-.2,1.64,1.64,0,0,0,1.36-2.1,7.22,7.22,0,0,0-.71-1.76c-.62-1.21-1.28-2.4-2-3.57-.33-.57-.74-1.09-1.25-1.82Z"/><path class="cls-1" d="M422.83,142.75c.36-.85.7-1.71,1.1-2.54a6.88,6.88,0,0,1,.78-1.18q4-5.24,8-10.47a30.82,30.82,0,0,0,4.86-8.09,2.89,2.89,0,0,1,2.64-1.92c1.45-.14,2.06.27,2.39,1.69.42,1.74.79,3.49,1.18,5.24.29,1.34.59,2.67.85,4a10.23,10.23,0,0,1,.13,1.66,2.51,2.51,0,0,1-1.21,2.27,19.57,19.57,0,0,1-1.91,1c-3.24,1.63-6.5,3.23-9.73,4.88a43,43,0,0,1-8,3.43c-.28.08-.57.13-.85.2Z"/></svg>