<svg xmlns="http://www.w3.org/2000/svg" width="208" height="55" fill="none" viewBox="0 0 208 55">
    <path fill="#fff" d="M198.866 54.907a.226.226 0 0 0-.007.093h-.611c-.032-.062-.02-.112.036-.153.205-.094.404-.116.582.06z"/>
    <path fill="#fff" d="M198.24 54.916l.008.084h-.204a.808.808 0 0 0-.001-.098c.07-.054.136-.056.197.014zM96.944 34.209c-.147 3.138-.35 6.274-.421 9.415-.017.747-.014 1.494.075 2.239.08.664.438 1.048 1.073 1.187.348.075.7.149 1.054.174.276.021.352.142.322.386-.002.017 0 .034 0 .052-.002.543.032.503-.49.503-1.85-.001-3.702 0-5.552-.004-.143 0-.361.078-.407-.099a1.241 1.241 0 0 1 .016-.75c.031-.086.146-.061.227-.077.248-.052.5-.095.745-.157.677-.173 1.076-.606 1.216-1.291.182-.9.298-1.81.369-2.723.236-3.012.446-6.028.666-9.043a6.58 6.58 0 0 0-.025-1.22c-.082-.698-.403-1.072-1.09-1.236a7.6 7.6 0 0 0-.955-.15c-.23-.025-.338-.117-.302-.357a.963.963 0 0 0 0-.254c-.022-.215.057-.31.284-.303.356.014.714.004 1.07.004 1.122 0 2.242.013 3.363-.008.351-.007.535.091.684.43 1.684 3.82 3.386 7.63 5.085 11.442.075.17.127.35.265.512.149-.128.19-.31.263-.47 1.729-3.8 3.46-7.597 5.169-11.405.173-.386.368-.52.788-.512 1.409.029 2.819.011 4.23.012.2 0 .401-.044.403.29.003.553.02.563-.353.624-.336.054-.676.084-1.005.159-.513.114-.826.428-.906.969a5 5 0 0 0-.063.861c.062 2.666.123 5.331.188 7.997.03 1.24.071 2.478.102 3.717.008.307.052.608.103.91.101.583.433.949 1.013 1.069.315.064.635.122.954.149.221.02.305.106.283.316-.005.05 0 .102 0 .152 0 .44 0 .445-.441.446-2.293 0-4.586.002-6.879-.003-.136-.001-.347.086-.388-.125-.043-.228-.064-.474.025-.7.035-.091.144-.066.226-.08.302-.05.605-.088.903-.152.56-.126.882-.481.951-1.054.035-.303.082-.608.081-.913-.017-3.77-.042-7.54-.064-11.31-.001-.062-.016-.126-.03-.239-.214.15-.24.36-.313.532-1.936 4.468-3.864 8.938-5.798 13.407-.088.201-.102.466-.45.454-.415-.014-.418.015-.585-.395L97.238 34.34c-.031-.079-.07-.154-.105-.231-.127-.083-.144.033-.189.099zM67.577 5.713h6.88c.119 0 .239.003.356 0 .164-.004.252.061.253.237.003.203.025.407.03.61.026 1.104.106 2.205.196 3.305.037.46.036.465-.394.48-.56.02-.448.075-.593-.45a12.74 12.74 0 0 0-.512-1.544c-.342-.816-.952-1.257-1.824-1.339-.865-.08-1.731-.053-2.598-.059-.197-.002-.279.075-.263.27.009.103 0 .205 0 .307v12.69c0 .459.01.917.094 1.37.097.515.379.855.886 1.012.425.132.862.176 1.301.218.391.037.391.044.397.42.002.085-.004.17.001.254.01.163-.047.261-.229.25-.084-.006-.169 0-.254 0h-7.39c-.084 0-.17-.006-.254 0-.2.015-.254-.081-.263-.27-.032-.617-.04-.62.572-.67.324-.027.64-.082.952-.166.524-.14.84-.469.958-1.008.108-.505.098-1.014.1-1.522.008-4.246.005-8.494.004-12.74 0-.406-.007-.414-.424-.41-.881.004-1.764-.017-2.644.102-.752.103-1.23.517-1.547 1.172-.282.583-.45 1.207-.614 1.83-.035.13-.035.306-.202.315-.25.017-.51.07-.75-.037-.088-.04-.053-.151-.047-.233.09-1.372.185-2.745.269-4.118.011-.186.066-.286.266-.276.118.007.238 0 .357 0h6.93zM134.34 35.833v1.892c.221.103.313-.061.427-.141.64-.447 1.258-.926 1.949-1.296 1.068-.574 2.156-.559 3.221-.02 1.019.517 1.491 1.446 1.73 2.513.102.449.127.906.126 1.366-.005 1.733-.002 3.464-.002 5.197 0 .356.015.711.068 1.066.063.417.285.68.698.774.181.041.363.083.548.106.212.028.329.094.32.348-.021.622.015.524-.519.524-1.714.004-3.429.004-5.144-.002-.142 0-.347.08-.405-.104a1.122 1.122 0 0 1 .008-.652c.02-.067.105-.073.172-.085.149-.028.302-.051.45-.087.426-.1.672-.363.742-.8.076-.472.083-.947.084-1.422.002-1.426-.001-2.852.001-4.279a6.407 6.407 0 0 0-.092-1.115c-.24-1.391-1.273-2.067-2.641-1.717-.585.15-1.085.471-1.565.829-.144.107-.163.241-.161.4.004.39.002.782.002 1.17l-.001 5.146c-.001.323.015.646.066.964.083.51.269.716.758.832.099.024.2.045.301.05.267.013.324.16.32.402-.009.469.004.47-.472.47-1.8.002-3.599.003-5.399-.002-.141 0-.347.081-.408-.098a1.089 1.089 0 0 1 .002-.652c.025-.091.136-.083.218-.1.266-.051.533-.095.798-.15.449-.096.719-.363.765-.832.023-.252.062-.506.062-.758.006-2.071.003-4.144.004-6.215 0-.256-.032-.508-.062-.76-.054-.445-.305-.703-.719-.822-.099-.029-.195-.06-.294-.084-.461-.113-.491-.16-.448-.602.014-.138.051-.213.199-.237a29.61 29.61 0 0 0 4.293-1.017zM101.025 11.465v1.88c.218.058.311-.093.426-.174.61-.43 1.21-.876 1.857-1.25a3.328 3.328 0 0 1 2.356-.396c1.409.266 2.354 1.262 2.678 2.793.098.469.131.94.13 1.417-.003 1.68-.002 3.36 0 5.042 0 .39.001.781.065 1.167.089.529.266.726.799.851.164.04.333.066.5.093.116.02.257.01.26.175.004.215.071.442-.058.637-.03.046-.154.042-.235.042-1.817.002-3.634-.005-5.45.01-.293.001-.331-.128-.329-.366.003-.43-.006-.43.411-.515.725-.147.911-.333 1.007-1.068.039-.302.045-.61.046-.915.005-1.562 0-3.124.004-4.686a4.968 4.968 0 0 0-.131-1.211c-.306-1.245-1.303-1.827-2.559-1.512-.588.147-1.086.463-1.573.81-.158.114-.194.254-.194.435.006 2.207.006 4.414.009 6.62 0 .153.019.306.036.458.085.744.252.92.989 1.072.137.028.336-.046.389.156.052.196.035.405.003.606-.012.074-.081.1-.153.102-.085.003-.169.006-.255.006-1.816 0-3.632.002-5.448-.004-.14 0-.346.085-.401-.104-.061-.207-.058-.44.011-.652.029-.088.14-.078.223-.093.267-.044.538-.08.8-.143.42-.1.69-.35.745-.796.022-.185.06-.37.06-.555.004-2.241.003-4.482.002-6.723 0-.102-.006-.204-.018-.306-.078-.66-.272-.88-.915-1.055-.064-.019-.132-.03-.198-.047-.402-.103-.386-.103-.395-.495-.006-.24.087-.327.31-.36 1.345-.2 2.663-.513 3.959-.923.062-.018.132-.013.237-.023z"/>
    <path fill="#fff" d="M198.24 54.916l-.197-.014c-.378-.163-.731-.358-.995-.687-.508-.635-.432-1.271.215-1.758.094-.072.193-.138.298-.194 1.403-.762 2.141-2.035 2.663-3.47.153-.421.054-.839-.094-1.244-.39-1.067-.774-2.136-1.17-3.201-.692-1.86-1.382-3.721-2.144-5.553-.071-.172-.15-.343-.223-.513-.29-.68-.806-1.07-1.527-1.21-.139-.026-.347.027-.38-.175-.034-.196-.017-.405-.001-.607.005-.066.093-.087.165-.087l.254-.002c1.8-.001 3.601-.003 5.401.004.157 0 .389-.11.428.202.055.436-.001.573-.314.661-.924.26-1.031.448-.724 1.335.68 1.972 1.367 3.942 2.051 5.912.028.08.066.155.103.239.164-.11.179-.288.235-.435a106.007 106.007 0 0 0 1.949-5.515c.314-.962.125-1.274-.874-1.522-.142-.035-.353.013-.399-.157-.051-.19-.023-.403-.018-.606.003-.072.071-.108.144-.111.086-.004.17-.006.255-.006 1.358-.001 2.717-.004 4.075.004.161 0 .386-.098.409.222.034.476.011.576-.338.634-.811.137-1.329.616-1.681 1.333-.691 1.4-1.269 2.85-1.859 4.294-1.208 2.952-2.503 5.866-3.603 8.86a46.85 46.85 0 0 0-.873 2.604c-.103.336-.234.64-.608.756-.205 0-.414.004-.623.007zM129.106 4.592c.083.207.047.396.047.58.002 5.196.002 10.39.001 15.586 0 .39.02.78.076 1.168.071.483.349.758.812.857.232.05.468.093.704.106.217.014.306.104.29.316a2.848 2.848 0 0 0-.001.306c.007.178-.088.24-.253.233-.084-.003-.169 0-.254 0-1.902 0-3.803.002-5.705-.003-.16 0-.401.09-.463-.088-.066-.196-.023-.435-.003-.654.008-.098.122-.095.206-.106.286-.04.569-.09.845-.177.397-.125.617-.39.687-.798.063-.37.078-.742.078-1.116.001-4.195.002-8.388 0-12.582 0-.34-.016-.676-.06-1.014-.059-.45-.306-.708-.732-.801-.248-.055-.502-.09-.753-.124-.273-.035-.182-.245-.185-.393-.004-.155-.074-.372.185-.4 1.52-.17 3.001-.522 4.478-.896zM148.312 41.203v3.056c-.001.479.055.95.217 1.402.256.708.725 1.012 1.481.992.396-.012.769-.123 1.134-.265.142-.055.225-.038.268.11.014.05.031.098.043.146.122.524.285.455-.333.747-.567.269-1.13.547-1.695.82-.746.362-1.51.343-2.279.096-.95-.305-1.463-.995-1.697-1.931-.124-.5-.129-1.01-.129-1.518-.002-2.243-.001-4.484-.001-6.726 0-.102.002-.204 0-.306-.009-.367-.009-.372-.359-.378-.374-.005-.747 0-1.121-.002-.135 0-.262.01-.347-.145-.102-.185.016-.283.109-.4.042-.053.093-.101.128-.158.258-.438.625-.605 1.139-.554.441.043.447.004.45-.434.002-.408.013-.816-.005-1.223-.009-.229.072-.376.253-.512.705-.53 1.401-1.075 2.101-1.613.04-.031.078-.066.122-.091.273-.158.509-.039.516.274.012.493.003.985.003 1.478 0 .594.013 1.19-.005 1.782-.009.269.084.356.348.353.696-.013 1.392-.008 2.088-.004.433.003.542.113.547.532.005.436-.185.705-.545.712-.679.014-1.359.002-2.038.006-.386.002-.391.008-.393.39-.002 1.122 0 2.242 0 3.364zM178.837 38.63c.245-.36.481-.725.738-1.077.371-.51.787-.98 1.321-1.329.461-.3.951-.43 1.501-.298.788.189 1.302.828 1.282 1.612-.021.821-.651 1.604-1.393 1.74a.653.653 0 0 1-.526-.129c-.138-.101-.267-.213-.409-.305-.656-.421-1.31-.357-1.835.219-.477.521-.799 1.1-.776 1.866.043 1.458.011 2.92.013 4.38.001.29.006.578.03.865.051.593.27.834.847.991.347.096.704.115 1.057.148.249.022.325.125.301.353-.011.102-.001.204-.005.306-.005.12-.067.186-.19.187l-.255.003c-2.037 0-4.075 0-6.113-.004-.143 0-.35.08-.42-.079-.087-.198-.051-.434-.016-.652.018-.1.127-.096.207-.11.218-.038.436-.07.652-.112.518-.102.792-.43.856-.942.02-.168.03-.339.03-.508.002-2.224.002-4.447.001-6.673 0-.118-.009-.237-.018-.355-.032-.496-.271-.829-.763-.956-.147-.039-.295-.087-.445-.107-.219-.03-.328-.12-.313-.363.025-.359-.048-.419.397-.477a20.902 20.902 0 0 0 3.908-.92c.062-.02.123-.06.234-.007v2.705c.033.012.068.02.102.027zM168.081 35.86v2.742c.194.054.203-.111.255-.195.361-.576.749-1.132 1.228-1.619.323-.329.676-.619 1.114-.789 1.08-.417 2.269.278 2.347 1.373.058.807-.468 1.585-1.236 1.858-.266.094-.492.07-.716-.1-.189-.143-.378-.294-.589-.398-.501-.25-1.001-.223-1.424.155-.583.522-.995 1.129-.981 1.974.026 1.544.008 3.09.008 4.635 0 .271.016.542.054.812.067.486.346.743.81.858.349.085.704.114 1.057.147.237.023.342.101.308.343-.011.082-.007.17-.001.254.017.208-.093.268-.277.255-.084-.006-.17 0-.255 0h-5.958c-.102 0-.203-.003-.306-.001-.143.002-.223-.06-.219-.21.003-.12.009-.238-.003-.356-.019-.2.082-.265.264-.285.219-.025.435-.066.651-.112.489-.104.771-.403.82-.907.025-.27.061-.541.061-.811.005-2.037.005-4.074 0-6.113 0-.253-.035-.507-.057-.76-.036-.422-.271-.682-.664-.81a2.48 2.48 0 0 0-.492-.126c-.256-.028-.341-.15-.33-.405.016-.365-.002-.372.383-.43a23.138 23.138 0 0 0 3.953-.947c.047-.018.098-.018.195-.032zM95.048 20.59c.573.71.606.497.026 1.181-.827.975-1.815 1.738-3.05 2.127-1.61.51-4.307.001-5.798-2.129-1.58-2.256-1.4-5.38.476-7.548 1.305-1.51 2.97-2.4 4.935-2.712a4.421 4.421 0 0 1 2.856.501c.417.244.726.58.687 1.102-.042.543-.317.961-.78 1.247-.245.152-.489.112-.71-.059-.188-.143-.364-.305-.55-.453-.497-.392-1.028-.72-1.646-.889-1-.271-1.904.034-2.528.86-.408.541-.625 1.163-.729 1.824-.178 1.138-.168 2.266.22 3.367a4.254 4.254 0 0 0 1.269 1.875c1.3 1.106 2.995 1.236 4.442.33.302-.186.58-.41.88-.625zM176.168 20.606c.049.016.069.017.08.027.526.533.526.534.051 1.093-.421.492-.899.92-1.413 1.316-2.578 1.983-5.95.856-7.378-1.14-1.371-1.916-1.544-3.987-.617-6.126 1.083-2.495 4.105-4.373 6.822-4.304.69.017 1.344.185 1.944.53.418.241.724.567.693 1.097-.031.552-.304.962-.757 1.254-.264.17-.52.113-.754-.071-.226-.18-.441-.373-.671-.548-.421-.32-.872-.586-1.383-.741-1.116-.34-2.107.01-2.749.98-.424.638-.602 1.359-.685 2.109-.117 1.06-.043 2.101.351 3.103a4.191 4.191 0 0 0 1.387 1.85c1.259.956 2.844 1.034 4.201.218a6.92 6.92 0 0 0 .878-.647zM163.472 11.5c.089.172.044.362.044.544.003 2.936.004 5.874.001 8.81 0 .34.028.677.063 1.015.054.507.341.799.823.91.214.05.432.095.651.108.221.013.3.11.282.319-.01.118-.004.238-.003.355 0 .13-.074.178-.191.18l-.306.003h-5.601c-.085 0-.17-.005-.255 0-.201.011-.271-.091-.257-.279a2.24 2.24 0 0 0 0-.306c-.008-.166.063-.245.233-.263.235-.024.47-.062.703-.109.445-.092.715-.354.791-.815.05-.304.077-.605.077-.912v-6.11c0-.272-.024-.541-.066-.81-.066-.422-.306-.669-.709-.77-.147-.035-.296-.073-.447-.093-.251-.034-.383-.133-.367-.422.021-.41.002-.408.413-.467a24.6 24.6 0 0 0 3.869-.86c.081-.024.16-.054.252-.029zM161.869 6.064a1.71 1.71 0 0 1 1.711 1.713c.01.952-.793 1.752-1.748 1.744-.931-.006-1.708-.792-1.709-1.727 0-.973.766-1.733 1.746-1.73zM141.563 5.592c.002.103-.071.18-.131.26-1.056 1.43-2.115 2.859-3.165 4.294-.142.19-.271.29-.499.145a1.073 1.073 0 0 0-.278-.121c-.224-.066-.242-.204-.154-.39.021-.045.037-.095.054-.143.406-1.184.828-2.363 1.21-3.554.114-.358.295-.518.661-.568.638-.09 1.275-.172 1.919-.177.19-.001.336.04.383.254zM96.944 34.209c-.006-.032-.022-.066-.02-.097.01-.072-.036-.189.091-.189.105 0 .119.095.115.184-.06.034-.123.069-.186.102zM51.218 19.68C47.777 6.045 33.97-2.815 19.584.819 5.804 4.3-2.699 18.248.78 32.321c2.396 9.7 10.084 17.083 19.88 19.177.673.144 1.35.277 2.026.325.092-.139.062-.26.062-.377.002-.95.003-1.903.001-2.853 0-.45-.004-.447-.47-.52a23.05 23.05 0 0 1-4.192-1.05c-2.512-.9-4.685-2.295-6.366-4.402-.1-.127-.19-.264-.316-.44h29.21c-.147.195-.236.317-.331.436-1.562 1.965-3.566 3.318-5.886 4.226-1.524.594-3.104.98-4.717 1.236-.428.067-.43.068-.43.507-.003.849 0 1.699 0 2.548 0 .71 0 .71.677.615.085-.012.17-.015.254-.029 5.707-.976 10.587-3.529 14.6-7.705a25.99 25.99 0 0 0 6.437-24.334zM11.253 31.204c.062.282.114.565.17.847a.422.422 0 0 1 .081.419c-.122-.01-.173-.09-.21-.188-1.73-1.861-2.882-3.974-2.88-6.591 0-1.354.374-2.612.995-3.804.64-1.23 1.489-2.309 2.473-3.281 3.66-3.617 7.324-7.229 10.987-10.843.544-.539 1.05-1.11 1.49-1.74.981-1.411 1.64-2.928 1.527-4.687.133-.095.199.016.268.073.554.456 1.056.96 1.457 1.556.915 1.353 1.08 2.789.46 4.307-.399.975-1.019 1.8-1.762 2.533-3.835 3.777-7.609 7.618-11.482 11.357a16.084 16.084 0 0 0-2.142 2.518c-1.566 2.302-2.022 4.813-1.432 7.524zm3.441 2.235c-.192.002-.224-.157-.29-.258-1.495-2.18-1.666-4.498-.688-6.922.572-1.42 1.44-2.65 2.455-3.781 1.089-1.215 2.313-2.296 3.47-3.442 3.21-3.176 6.444-6.328 9.654-9.505a18.784 18.784 0 0 0 2.426-2.94c.676-1.014 1.2-2.09 1.325-3.322a.528.528 0 0 1 .037-.147c.012-.03.04-.053.089-.113 1.104 1.173 1.799 2.496 1.729 4.148-.04.954-.348 1.826-.808 2.651a8.993 8.993 0 0 1-1.51 1.976c-3.76 3.755-7.484 7.547-11.335 11.21-1.083 1.028-2.2 2.022-3.167 3.166-.646.767-1.257 1.559-1.786 2.412-.925 1.493-1.596 3.07-1.6 4.867zm4.55 5.03c.014.683.094 1.353.277 2.01.026.099.067.192.02.336a6.821 6.821 0 0 1-1.82-2.113c-.844-1.529-1.071-3.174-.85-4.881.396-3.036 1.857-5.534 4.007-7.652 3.712-3.658 7.439-7.3 11.156-10.953 1.079-1.06 2.11-2.162 3.022-3.373.562-.747 1.096-1.512 1.393-2.527.349.756.533 1.474.645 2.21.297 1.933-.21 3.662-1.35 5.226-.603.827-1.33 1.541-2.055 2.257-3.167 3.122-6.339 6.24-9.505 9.364-1.63 1.61-3.027 3.393-3.958 5.506-.643 1.46-1.013 2.982-.982 4.59zm23.313-14.456c-.056 1.75-.693 3.268-1.826 4.59-.92 1.073-1.966 2.019-2.961 3.015-1.055 1.058-2.163 2.064-3.157 3.181-.588.66-1.138 1.35-1.63 2.084-.805 1.204-1.465 2.472-1.72 3.932-.202-.07-.274-.233-.366-.367-.724-1.05-.995-2.225-.88-3.48.223-2.443 1.321-4.476 3.049-6.163 2.416-2.361 4.877-4.68 7.312-7.02.709-.681 1.398-1.382 1.885-2.352.246.904.32 1.739.294 2.58zm.35-7.134c-.321 1.174-.965 2.164-1.778 3.05-1.126 1.227-2.34 2.368-3.527 3.533-2.461 2.413-4.942 4.808-7.39 7.236-1.39 1.379-2.616 2.898-3.57 4.62-.697 1.259-1.21 2.578-1.296 4.036-.024.426-.01.848.045 1.27.078.07.13.169.035.235-.061.043-.141-.03-.153-.123-.675-.858-1.275-1.758-1.673-2.78-.68-1.75-.642-3.482.105-5.201.493-1.134 1.207-2.122 2.033-3.031 1.19-1.307 2.485-2.511 3.741-3.75 3.046-3.008 6.108-5.998 9.148-9.01.989-.98 1.899-2.038 2.713-3.172.396-.553.76-1.125.996-1.77.172.042.166.2.209.315.55 1.481.786 2.985.361 4.542zM156.67 13.578c.267.037.456-.044.631-.233.279-.301.518-.63.708-.993.065-.128.2-.249.105-.415-.105-.182-.272-.088-.414-.072-.996.107-1.992.218-2.992.282-.294.02-.561 0-.837-.132a5.624 5.624 0 0 0-2.87-.538c-1.291.094-2.453.515-3.422 1.397-1.955 1.78-1.791 5.396.988 6.593.065.029.165.035.184.143-.131.203-.318.352-.501.502a6.415 6.415 0 0 1-1.782 1.069c-.233.09-.303.215-.257.464.166.934.687 1.609 1.485 2.085.246.147.512.26.837.424-.348.247-.654.458-.955.678-.452.331-.912.652-1.306 1.055-.554.567-.676 1.232-.453 1.976.141.465.395.862.73 1.207.559.577 1.243.94 2.005 1.162a7.504 7.504 0 0 0 3.828.093c1.774-.408 3.297-1.243 4.413-2.72.692-.92 1.005-1.953.89-3.107-.104-1.045-.611-1.82-1.55-2.296-.473-.241-.983-.368-1.508-.435-.762-.099-1.526-.063-2.29-.05-.661.011-1.324.082-1.982-.037-.325-.059-.625-.17-.854-.417-.257-.275-.286-.594-.1-.937.225-.413.37-.487.801-.43 1.238.166 2.442.062 3.584-.478 2.278-1.075 3.055-3.544 1.81-5.729-.024-.043-.055-.086.001-.187.342.022.712.027 1.073.076zm-6.508 10.741c.503-.102 1.011-.107 1.521-.104.663-.004 1.324.027 1.969.191.099.026.198.05.295.081 1.139.38 1.648 1.324 1.34 2.484-.179.676-.57 1.21-1.184 1.524-1.55.79-3.105.767-4.602-.142-.601-.364-1.005-.917-1.096-1.639-.138-1.093.667-2.175 1.757-2.395zm2.839-6.54c-.257.653-.661 1.166-1.413 1.227-.785.063-1.322-.356-1.683-1.011-.491-.89-.592-1.865-.538-2.86.029-.54.121-1.078.362-1.575.295-.61.702-1.113 1.436-1.131.729-.02 1.246.387 1.594 1.003.429.76.546 1.593.548 2.451.003.65-.068 1.288-.306 1.896zM73.663 46.618c-.304-.022-.604-.083-.903-.143-.355-.071-.554-.293-.617-.655a6.651 6.651 0 0 1-.07-1.117c-.002-5.043 0-10.087-.004-15.13 0-.181.044-.369-.056-.57a34.766 34.766 0 0 1-4.387.864c-.487.065-.476.076-.465.567.004.202.049.31.279.32.235.008.471.053.705.1.6.119.806.332.897.937.032.218.047.44.048.66.005 1.07.003 2.14.002 3.21 0 .116.023.238-.044.345-.084.042-.167.023-.25.004-1.07-.252-2.13-.139-3.17.147-3.091.85-5.417 3.57-5.19 6.962.154 2.326 1.603 4.312 3.777 5.09 1.143.41 2.223.378 3.251-.328.42-.288.86-.545 1.295-.809.093-.057.182-.172.348-.059v1.44c.064.007.101.022.13.013 1.453-.424 2.931-.716 4.425-.947.37-.057.367-.072.367-.458.001-.348.034-.412-.368-.443zm-4.912-.485c-1.348.724-2.752.483-3.779-.674-.717-.809-1.032-1.787-1.134-2.837-.102-1.056-.026-2.106.287-3.126.237-.777.624-1.468 1.289-1.97 1.11-.84 2.586-.63 3.43.481.17.224.26.455.256.748-.016 1.138-.007 2.277-.007 3.415 0 1.121-.01 2.242.008 3.363.003.296-.09.46-.35.6zM188.234 13.312c-1.884-1.997-4.943-2.442-7.441-1.063-2.208 1.22-3.235 3.162-3.299 5.638-.042 1.588.447 3.012 1.504 4.21 1.129 1.28 2.594 1.865 4.271 1.97 2.672.166 5.344-1.278 6.267-4.188.233-.733.33-1.489.349-2.293-.022-1.602-.511-3.068-1.651-4.274zm-2.015 7.571c-.095.38-.216.75-.407 1.093-.661 1.18-2.076 1.449-3.129.591-.414-.339-.712-.77-.95-1.246a7.315 7.315 0 0 1-.656-2.078c-.234-1.417-.282-2.836.046-4.246.137-.584.351-1.135.712-1.62.785-1.055 2.071-1.197 3.07-.34.42.362.699.825.918 1.33.341.787.496 1.62.582 2.465.05.49.055.983.076 1.396-.033.943-.049 1.808-.262 2.655zM142.829 13.398c-1.844-2.055-4.969-2.534-7.512-1.162-2.633 1.42-3.567 4.12-3.263 6.546.278 2.219 1.425 3.846 3.488 4.777.719.326 1.488.457 2.271.512 2.443.172 4.759-1.108 5.843-3.235.479-.94.691-1.944.731-2.992.038-1.677-.423-3.182-1.558-4.446zm-2.164 7.729a3.78 3.78 0 0 1-.392.935c-.644 1.06-1.943 1.325-2.954.598-.452-.324-.77-.76-1.025-1.247-.438-.838-.667-1.74-.782-2.672-.161-1.305-.178-2.607.161-3.891.144-.546.357-1.062.706-1.513.798-1.033 2.104-1.147 3.075-.268.412.373.69.833.902 1.34.389.937.537 1.924.599 2.926.021.322.003.645.003.967.025.955-.03 1.901-.293 2.825zM121.573 35.975c-5.122.9-6.288 6.191-4.614 9.36.959 1.816 2.5 2.82 4.517 3.085 2.091.273 3.948-.25 5.444-1.781 1.242-1.27 1.699-2.858 1.723-4.598.049-3.72-3.022-6.776-7.07-6.066zm3.674 6.734c-.023.899-.058 1.798-.283 2.676-.102.396-.24.778-.457 1.126-.612.978-1.814 1.258-2.8.65-.492-.303-.833-.743-1.108-1.239-.425-.766-.659-1.598-.789-2.458-.221-1.454-.252-2.907.156-4.34a4.06 4.06 0 0 1 .66-1.367c.936-1.238 2.275-.989 3.075-.28.376.332.639.745.844 1.197.341.75.515 1.545.601 2.357.059.557.118 1.116.101 1.678zM115.832 11.7c-2.59.7-4.394 2.908-4.617 5.596-.15 1.804.272 3.44 1.493 4.814 1.16 1.31 2.663 1.899 4.378 1.959 2.033.071 3.768-.614 5.08-2.202 1.006-1.216 1.389-2.657 1.401-4.211.062-4.17-3.629-7.064-7.735-5.955zm4.04 9.34a3.788 3.788 0 0 1-.421 1.032c-.627 1.024-1.868 1.3-2.874.639-.481-.317-.814-.764-1.082-1.263-.43-.802-.655-1.671-.782-2.565-.193-1.372-.207-2.74.158-4.091.139-.512.345-.994.665-1.42.799-1.065 2.12-1.19 3.108-.295.437.396.719.895.935 1.439.387.974.509 2 .574 3.036.017.253.003.51.003.763.015.919-.052 1.83-.284 2.724zM78.565 41.523c1.626-.102 3.253-.2 4.879-.304.406-.025.813-.054 1.216-.107.554-.073.771-.314.814-.867a2.036 2.036 0 0 0-.011-.355c-.29-2.964-3.179-4.794-5.944-3.701-3.951 1.56-5.309 5.959-3.755 9.32 1.03 2.226 3.49 3.417 5.837 2.852 1.352-.325 2.432-1.103 3.313-2.157.526-.632.558-.456-.03-1.214-.434.373-.877.682-1.377.897-2.077.89-4.184.017-5.015-2.079a6.036 6.036 0 0 1-.398-1.73c-.056-.658-.027-.525.47-.555zm.463-3.64c.174-.254.385-.471.644-.64.716-.473 1.54-.377 2.103.271.564.648.736 1.43.713 2.268-.008.26-.146.423-.405.43-1.267.027-2.533.148-3.801.068-.014 0-.027-.018-.062-.04.084-.843.318-1.644.808-2.357zM82.807 20.896a4.7 4.7 0 0 1-1.391.728c-1.805.569-3.54-.136-4.409-1.791-.403-.765-.554-1.597-.63-2.447-.018-.2.066-.28.258-.281.187-.001.374-.01.56-.018 1.9-.09 3.798-.2 5.692-.39.679-.067.888-.308.892-.984.016-2.428-2.456-5-5.532-4.061-4.451 1.358-5.927 6.481-3.915 9.918 1.33 2.273 4.172 3.132 6.569 2.034a6.454 6.454 0 0 0 2.313-1.798c.548-.666.585-.457.007-1.188-.177.033-.282.179-.414.278zm-5.197-7.749c.878-.932 2.07-.795 2.73.299.342.567.48 1.192.47 1.849-.003.335-.098.43-.394.493-.378.08-3.435.111-3.887.034.116-.992.378-1.926 1.08-2.675zM160.345 45.958c-1.99.742-3.917-.062-4.769-2.003a5.7 5.7 0 0 1-.466-2.023c-.02-.38-.019-.38.366-.404 1.61-.1 3.219-.196 4.829-.299.457-.029.915-.061 1.369-.118.578-.073.796-.33.809-.914a3.87 3.87 0 0 0-.065-.81c-.457-2.348-3.061-4.453-6.113-3.104-3.97 1.756-4.982 6.152-3.502 9.273 1.034 2.178 3.499 3.366 5.82 2.804 1.352-.326 2.434-1.104 3.313-2.16.529-.637.584-.44-.038-1.192-.477.38-.971.735-1.553.95zm-3.905-8.517c.821-.769 1.907-.634 2.533.297.41.61.566 1.295.544 2.025-.009.26-.135.434-.392.444-1.284.047-2.565.123-3.895.096.136-1.102.401-2.102 1.21-2.862zM193.127 45.504a5.367 5.367 0 0 1-.761.407c-2.029.84-4.074-.004-4.917-2.025a5.724 5.724 0 0 1-.435-1.978c-.016-.356-.015-.358.344-.38 1.592-.1 3.184-.194 4.777-.295.457-.03.915-.065 1.371-.113.655-.069.88-.33.881-1.002a3.322 3.322 0 0 0-.062-.709c-.569-2.724-3.31-4.248-5.906-3.212-4.043 1.615-5.268 6.114-3.7 9.38 1.044 2.172 3.466 3.331 5.779 2.788 1.374-.323 2.467-1.113 3.355-2.184.503-.606.569-.42-.043-1.175-.244.182-.455.355-.683.498zm-5.976-5.463c.137-.772.343-1.519.805-2.17.189-.264.412-.493.689-.665.673-.416 1.452-.333 1.991.242.615.658.806 1.471.775 2.346-.011.3-.158.415-.518.424-.591.014-1.184.004-1.776.004v.087c-.575 0-1.151-.005-1.726.003-.201.001-.276-.07-.24-.27z"/>
</svg>
