<svg xmlns="http://www.w3.org/2000/svg" width="71.212" height="40" viewBox="0 0 71.212 40">
    <path fill="#FFF" d="M10.771,11.491c-0.073,0-0.147,0.033-0.225,0.102c-0.172,0.153-0.343,0.286-0.512,0.396 c-0.17,0.111-0.354,0.203-0.55,0.275s-0.41,0.125-0.642,0.159c-0.23,0.034-0.49,0.051-0.779,0.051c-0.476,0-0.919-0.086-1.33-0.258 c-0.412-0.172-0.768-0.422-1.068-0.75s-0.539-0.729-0.713-1.204S4.692,9.247,4.692,8.642c0-0.588,0.087-1.12,0.261-1.595 S5.37,6.169,5.683,5.839s0.684-0.584,1.116-0.763C7.23,4.897,7.707,4.808,8.227,4.808c0.29,0,0.545,0.021,0.767,0.064 s0.416,0.097,0.584,0.16c0.167,0.063,0.312,0.131,0.434,0.203s0.229,0.141,0.319,0.203c0.091,0.063,0.168,0.117,0.234,0.16 c0.065,0.043,0.127,0.064,0.187,0.064c0.076,0,0.136-0.015,0.176-0.044c0.041-0.03,0.077-0.067,0.109-0.112l0.428-0.604 c-0.403-0.381-0.863-0.681-1.382-0.902C9.564,3.779,8.948,3.668,8.233,3.668c-0.724,0-1.385,0.121-1.984,0.363 S5.135,4.613,4.706,5.052C4.275,5.491,3.942,6.016,3.705,6.626S3.349,7.908,3.349,8.642c0,0.732,0.11,1.404,0.332,2.015 s0.534,1.134,0.937,1.57s0.889,0.776,1.459,1.018c0.569,0.242,1.205,0.363,1.906,0.363c0.801,0,1.484-0.129,2.053-0.387 c0.567-0.258,1.05-0.617,1.448-1.078l-0.516-0.563C10.909,11.521,10.844,11.491,10.771,11.491z"
    />
    <path fill="#FFF" d="M18.116,7.481c-0.283-0.308-0.627-0.545-1.031-0.713c-0.406-0.167-0.859-0.251-1.361-0.251 s-0.955,0.084-1.359,0.251c-0.405,0.168-0.75,0.405-1.035,0.713s-0.504,0.68-0.658,1.115c-0.154,0.437-0.23,0.925-0.23,1.463 c0,0.542,0.076,1.031,0.23,1.465c0.154,0.435,0.373,0.806,0.658,1.113s0.63,0.544,1.035,0.709c0.404,0.165,0.857,0.247,1.359,0.247 s0.955-0.082,1.361-0.247c0.404-0.165,0.748-0.401,1.031-0.709c0.281-0.308,0.499-0.679,0.65-1.113 c0.152-0.434,0.228-0.923,0.228-1.465c0-0.538-0.075-1.026-0.228-1.463C18.615,8.161,18.397,7.789,18.116,7.481z M17.243,11.969 c-0.334,0.455-0.841,0.683-1.52,0.683c-0.344,0-0.643-0.06-0.896-0.177s-0.464-0.286-0.634-0.506 c-0.17-0.219-0.297-0.489-0.381-0.811c-0.083-0.321-0.125-0.686-0.125-1.092c0-0.407,0.042-0.772,0.125-1.096 c0.084-0.324,0.211-0.597,0.381-0.818c0.17-0.221,0.381-0.391,0.634-0.509c0.253-0.117,0.552-0.176,0.896-0.176 c0.679,0,1.186,0.229,1.52,0.685c0.335,0.457,0.502,1.095,0.502,1.914C17.745,10.88,17.578,11.515,17.243,11.969z"
    />
    <path fill="#FFF" d="M26.125,13.499V9.123c0-0.389-0.05-0.744-0.149-1.065s-0.245-0.596-0.438-0.824s-0.432-0.404-0.719-0.529 C24.532,6.58,24.2,6.518,23.825,6.518c-0.484,0-0.91,0.102-1.279,0.306c-0.369,0.203-0.702,0.47-1,0.8L21.45,6.877 c-0.045-0.167-0.154-0.251-0.325-0.251h-0.72v6.873h1.208V8.438c0.263-0.294,0.548-0.526,0.858-0.698 c0.31-0.172,0.643-0.258,1-0.258c0.489,0,0.852,0.144,1.09,0.431c0.237,0.287,0.355,0.69,0.355,1.211v4.376H26.125z"
    />
    <path fill="#FFF" d="M28.255,12.638c0.285,0.308,0.631,0.544,1.035,0.709s0.857,0.247,1.36,0.247 c0.502,0,0.955-0.082,1.36-0.247c0.404-0.165,0.748-0.401,1.031-0.709c0.282-0.308,0.5-0.679,0.65-1.113 c0.152-0.434,0.229-0.923,0.229-1.465c0-0.538-0.076-1.026-0.229-1.463c-0.15-0.436-0.368-0.808-0.65-1.115 c-0.283-0.308-0.627-0.545-1.031-0.713c-0.405-0.167-0.858-0.251-1.36-0.251c-0.503,0-0.956,0.084-1.36,0.251 c-0.404,0.168-0.75,0.405-1.035,0.713s-0.504,0.68-0.658,1.115c-0.153,0.437-0.23,0.925-0.23,1.463c0,0.542,0.077,1.031,0.23,1.465 C27.751,11.959,27.97,12.33,28.255,12.638z M28.74,8.971c0.083-0.324,0.21-0.597,0.38-0.818c0.17-0.221,0.381-0.391,0.635-0.509 c0.253-0.117,0.552-0.176,0.896-0.176c0.679,0,1.185,0.229,1.52,0.685c0.335,0.457,0.502,1.095,0.502,1.914 c0,0.813-0.167,1.448-0.502,1.902c-0.335,0.455-0.841,0.683-1.52,0.683c-0.344,0-0.643-0.06-0.896-0.177 c-0.254-0.117-0.465-0.286-0.635-0.506c-0.17-0.219-0.297-0.489-0.38-0.811s-0.126-0.686-0.126-1.092 C28.614,9.659,28.657,9.294,28.74,8.971z"
    />
    <path fill="#FFF" d="M30.864,5.564c0.061-0.029,0.123-0.078,0.186-0.146l1.582-1.751H31.45c-0.145,0-0.254,0.023-0.328,0.071 c-0.075,0.048-0.145,0.123-0.207,0.228l-1.004,1.642h0.719C30.725,5.608,30.803,5.594,30.864,5.564z"
    />
    <path fill="#FFF" d="M35.719,12.668c0.271,0.301,0.591,0.53,0.959,0.688c0.369,0.158,0.768,0.237,1.197,0.237 c0.498,0,0.971-0.085,1.418-0.254c0.448-0.17,0.822-0.438,1.12-0.805l-0.339-0.44c-0.051-0.077-0.127-0.115-0.23-0.115 c-0.082,0-0.164,0.035-0.244,0.104c-0.082,0.07-0.186,0.148-0.313,0.234s-0.285,0.164-0.475,0.234 c-0.19,0.07-0.433,0.105-0.727,0.105c-0.308,0-0.584-0.059-0.831-0.174s-0.456-0.282-0.628-0.502 c-0.172-0.219-0.305-0.49-0.4-0.813c-0.095-0.324-0.143-0.693-0.143-1.109c0-0.398,0.045-0.758,0.133-1.079 s0.219-0.595,0.394-0.821c0.174-0.226,0.39-0.398,0.647-0.519s0.555-0.18,0.889-0.18c0.254,0,0.467,0.028,0.642,0.085 s0.322,0.118,0.444,0.187c0.122,0.067,0.223,0.13,0.303,0.187c0.078,0.057,0.152,0.085,0.22,0.085s0.12-0.014,0.156-0.041 s0.072-0.065,0.108-0.115l0.318-0.435c-0.284-0.285-0.612-0.505-0.983-0.661c-0.37-0.156-0.796-0.234-1.275-0.234 c-0.521,0-0.981,0.088-1.384,0.265s-0.74,0.422-1.015,0.736c-0.273,0.314-0.481,0.688-0.624,1.123 c-0.143,0.434-0.214,0.906-0.214,1.418c0,0.561,0.078,1.061,0.234,1.499S35.446,12.367,35.719,12.668z"
    />
    <path fill="#FFF" d="M46.35,7.321c-0.254-0.26-0.555-0.459-0.902-0.597c-0.349-0.138-0.729-0.207-1.14-0.207 c-0.498,0-0.946,0.087-1.344,0.262c-0.397,0.174-0.735,0.413-1.011,0.719s-0.487,0.666-0.635,1.082 c-0.146,0.416-0.221,0.864-0.221,1.344c0,0.593,0.082,1.117,0.244,1.573c0.164,0.457,0.391,0.841,0.683,1.15 s0.638,0.545,1.038,0.706c0.4,0.16,0.838,0.24,1.313,0.24c0.249,0,0.5-0.021,0.754-0.064c0.252-0.043,0.498-0.107,0.735-0.193 s0.46-0.195,0.669-0.329c0.207-0.133,0.387-0.29,0.535-0.472l-0.339-0.44c-0.054-0.077-0.132-0.115-0.23-0.115 c-0.077,0-0.169,0.035-0.274,0.104c-0.107,0.07-0.239,0.146-0.397,0.228c-0.158,0.082-0.347,0.157-0.566,0.228 s-0.481,0.105-0.784,0.105c-0.325,0-0.619-0.054-0.881-0.16c-0.264-0.105-0.489-0.267-0.68-0.481 c-0.189-0.215-0.339-0.482-0.447-0.804s-0.168-0.699-0.176-1.133h4.572c0.113,0,0.189-0.032,0.23-0.096 c0.041-0.063,0.061-0.189,0.061-0.38c0-0.488-0.07-0.924-0.213-1.306S46.604,7.582,46.35,7.321z M42.333,9.313 c0.081-0.597,0.29-1.063,0.624-1.4c0.335-0.337,0.794-0.506,1.377-0.506c0.276,0,0.521,0.047,0.736,0.14s0.397,0.224,0.547,0.394 c0.148,0.169,0.262,0.37,0.339,0.604c0.077,0.232,0.115,0.489,0.115,0.77H42.333z"
    />
    <path fill="#FFF" d="M53.748,7.233c-0.192-0.229-0.432-0.404-0.719-0.529c-0.287-0.124-0.619-0.187-0.994-0.187 c-0.484,0-0.91,0.102-1.279,0.306c-0.369,0.203-0.702,0.47-1,0.8L49.66,6.877c-0.045-0.167-0.154-0.251-0.325-0.251h-0.72v6.873 h1.208V8.438c0.263-0.294,0.548-0.526,0.858-0.698c0.31-0.172,0.643-0.258,1-0.258c0.489,0,0.852,0.144,1.09,0.431 c0.237,0.287,0.355,0.69,0.355,1.211v4.376h1.208V9.123c0-0.389-0.05-0.744-0.149-1.065S53.94,7.462,53.748,7.233z"
    />
    <path fill="#FFF" d="M61.252,7.481c-0.282-0.308-0.627-0.545-1.031-0.713c-0.404-0.167-0.857-0.251-1.359-0.251 c-0.503,0-0.956,0.084-1.361,0.251c-0.404,0.168-0.75,0.405-1.034,0.713c-0.285,0.308-0.505,0.68-0.658,1.115 c-0.153,0.437-0.231,0.925-0.231,1.463c0,0.542,0.078,1.031,0.231,1.465c0.153,0.435,0.373,0.806,0.658,1.113 c0.284,0.308,0.63,0.544,1.034,0.709c0.405,0.165,0.858,0.247,1.361,0.247c0.502,0,0.955-0.082,1.359-0.247 s0.749-0.401,1.031-0.709c0.283-0.308,0.5-0.679,0.651-1.113c0.151-0.434,0.228-0.923,0.228-1.465c0-0.538-0.076-1.026-0.228-1.463 C61.752,8.161,61.535,7.789,61.252,7.481z M60.381,11.969c-0.336,0.455-0.842,0.683-1.52,0.683c-0.344,0-0.643-0.06-0.896-0.177 c-0.253-0.117-0.465-0.286-0.635-0.506c-0.169-0.219-0.296-0.489-0.379-0.811c-0.084-0.321-0.126-0.686-0.126-1.092 c0-0.407,0.042-0.772,0.126-1.096c0.083-0.324,0.21-0.597,0.379-0.818c0.17-0.221,0.382-0.391,0.635-0.509 c0.254-0.117,0.553-0.176,0.896-0.176c0.678,0,1.184,0.229,1.52,0.685c0.334,0.457,0.502,1.095,0.502,1.914 C60.883,10.88,60.715,11.515,60.381,11.969z"
    />
    <path fill="#FFF" d="M67.711,10.687c-0.102-0.196-0.236-0.362-0.404-0.498c-0.166-0.136-0.357-0.249-0.569-0.34 c-0.212-0.09-0.431-0.173-0.655-0.247c-0.223-0.075-0.441-0.145-0.654-0.211c-0.213-0.065-0.402-0.141-0.57-0.227 c-0.167-0.086-0.301-0.188-0.402-0.306c-0.103-0.117-0.153-0.265-0.153-0.441c0-0.14,0.03-0.27,0.091-0.39 c0.063-0.12,0.15-0.225,0.266-0.315s0.254-0.162,0.417-0.214s0.347-0.078,0.55-0.078c0.234,0,0.438,0.026,0.61,0.078 s0.319,0.108,0.444,0.17c0.125,0.061,0.229,0.116,0.315,0.166s0.163,0.074,0.231,0.074c0.112,0,0.196-0.05,0.25-0.149l0.271-0.44 c-0.262-0.249-0.573-0.444-0.933-0.587s-0.766-0.214-1.218-0.214c-0.389,0-0.735,0.055-1.038,0.163 c-0.304,0.108-0.559,0.254-0.767,0.438c-0.208,0.183-0.367,0.396-0.475,0.638c-0.109,0.242-0.163,0.494-0.163,0.757 c0,0.294,0.051,0.544,0.152,0.749c0.103,0.206,0.236,0.379,0.403,0.52c0.168,0.14,0.359,0.257,0.574,0.35s0.434,0.175,0.658,0.247 c0.223,0.072,0.443,0.142,0.658,0.207s0.405,0.143,0.572,0.23c0.168,0.089,0.303,0.194,0.404,0.319 c0.102,0.124,0.152,0.281,0.152,0.472c0,0.153-0.028,0.298-0.084,0.434c-0.057,0.136-0.145,0.256-0.262,0.36 c-0.117,0.104-0.265,0.187-0.441,0.247c-0.176,0.062-0.382,0.092-0.617,0.092c-0.275,0-0.506-0.031-0.688-0.095 s-0.339-0.134-0.468-0.211c-0.129-0.076-0.239-0.146-0.33-0.21c-0.09-0.063-0.176-0.095-0.258-0.095 c-0.081,0-0.146,0.016-0.196,0.047c-0.05,0.032-0.093,0.077-0.129,0.136l-0.285,0.462c0.271,0.244,0.602,0.444,0.991,0.6 c0.389,0.156,0.822,0.234,1.303,0.234c0.42,0,0.791-0.057,1.112-0.17c0.321-0.112,0.593-0.268,0.813-0.464 c0.223-0.197,0.39-0.43,0.502-0.699c0.113-0.27,0.17-0.562,0.17-0.879C67.863,11.12,67.813,10.884,67.711,10.687z"
    />
    <path fill="#AF0300" d="M44.165,26.412l-8.617,8.613l-8.617-8.617c-0.211-0.212-0.551-0.212-0.764,0 c-0.211,0.212-0.211,0.552,0,0.764l9.002,9.001c0.211,0.212,0.552,0.212,0.763,0l8.997-9.001c0.104-0.104,0.16-0.244,0.16-0.38 s-0.052-0.275-0.16-0.38C44.717,26.2,44.377,26.2,44.165,26.412z"
    />
</svg>