<svg width="102" height="67" viewBox="0 0 102 67" fill="none" xmlns="http://www.w3.org/2000/svg">
<path d="M36.4989 20.0901L36.4736 10.4644H29.5194V0.00515759L31.5606 0.000224094L42.8061 0V14.0876L42.5884 14.3024C41.7607 15.1219 40.9267 15.9006 40.1205 16.6537C39.3597 17.3647 38.5728 18.0997 37.7766 18.8809L36.4989 20.0901ZM30.929 9.00142H37.9342V10.5061L37.9866 16.651C38.3713 16.2874 38.7512 15.9329 39.1244 15.5838C39.8857 14.8728 40.6079 14.1981 41.3454 13.4752V1.46257L30.9227 1.44979L30.9286 1.9702L30.929 9.00142Z" fill="white"/>
<path d="M42.8 32.307L36.4902 24.4475L36.468 36.6059L29.4621 36.6095V43.0885L29.4393 45.0759H42.8191L42.8 32.307Z" fill="white"/>
<path d="M47.1949 10.4563L56.0004 0.00513022L72.8827 0.00109481L52.2062 22.2735L70.4423 45.0598L53.8905 45.0571L47.1828 36.6306H56.0573L44.6095 22.2735L57.1626 10.4563H47.1949Z" fill="white"/>
<path d="M1.77275 66.2109C1.77275 66.4797 1.63192 66.6142 1.35027 66.6142H0.40413C0.134793 66.6142 0 66.4797 0 66.2109V53.4033C0 53.293 0.0333705 53.1986 0.100985 53.119C0.168375 53.0397 0.269349 53 0.40413 53H1.35027C1.46042 53 1.5585 53.0365 1.64425 53.1098C1.72977 53.1832 1.77275 53.2809 1.77275 53.4033V59.9402L8.11885 53.2841C8.25968 53.0946 8.40028 53.0002 8.54155 53.0002H10.3598C10.5066 53.0002 10.5803 53.0336 10.5803 53.1009C10.5803 53.1558 10.5465 53.217 10.4793 53.2841V53.2657C9.61622 54.2069 8.7482 55.1361 7.87549 56.0529C7.00322 56.9695 6.11999 57.8953 5.226 58.8307L11.5172 66.2474C11.5663 66.3207 11.6012 66.3804 11.6227 66.4261C11.6442 66.4718 11.6549 66.5012 11.6549 66.5133C11.6549 66.5808 11.5875 66.614 11.4532 66.614H9.63481C9.48794 66.614 9.35293 66.5194 9.23046 66.3297L4.01409 60.0956L1.7732 62.4792L1.77275 66.2109Z" fill="white"/>
<path d="M15.2775 66.3032C15.2379 66.3987 15.1817 66.4743 15.1091 66.5304C15.0362 66.5864 14.9435 66.6142 14.8313 66.6142H13.9391C13.681 66.6142 13.552 66.5165 13.552 66.32C13.552 66.2808 13.5533 66.2485 13.5563 66.2234C13.5589 66.1985 13.5632 66.1747 13.5688 66.1519C13.5744 66.1299 13.5802 66.1102 13.5856 66.0934L18.4426 54.4462C18.4538 54.4184 18.4679 54.3861 18.4847 54.3495C18.5015 54.3132 18.5243 54.2796 18.5525 54.2489C18.5805 54.2181 18.621 54.1912 18.6746 54.169C18.7276 54.1466 18.7993 54.1354 18.889 54.1354H19.4445C19.5287 54.1354 19.5974 54.1468 19.6507 54.169C19.7042 54.1915 19.7447 54.2181 19.7732 54.2489C19.8012 54.2796 19.8238 54.3134 19.8406 54.3495C19.8574 54.3861 19.8712 54.4184 19.8827 54.4462L24.6978 66.0934C24.7034 66.1216 24.7092 66.1494 24.7148 66.1772C24.7202 66.2055 24.726 66.2317 24.7316 66.257C24.737 66.2824 24.7401 66.3032 24.7401 66.32C24.7401 66.5165 24.6107 66.6142 24.353 66.6142H23.4606C23.3482 66.6142 23.2558 66.5864 23.183 66.5304C23.1098 66.4743 23.0536 66.3987 23.0144 66.3032L22.0884 63.9924H16.1787C15.9821 64.4911 15.8028 64.9418 15.6402 65.3451C15.477 65.7485 15.3559 66.068 15.2775 66.3032ZM16.8514 62.3622H21.4394L19.1667 56.6141L16.8514 62.3622Z" fill="white"/>
<path d="M33.9488 54.135C34.0498 54.135 34.1409 54.1657 34.2222 54.2273C34.3037 54.2892 34.3498 54.3816 34.3612 54.5047V55.3536C34.3612 55.4657 34.3276 55.5626 34.2603 55.6435C34.1926 55.7249 34.0888 55.7655 33.9488 55.7655H30.4468V66.2277C30.4468 66.3284 30.413 66.4183 30.3458 66.4965C30.2784 66.575 30.1828 66.6142 30.0594 66.6142H29.2093C29.1084 66.6142 29.0186 66.5779 28.94 66.505C28.8614 66.4322 28.8222 66.3398 28.8222 66.2277V55.7655H25.3034C25.191 55.7655 25.0985 55.7318 25.0258 55.6648C24.9528 55.5973 24.9163 55.4937 24.9163 55.3538V54.5049C24.9163 54.3933 24.9528 54.3034 25.0258 54.2361C25.0985 54.1691 25.191 54.1354 25.3034 54.1354L33.9488 54.135Z" fill="white"/>
<path d="M36.4487 66.3032C36.4093 66.3987 36.3533 66.4743 36.2803 66.5304C36.2073 66.5864 36.1147 66.6142 36.0025 66.6142H35.1105C34.8521 66.6142 34.7232 66.5165 34.7232 66.32C34.7232 66.2808 34.7245 66.2485 34.7277 66.2234C34.7303 66.1985 34.7344 66.1747 34.7404 66.1519C34.7458 66.1299 34.7516 66.1102 34.7572 66.0934L39.614 54.4462C39.6254 54.4184 39.6393 54.3861 39.6561 54.3495C39.6729 54.3132 39.6955 54.2796 39.7235 54.2489C39.7515 54.2181 39.792 54.1912 39.8455 54.169C39.8988 54.1466 39.9704 54.1354 40.06 54.1354H40.6157C40.6999 54.1354 40.7684 54.1468 40.8219 54.169C40.8754 54.1915 40.9159 54.2181 40.9441 54.2489C40.9721 54.2796 40.9945 54.3134 41.0115 54.3495C41.0283 54.3861 41.0424 54.4184 41.0536 54.4462L45.8686 66.0934C45.8739 66.1216 45.88 66.1494 45.8856 66.1772C45.8907 66.2055 45.8968 66.2317 45.9024 66.257C45.9075 66.2824 45.9106 66.3032 45.9106 66.32C45.9106 66.5165 45.7815 66.6142 45.5235 66.6142H44.6311C44.519 66.6142 44.4263 66.5864 44.3535 66.5304C44.2805 66.4743 44.2243 66.3987 44.1849 66.3032L43.2589 63.9924H37.3494C37.1528 64.4911 36.9733 64.9418 36.8107 65.3451C36.6482 65.7485 36.5273 66.068 36.4487 66.3032ZM38.0228 62.3622H42.6108L40.3379 56.6141L38.0228 62.3622Z" fill="white"/>
<path d="M48.6464 54.5383C48.6464 54.2695 48.7698 54.135 49.0165 54.135H53.8738C54.4351 54.135 54.9569 54.2401 55.4396 54.45C55.9221 54.6603 56.3433 54.946 56.7024 55.3074C57.0615 55.6686 57.3436 56.0917 57.5487 56.5762C57.7533 57.061 57.8558 57.5778 57.8558 58.1267C57.8558 58.5191 57.8012 58.8958 57.6917 59.257C57.5825 59.6187 57.4293 59.9534 57.233 60.2613C57.0364 60.5698 56.8009 60.8456 56.5257 61.0893C56.2506 61.333 55.9447 61.5359 55.6082 61.6985L57.8306 66.2447V66.3539C57.8306 66.5277 57.7267 66.6145 57.5191 66.6145H56.5007C56.3265 66.6145 56.1919 66.5109 56.0963 66.3035L54.0762 62.0682C54.0312 62.0736 53.9819 62.0767 53.9289 62.0767C53.8753 62.0767 53.7997 62.0781 53.7016 62.0808C53.6033 62.0837 53.4728 62.0853 53.3102 62.0853C53.147 62.0853 52.9325 62.0853 52.6661 62.0853C52.3995 62.0853 52.0726 62.0853 51.6853 62.0853C51.2979 62.0853 50.8293 62.0853 50.2795 62.0853V66.2449C50.2795 66.4916 50.1503 66.6147 49.8924 66.6147H49.017C48.7698 66.6147 48.6467 66.4916 48.6467 66.2449L48.6464 54.5383ZM56.2394 58.1101C56.2394 57.802 56.1789 57.505 56.0583 57.2191C55.9376 56.9334 55.7721 56.6812 55.5614 56.4628C55.351 56.244 55.1011 56.0693 54.8123 55.9374C54.5233 55.8058 54.2105 55.7399 53.8738 55.7399H50.2793V60.4796H53.9074C54.2385 60.4796 54.547 60.4153 54.8334 60.2861C55.1195 60.1574 55.3664 59.9839 55.574 59.7651C55.7818 59.5467 55.9443 59.2947 56.0625 59.0088C56.1805 58.7233 56.2394 58.4238 56.2394 58.1101Z" fill="white"/>
<path d="M69.1693 54.135C69.27 54.135 69.3614 54.1657 69.4429 54.2273C69.5242 54.2892 69.571 54.3816 69.5819 54.5047V55.3536C69.5819 55.4657 69.5481 55.5626 69.481 55.6435C69.4136 55.7249 69.3097 55.7655 69.1693 55.7655H65.6672V66.2277C65.6672 66.3284 65.6339 66.4183 65.5663 66.4965C65.4989 66.575 65.4035 66.6142 65.2801 66.6142H64.43C64.3291 66.6142 64.2393 66.5779 64.1607 66.505C64.0819 66.4322 64.0429 66.3398 64.0429 66.2277V55.7655H60.5243C60.4119 55.7655 60.3195 55.7318 60.2465 55.6648C60.1735 55.5973 60.137 55.4937 60.137 55.3538V54.5049C60.137 54.3933 60.1735 54.3034 60.2465 54.2361C60.3195 54.1691 60.4119 54.1354 60.5243 54.1354L69.1693 54.135Z" fill="white"/>
<path d="M72.3011 54.5047C72.3011 54.404 72.3335 54.317 72.398 54.2442C72.4627 54.1715 72.5538 54.135 72.6716 54.135H73.547C73.648 54.135 73.7382 54.1686 73.8166 54.2356C73.8949 54.3031 73.9343 54.3928 73.9343 54.5045V66.2443C73.9343 66.4909 73.8052 66.614 73.547 66.614H72.6716C72.4247 66.614 72.3013 66.4909 72.3013 66.2443L72.3011 54.5047Z" fill="white"/>
<path d="M87.2008 55.1854C87.2623 55.2305 87.3132 55.2821 87.3526 55.341C87.3917 55.3998 87.4114 55.4601 87.4114 55.5217C87.4114 55.6002 87.3888 55.6675 87.3438 55.7233L86.8978 56.463C86.8022 56.5976 86.7044 56.6646 86.6037 56.6646C86.564 56.6646 86.5206 56.6549 86.4731 56.6352C86.4252 56.6159 86.3706 56.5836 86.3088 56.5386C85.9049 56.2527 85.4797 56.0345 85.0335 55.8832C84.5871 55.7318 84.1171 55.6424 83.6237 55.6141C82.8996 55.6141 82.2318 55.7446 81.6201 56.0052C81.0087 56.2657 80.4794 56.6159 80.0334 57.0556C79.5872 57.4955 79.2377 58.0052 78.9854 58.5848C78.7326 59.1646 78.6064 59.7769 78.6064 60.4209C78.6064 61.1045 78.7356 61.7362 78.9937 62.3162C79.2514 62.8958 79.5984 63.3958 80.0334 63.816C80.468 64.2362 80.9733 64.5638 81.5489 64.7994C82.1239 65.0346 82.7288 65.1523 83.3626 65.1523C83.5928 65.1523 83.8229 65.1355 84.0529 65.1017C84.283 65.0682 84.517 65.0109 84.7561 64.9295C84.9946 64.8485 85.2428 64.7445 85.501 64.6185C85.7594 64.4925 86.0341 64.3371 86.3263 64.1521C86.4326 64.0907 86.5197 64.0597 86.5875 64.0597C86.6885 64.0597 86.7812 64.1297 86.8652 64.27L87.3447 65.06C87.3841 65.1328 87.404 65.1999 87.404 65.2615C87.404 65.3961 87.3364 65.5026 87.2016 65.581C86.6744 65.962 86.0934 66.2602 85.4596 66.4761C84.8253 66.6916 84.1404 66.7997 83.4052 66.7997C82.8105 66.7997 82.2394 66.7239 81.6927 66.5725C81.1455 66.4212 80.6346 66.2057 80.1606 65.9254C79.6862 65.6456 79.2541 65.3106 78.8641 64.9212C78.474 64.5321 78.14 64.1005 77.8622 63.6272C77.5841 63.1539 77.3698 62.6438 77.218 62.0976C77.0665 61.5514 76.9908 60.9817 76.9908 60.3877C76.9908 59.7994 77.0665 59.2321 77.218 58.6859C77.3698 58.1397 77.5859 57.6285 77.8664 57.1523C78.1469 56.676 78.4823 56.2419 78.8723 55.8493C79.2621 55.4574 79.6958 55.1224 80.1729 54.8451C80.65 54.5677 81.162 54.3522 81.7094 54.198C82.2562 54.0442 82.8273 53.9668 83.422 53.9668C84.1239 53.9668 84.7888 54.0708 85.4173 54.2778C86.0448 54.4854 86.6399 54.7879 87.2008 55.1854Z" fill="white"/>
<path d="M95.5771 53.967C96.1662 53.967 96.7346 54.0428 97.2813 54.1942C97.8285 54.3455 98.3394 54.561 98.8134 54.8412C99.2876 55.1215 99.7213 55.456 100.114 55.8455C100.507 56.235 100.843 56.6691 101.12 57.148C101.398 57.6271 101.614 58.1413 101.769 58.6899C101.923 59.239 102 59.8106 102 60.4043C102 60.9926 101.924 61.5599 101.773 62.1061C101.621 62.6523 101.405 63.1624 101.124 63.6357C100.843 64.109 100.508 64.5402 100.118 64.9297C99.7282 65.3191 99.2943 65.6526 98.8177 65.9299C98.3406 66.2073 97.827 66.4212 97.2771 66.5725C96.7268 66.7239 96.1541 66.7996 95.5599 66.7996C94.9648 66.7996 94.3939 66.7239 93.8467 66.5725C93.2997 66.4212 92.7888 66.2057 92.3146 65.9254C91.8402 65.6456 91.4081 65.3106 91.0181 64.9212C90.628 64.5321 90.294 64.1005 90.0164 63.6272C89.7388 63.1539 89.5238 62.6438 89.3723 62.0976C89.2205 61.5514 89.1448 60.9817 89.1448 60.3877C89.1448 59.7994 89.2205 59.2321 89.3723 58.6859C89.5238 58.1397 89.7399 57.6285 90.0204 57.1522C90.301 56.676 90.6363 56.2419 91.0263 55.8493C91.4164 55.4574 91.8498 55.1224 92.3269 54.8451C92.804 54.5677 93.316 54.3522 93.8634 54.198C94.4111 54.0442 94.9818 53.967 95.5771 53.967ZM90.7615 60.3621C90.7615 60.8048 90.819 61.229 90.9341 61.6353C91.049 62.0415 91.2102 62.4223 91.4181 62.7779C91.6259 63.1337 91.8753 63.457 92.1673 63.7485C92.4592 64.0402 92.7834 64.2893 93.1396 64.4967C93.4961 64.7041 93.8776 64.8649 94.2844 64.9799C94.6909 65.0947 95.1166 65.1521 95.5601 65.1521C95.9976 65.1521 96.4212 65.0945 96.8309 64.9799C97.2406 64.8649 97.6221 64.7041 97.9758 64.4967C98.3291 64.2893 98.652 64.0402 98.9435 63.7485C99.2352 63.4572 99.4849 63.1337 99.6928 62.7779C99.9004 62.422 100.061 62.0415 100.177 61.6353C100.292 61.229 100.349 60.8048 100.349 60.3621C100.349 59.7012 100.223 59.0807 99.9702 58.5007C99.7179 57.9206 99.3756 57.4155 98.9433 56.9839C98.5109 56.5527 98.0047 56.2108 97.4237 55.9587C96.8432 55.7063 96.2215 55.5803 95.5594 55.5803C95.1163 55.5803 94.6905 55.6379 94.2839 55.7529C93.8771 55.8675 93.4956 56.0287 93.1392 56.2357C92.783 56.4431 92.4588 56.6926 92.1668 56.9839C91.8749 57.2751 91.6255 57.5971 91.4175 57.9505C91.2097 58.3032 91.0485 58.6843 90.9337 59.0931C90.819 59.5023 90.7615 59.9251 90.7615 60.3621Z" fill="white"/>
</svg>
