<svg width="445" height="341" viewBox="0 0 445 341" fill="none" xmlns="http://www.w3.org/2000/svg">
<path d="M7.72129 288.524C7.72129 289.694 7.1079 290.279 5.88116 290.279H1.7602C0.587095 290.279 0 289.694 0 288.524V232.781C0 232.301 0.145346 231.89 0.439843 231.543C0.733364 231.198 1.17316 231.025 1.7602 231.025H5.88116C6.36093 231.025 6.7881 231.184 7.16158 231.503C7.53409 231.822 7.72129 232.248 7.72129 232.781V261.231L35.362 232.262C35.9754 231.437 36.5878 231.026 37.2031 231.026H45.1223C45.762 231.026 46.0828 231.172 46.0828 231.464C46.0828 231.703 45.9356 231.97 45.6431 232.262V232.182C41.8838 236.278 38.1032 240.322 34.302 244.313C30.5028 248.302 26.6559 252.331 22.7621 256.403L50.1639 288.683C50.3774 289.002 50.5295 289.261 50.6232 289.461C50.7168 289.66 50.7636 289.787 50.7636 289.84C50.7636 290.134 50.47 290.278 49.8849 290.278H41.9648C41.3251 290.278 40.7371 289.867 40.2036 289.041L17.4835 261.908L7.72326 272.282L7.72129 288.524Z" fill="white"/>
<path d="M66.5418 288.926C66.3692 289.341 66.1245 289.67 65.8085 289.914C65.4906 290.158 65.0869 290.279 64.5983 290.279H60.7123C59.588 290.279 59.0263 289.854 59.0263 288.999C59.0263 288.828 59.0321 288.688 59.0448 288.578C59.0565 288.47 59.0751 288.367 59.0994 288.267C59.1238 288.171 59.1492 288.086 59.1726 288.012L80.3275 237.32C80.3763 237.199 80.4377 237.058 80.5109 236.899C80.584 236.741 80.6835 236.594 80.8064 236.461C80.9283 236.327 81.1048 236.21 81.3378 236.113C81.5689 236.016 81.881 235.967 82.272 235.967H84.6914C85.058 235.967 85.3574 236.017 85.5895 236.113C85.8225 236.211 85.999 236.327 86.1229 236.461C86.2448 236.594 86.3433 236.742 86.4164 236.899C86.4896 237.058 86.55 237.199 86.5997 237.32L107.572 288.012C107.597 288.135 107.622 288.256 107.646 288.377C107.67 288.5 107.695 288.614 107.72 288.725C107.743 288.835 107.757 288.926 107.757 288.999C107.757 289.854 107.193 290.279 106.071 290.279H102.184C101.694 290.279 101.291 290.158 100.974 289.914C100.656 289.67 100.411 289.341 100.24 288.926L96.2069 278.868H70.4668C69.6106 281.039 68.8295 283 68.1216 284.756C67.4107 286.511 66.8831 287.902 66.5418 288.926ZM73.3971 271.773H93.38L83.4812 246.755L73.3971 271.773Z" fill="white"/>
<path d="M147.866 235.965C148.305 235.965 148.702 236.099 149.056 236.367C149.411 236.636 149.612 237.039 149.662 237.574V241.269C149.662 241.757 149.515 242.178 149.222 242.531C148.927 242.885 148.475 243.062 147.866 243.062H132.612V288.597C132.612 289.035 132.465 289.426 132.172 289.767C131.879 290.109 131.462 290.279 130.925 290.279H127.223C126.783 290.279 126.392 290.121 126.049 289.804C125.707 289.487 125.536 289.085 125.536 288.597V243.062H110.21C109.72 243.062 109.318 242.915 109.001 242.623C108.683 242.33 108.524 241.879 108.524 241.27V237.575C108.524 237.089 108.683 236.698 109.001 236.405C109.318 236.113 109.72 235.967 110.21 235.967H147.866V235.965Z" fill="white"/>
<path d="M158.754 288.926C158.582 289.341 158.338 289.67 158.02 289.914C157.703 290.158 157.299 290.279 156.81 290.279H152.925C151.8 290.279 151.238 289.854 151.238 288.999C151.238 288.828 151.244 288.688 151.258 288.578C151.269 288.47 151.287 288.367 151.313 288.267C151.337 288.171 151.362 288.086 151.386 288.012L172.54 237.32C172.59 237.199 172.651 237.058 172.724 236.899C172.797 236.741 172.895 236.594 173.017 236.461C173.139 236.327 173.316 236.21 173.549 236.113C173.781 236.016 174.093 235.967 174.483 235.967H176.903C177.27 235.967 177.568 236.017 177.801 236.113C178.035 236.211 178.211 236.327 178.334 236.461C178.456 236.594 178.553 236.742 178.627 236.899C178.701 237.058 178.762 237.199 178.811 237.32L199.782 288.012C199.806 288.135 199.832 288.256 199.856 288.377C199.879 288.5 199.905 288.614 199.93 288.725C199.952 288.835 199.966 288.926 199.966 288.999C199.966 289.854 199.403 290.279 198.28 290.279H194.393C193.904 290.279 193.5 290.158 193.184 289.914C192.866 289.67 192.621 289.341 192.449 288.926L188.416 278.868H162.677C161.821 281.039 161.039 283 160.331 284.756C159.623 286.511 159.096 287.902 158.754 288.926ZM165.61 271.773H185.593L175.693 246.755L165.61 271.773Z" fill="white"/>
<path d="M211.882 237.721C211.882 236.551 212.419 235.965 213.494 235.965H234.649C237.094 235.965 239.367 236.423 241.47 237.336C243.571 238.252 245.405 239.495 246.97 241.068C248.534 242.64 249.762 244.482 250.656 246.59C251.547 248.7 251.994 250.95 251.994 253.339C251.994 255.046 251.756 256.686 251.279 258.258C250.803 259.832 250.136 261.289 249.281 262.629C248.424 263.972 247.399 265.172 246.2 266.233C245.002 267.294 243.67 268.177 242.204 268.884L251.883 288.671V289.146C251.883 289.903 251.431 290.28 250.527 290.28H246.091C245.332 290.28 244.746 289.829 244.33 288.927L235.531 270.493C235.335 270.517 235.12 270.531 234.889 270.531C234.656 270.531 234.327 270.536 233.9 270.548C233.471 270.561 232.903 270.568 232.195 270.568C231.484 270.568 230.55 270.568 229.389 270.568C228.228 270.568 226.804 270.568 225.117 270.568C223.43 270.568 221.389 270.568 218.994 270.568V288.672C218.994 289.746 218.432 290.281 217.308 290.281H213.495C212.419 290.281 211.883 289.746 211.883 288.672L211.882 237.721ZM244.953 253.266C244.953 251.925 244.69 250.632 244.164 249.388C243.638 248.145 242.918 247.047 242 246.097C241.084 245.144 239.995 244.384 238.737 243.81C237.478 243.237 236.116 242.95 234.649 242.95H218.993V263.579H234.796C236.238 263.579 237.582 263.299 238.829 262.737C240.075 262.177 241.151 261.422 242.055 260.469C242.96 259.519 243.668 258.422 244.183 257.178C244.696 255.935 244.953 254.632 244.953 253.266Z" fill="white"/>
<path d="M301.27 235.965C301.709 235.965 302.106 236.099 302.461 236.367C302.815 236.636 303.019 237.039 303.067 237.574V241.269C303.067 241.757 302.92 242.178 302.627 242.531C302.334 242.885 301.881 243.062 301.27 243.062H286.016V288.597C286.016 289.035 285.871 289.426 285.577 289.767C285.283 290.109 284.868 290.279 284.33 290.279H280.628C280.188 290.279 279.797 290.121 279.455 289.804C279.111 289.487 278.942 289.085 278.942 288.597V243.062H263.616C263.127 243.062 262.724 242.915 262.406 242.623C262.088 242.33 261.929 241.879 261.929 241.27V237.575C261.929 237.089 262.088 236.698 262.406 236.405C262.724 236.113 263.127 235.967 263.616 235.967H301.27V235.965Z" fill="white"/>
<path d="M314.91 237.574C314.91 237.136 315.052 236.757 315.332 236.44C315.614 236.124 316.011 235.965 316.524 235.965H320.337C320.777 235.965 321.17 236.111 321.511 236.403C321.852 236.697 322.024 237.087 322.024 237.573V288.669C322.024 289.743 321.461 290.278 320.337 290.278H316.524C315.449 290.278 314.911 289.743 314.911 288.669L314.91 237.574Z" fill="white"/>
<path d="M379.807 240.537C380.075 240.733 380.296 240.958 380.468 241.214C380.638 241.47 380.724 241.732 380.724 242.001C380.724 242.342 380.626 242.635 380.43 242.878L378.487 246.098C378.071 246.683 377.645 246.975 377.206 246.975C377.033 246.975 376.844 246.933 376.637 246.847C376.429 246.763 376.191 246.623 375.921 246.426C374.162 245.182 372.31 244.233 370.367 243.574C368.423 242.915 366.376 242.526 364.226 242.403C361.073 242.403 358.164 242.971 355.5 244.105C352.837 245.239 350.531 246.763 348.589 248.677C346.645 250.591 345.123 252.81 344.024 255.332C342.923 257.856 342.373 260.521 342.373 263.324C342.373 266.299 342.936 269.048 344.06 271.573C345.183 274.095 346.694 276.272 348.589 278.1C350.482 279.929 352.683 281.355 355.19 282.381C357.694 283.404 360.329 283.917 363.089 283.917C364.092 283.917 365.094 283.843 366.096 283.696C367.098 283.551 368.117 283.301 369.159 282.947C370.197 282.594 371.279 282.142 372.403 281.593C373.528 281.045 374.725 280.368 375.998 279.563C376.461 279.296 376.84 279.161 377.136 279.161C377.575 279.161 377.979 279.466 378.345 280.077L380.433 283.515C380.605 283.832 380.692 284.124 380.692 284.392C380.692 284.977 380.397 285.441 379.81 285.783C377.514 287.441 374.983 288.738 372.223 289.678C369.46 290.616 366.477 291.086 363.275 291.086C360.685 291.086 358.197 290.757 355.816 290.098C353.432 289.439 351.207 288.501 349.143 287.281C347.076 286.064 345.194 284.606 343.496 282.911C341.797 281.217 340.342 279.339 339.132 277.279C337.921 275.219 336.988 272.999 336.326 270.621C335.666 268.244 335.337 265.764 335.337 263.179C335.337 260.619 335.666 258.15 336.326 255.772C336.988 253.395 337.929 251.17 339.15 249.097C340.372 247.025 341.833 245.135 343.532 243.427C345.229 241.721 347.118 240.263 349.196 239.056C351.274 237.849 353.505 236.911 355.889 236.239C358.27 235.57 360.758 235.233 363.348 235.233C366.405 235.233 369.301 235.686 372.038 236.587C374.772 237.49 377.364 238.807 379.807 240.537Z" fill="white"/>
<path d="M416.29 235.234C418.856 235.234 421.331 235.564 423.713 236.223C426.096 236.881 428.321 237.819 430.386 239.039C432.451 240.259 434.34 241.715 436.052 243.41C437.763 245.105 439.224 246.994 440.434 249.079C441.644 251.164 442.585 253.402 443.257 255.79C443.929 258.18 444.265 260.667 444.265 263.251C444.265 265.812 443.936 268.281 443.275 270.658C442.613 273.036 441.673 275.256 440.451 277.316C439.228 279.376 437.768 281.252 436.069 282.948C434.37 284.643 432.48 286.094 430.404 287.301C428.326 288.508 426.089 289.439 423.694 290.098C421.297 290.757 418.803 291.086 416.215 291.086C413.623 291.086 411.136 290.757 408.753 290.098C406.371 289.439 404.145 288.501 402.08 287.281C400.014 286.064 398.132 284.606 396.433 282.91C394.734 281.217 393.279 279.339 392.07 277.279C390.861 275.219 389.925 272.999 389.265 270.621C388.603 268.244 388.274 265.764 388.274 263.179C388.274 260.619 388.603 258.15 389.265 255.772C389.925 253.395 390.866 251.17 392.088 249.097C393.31 247.025 394.77 245.135 396.469 243.427C398.168 241.721 400.056 240.263 402.134 239.056C404.212 237.848 406.442 236.911 408.826 236.239C411.211 235.57 413.697 235.234 416.29 235.234ZM395.315 263.068C395.315 264.994 395.566 266.841 396.067 268.609C396.568 270.377 397.27 272.034 398.176 273.582C399.08 275.131 400.167 276.538 401.438 277.807C402.71 279.076 404.122 280.16 405.674 281.063C407.226 281.966 408.888 282.666 410.659 283.166C412.43 283.666 414.284 283.916 416.216 283.916C418.121 283.916 419.966 283.665 421.751 283.166C423.535 282.666 425.197 281.966 426.738 281.063C428.277 280.16 429.683 279.076 430.952 277.807C432.223 276.539 433.31 275.131 434.216 273.582C435.12 272.033 435.821 270.377 436.323 268.609C436.825 266.841 437.075 264.994 437.075 263.068C437.075 260.191 436.525 257.491 435.424 254.966C434.325 252.442 432.834 250.243 430.951 248.365C429.068 246.488 426.864 245 424.333 243.903C421.805 242.804 419.097 242.256 416.213 242.256C414.283 242.256 412.428 242.506 410.658 243.007C408.886 243.506 407.224 244.207 405.672 245.108C404.12 246.011 402.708 247.097 401.436 248.365C400.165 249.632 399.079 251.034 398.173 252.571C397.268 254.107 396.566 255.766 396.065 257.545C395.566 259.326 395.315 261.166 395.315 263.068Z" fill="white"/>
<path d="M158.972 87.997L158.862 46.1027H128.573V0.580065L137.464 0.558593L186.444 0.557617V61.8718L185.496 62.8067C181.891 66.3736 178.258 69.7628 174.747 73.0407C171.433 76.1352 168.005 79.3342 164.538 82.7341L158.972 87.997ZM134.713 39.7351H165.224V46.2842L165.452 73.029C167.128 71.4462 168.783 69.9033 170.408 68.3839C173.724 65.2894 176.87 62.3529 180.082 59.2067V6.92325L134.685 6.86763L134.711 9.13263L134.713 39.7351Z" fill="white"/>
<path d="M186.417 141.169L158.935 106.962L158.838 159.88L128.324 159.895V188.094L128.224 196.744H186.5L186.417 141.169Z" fill="white"/>
<path d="M205.559 46.0674L243.912 0.579946L317.444 0.562382L227.386 97.4999L306.814 196.674L234.722 196.663L205.507 159.987H244.16L194.298 97.4999L248.974 46.0674H205.559Z" fill="white"/>
<path d="M84.8422 339.245C84.7778 339.401 84.6852 339.524 84.5662 339.617C84.4473 339.708 84.2961 339.755 84.1118 339.755H82.6501C82.2269 339.755 82.0153 339.595 82.0153 339.272C82.0153 339.209 82.0182 339.154 82.023 339.113C82.0269 339.072 82.0347 339.033 82.0435 338.995C82.0533 338.96 82.063 338.928 82.0718 338.899L90.0271 319.776C90.0447 319.73 90.0681 319.676 90.0954 319.617C90.1227 319.557 90.1597 319.503 90.2056 319.451C90.2514 319.401 90.3177 319.356 90.4055 319.318C90.4932 319.283 90.6102 319.264 90.7575 319.264H91.6673C91.8058 319.264 91.918 319.283 92.0047 319.318C92.0915 319.355 92.1578 319.401 92.2056 319.451C92.2505 319.502 92.2885 319.555 92.3158 319.617C92.3431 319.676 92.3665 319.729 92.385 319.776L100.271 338.899C100.281 338.945 100.289 338.991 100.297 339.038C100.308 339.085 100.317 339.128 100.326 339.169C100.334 339.212 100.339 339.246 100.339 339.272C100.339 339.595 100.128 339.755 99.7055 339.755H98.2437C98.0594 339.755 97.9073 339.709 97.7883 339.617C97.6694 339.524 97.5758 339.401 97.5134 339.245L95.997 335.451H86.3176C85.9958 336.268 85.7023 337.01 85.4361 337.671C85.1689 338.333 84.9709 338.857 84.8422 339.245ZM87.4205 332.773H94.9331L91.2119 323.336L87.4205 332.773Z" fill="white"/>
<path d="M113.492 332.517C113.492 332.172 113.665 331.997 114.012 331.997H115.23C115.371 331.997 115.498 332.043 115.608 332.135C115.717 332.225 115.773 332.353 115.773 332.518V337.805C115.773 337.899 115.754 337.989 115.715 338.07C115.676 338.154 115.608 338.221 115.514 338.278L115.419 338.347C114.679 338.886 113.862 339.296 112.973 339.585C112.082 339.872 111.122 340.016 110.09 340.016C109.254 340.016 108.452 339.91 107.683 339.697C106.915 339.484 106.199 339.181 105.533 338.786C104.867 338.393 104.261 337.921 103.714 337.374C103.165 336.826 102.697 336.218 102.307 335.551C101.917 334.885 101.616 334.169 101.403 333.399C101.189 332.631 101.084 331.829 101.084 330.993C101.084 330.164 101.189 329.368 101.403 328.604C101.616 327.84 101.918 327.121 102.313 326.452C102.707 325.781 103.178 325.171 103.725 324.619C104.272 324.066 104.88 323.594 105.546 323.199C106.211 322.805 106.928 322.5 107.696 322.283C108.464 322.066 109.265 321.957 110.101 321.957C111.07 321.957 112.004 322.105 112.901 322.401C113.801 322.699 114.639 323.121 115.418 323.674C115.505 323.736 115.576 323.81 115.632 323.894C115.686 323.976 115.715 324.061 115.715 324.149C115.715 324.258 115.684 324.354 115.62 324.432L114.992 325.473C114.859 325.663 114.722 325.756 114.579 325.756C114.524 325.756 114.463 325.742 114.396 325.715C114.329 325.688 114.252 325.642 114.165 325.578C113.599 325.176 112.981 324.858 112.316 324.625C111.651 324.393 110.94 324.277 110.184 324.277C109.207 324.277 108.302 324.461 107.472 324.831C106.64 325.203 105.919 325.7 105.309 326.322C104.698 326.945 104.22 327.662 103.873 328.474C103.527 329.286 103.355 330.132 103.355 331.016C103.355 331.955 103.531 332.832 103.886 333.648C104.241 334.464 104.721 335.173 105.328 335.776C105.935 336.381 106.643 336.855 107.45 337.201C108.257 337.548 109.118 337.721 110.032 337.721C110.607 337.721 111.18 337.63 111.752 337.443C112.323 337.26 112.904 337.04 113.494 336.787V332.517H113.492Z" fill="white"/>
<path d="M129.694 322.192C130.057 322.192 130.237 322.382 130.237 322.76V323.931C130.237 324.082 130.193 324.211 130.102 324.32C130.011 324.431 129.868 324.487 129.671 324.487H120.147V329.347H127.639C127.781 329.347 127.903 329.388 128.005 329.47C128.108 329.554 128.158 329.694 128.158 329.891V331.096C128.158 331.239 128.115 331.365 128.029 331.475C127.942 331.586 127.811 331.642 127.639 331.642H120.147V337.461H129.718C130.079 337.461 130.262 337.644 130.262 338.014V339.233C130.262 339.579 130.089 339.753 129.742 339.753H118.374C118.028 339.753 117.854 339.587 117.854 339.256V322.736C117.854 322.373 118.028 322.19 118.374 322.19H129.694V322.192Z" fill="white"/>
<path d="M144.797 339.754C144.623 339.754 144.474 339.667 144.347 339.495L134.031 325.657V339.232C134.031 339.578 133.848 339.752 133.486 339.752H132.292C131.946 339.752 131.772 339.578 131.772 339.232V322.736C131.772 322.577 131.82 322.446 131.915 322.346C132.009 322.244 132.135 322.192 132.292 322.192H133.876C134.082 322.192 134.246 322.279 134.373 322.455L144.43 335.829V322.63C144.478 322.341 144.65 322.193 144.949 322.193H146.143C146.285 322.193 146.417 322.241 146.539 322.336C146.661 322.431 146.722 322.557 146.722 322.714V339.235C146.722 339.581 146.529 339.755 146.143 339.755L144.797 339.754Z" fill="white"/>
<path d="M162.878 323.671C162.964 323.733 163.035 323.807 163.091 323.891C163.146 323.973 163.173 324.058 163.173 324.146C163.173 324.255 163.142 324.351 163.079 324.429L162.452 325.47C162.317 325.659 162.18 325.753 162.037 325.753C161.983 325.753 161.921 325.739 161.855 325.712C161.788 325.685 161.711 325.639 161.624 325.575C161.057 325.172 160.461 324.865 159.835 324.653C159.207 324.44 158.548 324.314 157.855 324.275C156.839 324.275 155.901 324.458 155.043 324.824C154.185 325.19 153.44 325.684 152.815 326.302C152.188 326.921 151.698 327.638 151.344 328.454C150.99 329.271 150.812 330.131 150.812 331.039C150.812 331.999 150.993 332.889 151.356 333.703C151.718 334.521 152.205 335.224 152.815 335.814C153.426 336.406 154.136 336.867 154.943 337.197C155.751 337.528 156.599 337.694 157.489 337.694C157.812 337.694 158.136 337.671 158.459 337.625C158.781 337.577 159.11 337.497 159.445 337.383C159.782 337.269 160.129 337.12 160.492 336.945C160.855 336.767 161.241 336.548 161.65 336.289C161.799 336.202 161.921 336.157 162.017 336.157C162.158 336.157 162.288 336.256 162.406 336.454L163.08 337.564C163.135 337.667 163.163 337.761 163.163 337.847C163.163 338.037 163.068 338.188 162.88 338.298C162.139 338.834 161.324 339.254 160.433 339.558C159.542 339.862 158.581 340.012 157.55 340.012C156.714 340.012 155.912 339.907 155.144 339.694C154.376 339.481 153.659 339.178 152.994 338.783C152.327 338.389 151.72 337.918 151.173 337.37C150.624 336.823 150.157 336.215 149.767 335.548C149.378 334.882 149.076 334.166 148.863 333.396C148.65 332.628 148.544 331.826 148.544 330.989C148.544 330.161 148.65 329.362 148.863 328.596C149.076 327.826 149.379 327.108 149.773 326.437C150.167 325.766 150.639 325.156 151.185 324.604C151.733 324.051 152.342 323.58 153.011 323.192C153.68 322.801 154.399 322.497 155.167 322.279C155.936 322.063 156.737 321.953 157.572 321.953C158.557 321.953 159.49 322.1 160.373 322.391C161.254 322.686 162.089 323.111 162.878 323.671Z" fill="white"/>
<path d="M164.791 322.713C164.791 322.572 164.836 322.449 164.928 322.346C165.019 322.244 165.146 322.193 165.312 322.193H166.542C166.683 322.193 166.809 322.241 166.919 322.336C167.029 322.431 167.085 322.557 167.085 322.714V339.235C167.085 339.581 166.905 339.755 166.542 339.755H165.312C164.966 339.755 164.792 339.581 164.792 339.235L164.791 322.713Z" fill="white"/>
<path d="M171.077 339.318C171.023 339.452 170.944 339.559 170.842 339.637C170.74 339.715 170.61 339.755 170.452 339.755H169.2C168.837 339.755 168.656 339.617 168.656 339.34C168.656 339.286 168.658 339.241 168.662 339.206C168.666 339.17 168.671 339.135 168.679 339.104C168.688 339.072 168.696 339.045 168.703 339.02L175.521 322.629C175.537 322.59 175.556 322.546 175.579 322.495C175.603 322.443 175.636 322.395 175.674 322.352C175.713 322.308 175.772 322.27 175.847 322.24C175.922 322.209 176.021 322.192 176.148 322.192H176.928C177.047 322.192 177.144 322.209 177.218 322.24C177.292 322.27 177.35 322.308 177.39 322.352C177.429 322.395 177.461 322.443 177.485 322.495C177.508 322.546 177.528 322.59 177.544 322.629L184.304 339.02C184.312 339.061 184.32 339.1 184.327 339.139C184.335 339.178 184.344 339.216 184.35 339.251C184.358 339.287 184.362 339.316 184.362 339.339C184.362 339.616 184.18 339.754 183.818 339.754H182.565C182.407 339.754 182.278 339.715 182.176 339.636C182.074 339.557 181.994 339.451 181.94 339.317L180.64 336.064H172.343C172.069 336.767 171.815 337.4 171.587 337.969C171.357 338.536 171.188 338.987 171.077 339.318ZM173.288 333.77H179.728L176.538 325.681L173.288 333.77Z" fill="white"/>
<path d="M191.935 322.761C191.935 322.383 192.116 322.193 192.479 322.193H197.998C198.841 322.193 199.644 322.296 200.409 322.501C201.172 322.706 201.882 322.997 202.538 323.375C203.192 323.755 203.782 324.211 204.309 324.747C204.837 325.283 205.289 325.877 205.664 326.527C206.037 327.177 206.327 327.879 206.532 328.631C206.737 329.384 206.84 330.169 206.84 330.991C206.84 331.803 206.735 332.581 206.526 333.327C206.317 334.071 206.021 334.77 205.64 335.42C205.258 336.07 204.798 336.662 204.263 337.194C203.727 337.727 203.132 338.181 202.478 338.56C201.824 338.938 201.12 339.231 200.363 339.439C199.606 339.65 198.819 339.753 198 339.753H192.481C192.339 339.753 192.214 339.719 192.102 339.653C191.992 339.586 191.937 339.453 191.937 339.256L191.935 322.761ZM197.938 337.495C198.898 337.495 199.787 337.317 200.598 336.964C201.409 336.61 202.109 336.131 202.696 335.528C203.283 334.924 203.74 334.22 204.071 333.417C204.403 332.612 204.569 331.76 204.569 330.862C204.569 329.901 204.394 329.024 204.049 328.237C203.702 327.447 203.231 326.774 202.637 326.215C202.043 325.655 201.346 325.221 200.55 324.914C199.755 324.608 198.904 324.453 197.998 324.453H194.205V337.495H197.938Z" fill="white"/>
<path d="M220.781 322.192C221.143 322.192 221.324 322.382 221.324 322.76V323.931C221.324 324.082 221.279 324.211 221.188 324.32C221.097 324.431 220.954 324.487 220.757 324.487H211.233V329.347H218.725C218.867 329.347 218.989 329.388 219.092 329.47C219.194 329.554 219.245 329.694 219.245 329.891V331.096C219.245 331.239 219.201 331.365 219.115 331.475C219.028 331.586 218.897 331.642 218.725 331.642H211.233V337.461H220.804C221.166 337.461 221.348 337.644 221.348 338.014V339.233C221.348 339.579 221.175 339.753 220.828 339.753H209.46C209.113 339.753 208.94 339.587 208.94 339.256V322.736C208.94 322.373 209.113 322.19 209.46 322.19H220.781V322.192Z" fill="white"/>
<path d="M230.388 319.928C230.388 319.487 230.599 319.267 231.022 319.267H237.873C238.785 319.267 239.627 319.437 240.404 319.777C241.181 320.118 241.852 320.578 242.422 321.165C242.991 321.748 243.438 322.429 243.759 323.205C244.082 323.983 244.242 324.805 244.242 325.667C244.242 326.512 244.083 327.318 243.766 328.082C243.452 328.846 243.01 329.518 242.443 330.104C241.879 330.687 241.212 331.151 240.445 331.496C239.679 331.841 238.843 332.013 237.944 332.013H233.048V339.147C233.048 339.553 232.847 339.755 232.442 339.755H230.994C230.59 339.755 230.388 339.554 230.388 339.147V319.928ZM241.583 325.64C241.583 325.154 241.485 324.685 241.294 324.232C241.101 323.781 240.835 323.384 240.501 323.039C240.166 322.695 239.772 322.418 239.323 322.212C238.873 322.006 238.39 321.901 237.875 321.901H233.05V329.38H237.875C238.372 329.38 238.845 329.278 239.296 329.075C239.746 328.875 240.141 328.6 240.481 328.254C240.823 327.91 241.09 327.512 241.287 327.062C241.484 326.611 241.583 326.137 241.583 325.64Z" fill="white"/>
<path d="M248.296 332.494C248.296 333.244 248.405 333.941 248.621 334.588C248.838 335.233 249.157 335.796 249.577 336.272C249.997 336.75 250.511 337.124 251.119 337.395C251.726 337.669 252.418 337.805 253.2 337.805C254.034 337.805 254.762 337.667 255.385 337.391C256.007 337.114 256.521 336.739 256.927 336.26C257.332 335.784 257.637 335.223 257.838 334.576C258.039 333.929 258.139 333.235 258.139 332.495V322.714C258.139 322.573 258.193 322.45 258.299 322.347C258.404 322.245 258.538 322.194 258.695 322.194H259.831C259.98 322.194 260.117 322.242 260.243 322.337C260.369 322.432 260.43 322.558 260.43 322.715V332.815C260.43 333.88 260.243 334.856 259.864 335.741C259.484 336.628 258.966 337.39 258.307 338.026C257.652 338.66 256.882 339.155 256.006 339.509C255.126 339.864 254.191 340.042 253.2 340.042C252.206 340.042 251.272 339.853 250.4 339.475C249.523 339.096 248.757 338.577 248.101 337.918C247.443 337.262 246.924 336.494 246.548 335.62C246.17 334.746 245.981 333.811 245.981 332.817V322.717C245.981 322.599 246.024 322.483 246.117 322.369C246.209 322.256 246.328 322.196 246.477 322.196H247.741C247.86 322.196 247.982 322.247 248.107 322.349C248.233 322.452 248.297 322.574 248.297 322.716L248.296 332.494Z" fill="white"/>
<path d="M275.049 326.959C275.049 327.637 274.916 328.276 274.654 328.874C274.39 329.475 274.021 329.988 273.548 330.412C273.91 330.627 274.238 330.881 274.535 331.182C274.829 331.482 275.084 331.811 275.297 332.17C275.511 332.529 275.674 332.913 275.788 333.323C275.902 333.733 275.96 334.158 275.96 334.601C275.96 335.286 275.834 335.941 275.582 336.565C275.33 337.188 274.983 337.735 274.543 338.208C274.101 338.681 273.579 339.058 272.976 339.338C272.374 339.618 271.723 339.758 271.021 339.758H263.303C263.146 339.758 263.016 339.715 262.915 339.628C262.813 339.541 262.762 339.412 262.762 339.238V322.763C262.762 322.384 262.942 322.195 263.304 322.195H270.241C270.927 322.195 271.562 322.318 272.145 322.562C272.728 322.806 273.236 323.141 273.669 323.567C274.102 323.992 274.441 324.495 274.685 325.076C274.926 325.652 275.049 326.281 275.049 326.959ZM272.732 326.959C272.732 326.596 272.672 326.262 272.55 325.955C272.427 325.648 272.254 325.381 272.03 325.157C271.806 324.933 271.54 324.76 271.232 324.637C270.926 324.516 270.586 324.454 270.216 324.454H265.016V329.585H270.193C270.555 329.585 270.892 329.519 271.204 329.384C271.513 329.252 271.784 329.065 272.006 328.83C272.232 328.594 272.409 328.316 272.54 327.997C272.667 327.674 272.732 327.329 272.732 326.959ZM265.015 331.843V337.494H270.997C271.358 337.494 271.701 337.417 272.025 337.26C272.348 337.101 272.629 336.891 272.869 336.626C273.11 336.362 273.298 336.055 273.437 335.705C273.575 335.355 273.644 334.986 273.644 334.599C273.644 334.228 273.575 333.878 273.437 333.547C273.297 333.216 273.111 332.924 272.876 332.672C272.639 332.419 272.359 332.218 272.038 332.07C271.714 331.92 271.368 331.846 270.998 331.846L265.015 331.843Z" fill="white"/>
<path d="M288.108 337.461C288.249 337.461 288.372 337.511 288.475 337.606C288.576 337.706 288.628 337.841 288.628 338.014V339.233C288.628 339.375 288.579 339.497 288.485 339.6C288.39 339.702 288.263 339.753 288.107 339.753H278.06C277.715 339.753 277.542 339.579 277.542 339.233V322.712C277.542 322.571 277.588 322.448 277.683 322.346C277.778 322.243 277.912 322.192 278.084 322.192H279.302C279.452 322.192 279.577 322.236 279.674 322.322C279.773 322.41 279.822 322.54 279.822 322.712V337.46H288.108V337.461Z" fill="white"/>
<path d="M289.834 322.713C289.834 322.572 289.878 322.449 289.969 322.346C290.06 322.244 290.19 322.193 290.355 322.193H291.582C291.726 322.193 291.85 322.241 291.961 322.336C292.072 322.431 292.127 322.557 292.127 322.714V339.235C292.127 339.581 291.946 339.755 291.582 339.755H290.355C290.006 339.755 289.835 339.581 289.835 339.235L289.834 322.713Z" fill="white"/>
<path d="M308.34 323.671C308.426 323.733 308.496 323.807 308.553 323.891C308.608 323.973 308.635 324.058 308.635 324.146C308.635 324.255 308.605 324.351 308.541 324.429L307.913 325.47C307.781 325.659 307.643 325.753 307.501 325.753C307.444 325.753 307.385 325.739 307.318 325.712C307.251 325.685 307.174 325.639 307.087 325.575C306.521 325.172 305.924 324.865 305.297 324.653C304.67 324.44 304.012 324.314 303.319 324.275C302.302 324.275 301.364 324.458 300.505 324.824C299.647 325.191 298.903 325.684 298.278 326.302C297.652 326.921 297.16 327.638 296.806 328.454C296.452 329.271 296.274 330.131 296.274 331.039C296.274 331.999 296.456 332.889 296.818 333.703C297.181 334.521 297.667 335.224 298.278 335.814C298.888 336.406 299.598 336.867 300.405 337.197C301.213 337.528 302.063 337.694 302.953 337.694C303.275 337.694 303.597 337.671 303.921 337.625C304.244 337.577 304.573 337.497 304.909 337.383C305.243 337.269 305.591 337.12 305.954 336.945C306.316 336.767 306.703 336.548 307.112 336.289C307.262 336.202 307.383 336.157 307.479 336.157C307.621 336.157 307.75 336.256 307.87 336.454L308.543 337.564C308.598 337.667 308.625 337.761 308.625 337.847C308.625 338.037 308.531 338.188 308.342 338.298C307.599 338.834 306.784 339.254 305.895 339.558C305.005 339.862 304.046 340.012 303.011 340.012C302.178 340.012 301.376 339.907 300.607 339.694C299.839 339.481 299.122 339.178 298.456 338.783C297.789 338.389 297.184 337.918 296.638 337.37C296.09 336.823 295.622 336.215 295.231 335.548C294.84 334.882 294.54 334.166 294.327 333.396C294.113 332.628 294.008 331.826 294.008 330.989C294.008 330.161 294.113 329.362 294.327 328.596C294.54 327.826 294.84 327.108 295.235 326.437C295.629 325.766 296.1 325.156 296.649 324.604C297.197 324.051 297.806 323.58 298.474 323.192C299.144 322.801 299.864 322.497 300.631 322.279C301.398 322.063 302.2 321.953 303.036 321.953C304.022 321.953 304.954 322.1 305.837 322.391C306.716 322.686 307.552 323.111 308.34 323.671Z" fill="white"/>
<path d="M310.253 322.713C310.253 322.572 310.298 322.449 310.388 322.346C310.477 322.244 310.608 322.193 310.774 322.193H312.001C312.144 322.193 312.269 322.241 312.38 322.336C312.491 322.431 312.546 322.557 312.546 322.714V339.235C312.546 339.581 312.365 339.755 312.001 339.755H310.774C310.426 339.755 310.254 339.581 310.254 339.235L310.253 322.713Z" fill="white"/>
<path d="M315.109 322.761C315.109 322.383 315.29 322.193 315.652 322.193H321.172C322.014 322.193 322.818 322.296 323.582 322.501C324.347 322.706 325.055 322.997 325.71 323.375C326.363 323.755 326.955 324.211 327.482 324.747C328.01 325.283 328.461 325.877 328.835 326.527C329.209 327.177 329.498 327.879 329.703 328.631C329.908 329.384 330.01 330.169 330.01 330.991C330.01 331.803 329.906 332.581 329.698 333.327C329.488 334.071 329.193 334.77 328.812 335.42C328.43 336.07 327.972 336.662 327.436 337.194C326.898 337.727 326.307 338.181 325.651 338.56C324.997 338.938 324.291 339.231 323.537 339.439C322.78 339.65 321.992 339.753 321.172 339.753H315.652C315.511 339.753 315.385 339.719 315.276 339.653C315.164 339.586 315.11 339.453 315.11 339.256L315.109 322.761ZM321.111 337.495C322.072 337.495 322.959 337.317 323.769 336.964C324.58 336.61 325.281 336.131 325.867 335.528C326.456 334.924 326.914 334.22 327.245 333.417C327.575 332.612 327.741 331.76 327.741 330.862C327.741 329.901 327.567 329.024 327.221 328.237C326.876 327.447 326.404 326.774 325.81 326.215C325.215 325.655 324.519 325.221 323.723 324.914C322.928 324.608 322.077 324.453 321.17 324.453H317.376V337.495H321.111Z" fill="white"/>
<path d="M333.531 339.318C333.475 339.452 333.397 339.559 333.296 339.637C333.193 339.715 333.061 339.755 332.905 339.755H331.652C331.292 339.755 331.11 339.617 331.11 339.34C331.11 339.286 331.112 339.241 331.115 339.206C331.119 339.17 331.125 339.135 331.132 339.104C331.141 339.072 331.15 339.045 331.156 339.02L337.975 322.629C337.991 322.59 338.011 322.546 338.036 322.495C338.057 322.443 338.09 322.395 338.129 322.352C338.168 322.308 338.225 322.27 338.3 322.24C338.375 322.209 338.476 322.192 338.602 322.192H339.384C339.502 322.192 339.598 322.209 339.673 322.24C339.748 322.27 339.806 322.308 339.846 322.352C339.885 322.395 339.916 322.443 339.939 322.495C339.963 322.546 339.984 322.59 340 322.629L346.759 339.02C346.766 339.061 346.776 339.1 346.784 339.139C346.791 339.178 346.799 339.216 346.806 339.251C346.814 339.287 346.817 339.316 346.817 339.339C346.817 339.616 346.636 339.754 346.274 339.754H345.022C344.865 339.754 344.732 339.715 344.631 339.636C344.528 339.558 344.449 339.451 344.396 339.317L343.096 336.064H334.8C334.524 336.767 334.272 337.4 334.043 337.969C333.81 338.536 333.642 338.987 333.531 339.318ZM335.741 333.77H342.182L338.991 325.681L335.741 333.77Z" fill="white"/>
<path d="M348.234 322.761C348.234 322.383 348.414 322.193 348.776 322.193H354.297C355.138 322.193 355.943 322.296 356.706 322.501C357.472 322.706 358.18 322.997 358.834 323.375C359.487 323.755 360.078 324.211 360.606 324.747C361.134 325.283 361.585 325.877 361.959 326.527C362.333 327.177 362.623 327.879 362.828 328.631C363.033 329.384 363.134 330.169 363.134 330.991C363.134 331.803 363.03 332.581 362.822 333.327C362.613 334.071 362.317 334.77 361.937 335.42C361.555 336.07 361.096 336.662 360.561 337.194C360.023 337.727 359.431 338.181 358.775 338.56C358.122 338.938 357.415 339.231 356.661 339.439C355.905 339.65 355.117 339.753 354.298 339.753H348.777C348.635 339.753 348.509 339.719 348.401 339.653C348.29 339.586 348.234 339.453 348.234 339.256V322.761ZM354.236 337.495C355.198 337.495 356.084 337.317 356.895 336.964C357.707 336.61 358.406 336.131 358.992 335.528C359.581 334.924 360.039 334.22 360.37 333.417C360.7 332.612 360.866 331.76 360.866 330.862C360.866 329.901 360.693 329.024 360.347 328.237C360.001 327.447 359.529 326.774 358.935 326.215C358.341 325.656 357.644 325.221 356.85 324.914C356.053 324.608 355.203 324.453 354.297 324.453H350.501V337.495H354.236Z" fill="white"/>
</svg>
