<svg xmlns="http://www.w3.org/2000/svg" width="43" height="45" fill="none" viewBox="0 0 43 45">
    <path fill="#fff" d="M6.988 19.885l-.025-9.527H.079V.005L2.1 0H13.23v13.944l-.215.212c-.82.811-1.645 1.582-2.443 2.328-.753.703-1.532 1.431-2.32 2.204l-1.264 1.197zM1.475 8.91h6.933v1.489l.052 6.082c.38-.36.757-.71 1.126-1.056.754-.704 1.469-1.372 2.199-2.087V1.448L1.468 1.435l.006.515v6.96zM13.224 31.977L6.98 24.198l-.022 12.034-6.934.004v6.413L0 44.616h13.243l-.019-12.639zM17.574 10.35L26.29.005 43 .001 22.535 22.046 40.585 44.6l-16.383-.003-6.64-8.34h8.784l-11.33-14.21L27.44 10.35h-9.866z"/>
</svg>
